<mxfile host="Electron" modified="2023-04-02T22:15:38.217Z" agent="Mozilla/5.0 (Windows NT 10.0; Win64; x64) AppleWebKit/537.36 (KHTML, like Gecko) draw.io/21.1.2 Chrome/106.0.5249.199 Electron/21.4.3 Safari/537.36" etag="8qe2POb34zVIIh5VchdB" version="21.1.2" type="device">
  <diagram name="Page-1" id="8M58Rzq39Wg0OsJOpSqv">
    <mxGraphModel dx="810" dy="428" grid="1" gridSize="10" guides="1" tooltips="1" connect="1" arrows="1" fold="1" page="1" pageScale="1" pageWidth="827" pageHeight="1169" math="0" shadow="0">
      <root>
        <mxCell id="0" />
        <mxCell id="1" parent="0" />
        <mxCell id="cdlqq1NdYdRUZiqAoaAK-2" value="" style="shape=image;verticalLabelPosition=bottom;labelBackgroundColor=default;verticalAlign=top;aspect=fixed;imageAspect=0;image=data:image/webp,UklGRjQlAQBXRUJQVlA4WAoAAAAIAAAAIAMArwQAVlA4IFQkAQCw3QWdASohA7AEPm00lUikIqIoJBcZ6QANiWduCdIt5//3976qVnPEnaTKu/GyuXht2j+z+Yxc3fgETmI8c3/vebnPS/8XqJ/pf/ZzLuVZm54QsV87Hpjcc8VedbAW6W84PqT/q3qL/sX64/VL/xvQx5rfp9/q3qIf1X/q9df6IXl5+1d+7uT6/H//Z6CPl3+R39/nX3f/W9X/+Kzz2n/f5PF2+/sP996B3wD0ZeWPiycx/0//b6jXw5+L/6/+R/LL4u/xP2z9Zv33/aewH+xX/k9gv+z4hP47/nfub8Av9V/z//1/0/vD/7X/4/5P5p+7n9o/4f/1/3vwJfsl/4v817e3//92H7x//n/l/DP+1P/9G9ikSG3dUU2i1lyJFx+jI85cSYrhIZt7QYKsz4GcUhiqVCFL6wcTH7zdQt0slXecAjk2qKZZvG6t3T8xpNoK28t/OKorzqDEJ3FZ6EFzHLbu4OmAHWrfHwMJB06eNOp8Nj3ZipAQsuxWMfNJLq6ZmwCYRPWmp+VKy+GoUautZ+0BYryyw/sDzjYAldFx5/brPbCorItGhb4wuYYnBY6zskYptNnW6fsyl24Mv6QBE9epgQvqCmBEG5fbbDiNvNxlfnuBXEcacd9NqvHntlbus7vw9YeU4vBERHrC1Neh+1C96gd2KGb0w0uiks/m67xmOuREdaODJANItZbPTxaPlXU+M8GIbF39AZP6l39iSj5NfaGrxJAZCBfqs+nBizyS4dQfTRol6rSXlVChQ9uFKlIliqB9CaQLaA/C8ZhJ4jyiHBxnd86xsIWbGNt0lSP04zSk2bd5gGngt+5JnkmHKp8uLcAE0oh2CAVJPrl93cvJHd94Oh7iMFT6/9bsVOZdPBbSxNkn99EKnNi2oBwEWaCgZv+yl5b2/KlFClBZN46QAZWr1FCfe9DqSk5FAnAI6oY7PlO6xxSCUmKyV84+8HaFVWGDZS0bmGHIedmqiFh5nIlpnO4gMBg79QPeY/Z68kJ02jHLKeiYxJBvrpAGInGZtdmtVQveDT5UuZeenWjAErY+9uykbJip9NPJ+l92KOczsLqszpbIk7bQyPKdJvavov5w2oFMyp2cfIqRkfhzCvHB/HnwuZZpc+EHG+rNRkdbtQ7enni5c+SEyaCbaDHGigFZSBiLqmmVd0lsXwRPlom6XalXaDkf9RZuckxJ0h1lnwjeiobwuMKaxQlxNglPPWLA3eQ3X76Syg+sOoYUaslcDGLvw/TvOnqa1UXj+dNo42a2NRIq+DkPT9XObbV6PN4igIKlXu6qg4vUHrQi3eqD7hs5U3rHteitgv97hs6SAPYEvAQT4WbJ85X3EiTKT0yccJWbogvlVJ3YNHrjo9dFJo+stoDbsVHkrp0mzLz4BYpmslj7ElmlPwFohIF+M7P5BfJQjLINy/g/yxkYqHVwJACtmNZt+teKVZ9KNODGdKJCdW2RWektRNJXJluymGEDauBJPHzvrX40j1AG3yhxu7ujXOJowOvCVsi3mUu7s0volY7R90XUP6s/aO06WZIBA/0JInuqUF7E5MjYjuTvmDI2wMJP3L8X4hU6DYMLGPpCg8dd4RYjUHtqPryq5QaiZHA5qNMdI7AhElgRkv4SnciAbRObbFDiEBD6ZBqgAQX+lyZ0gwMpSKB4VO9WTNl1y5JR0JbAdHet04cuHpHjmbJgENBx9m0Rxx89+yl8/6O2fcygDun72uz1xfH9n79BFcIYHZUl8xk2bfpukZykdoOjiUJalqE0USa9B747dXpwouU8wLIQCt89r1SBgLRWWohLoyNyL8kPfoKfk9zQc4mlFCaS5FEZbKRPFlUT2KiqnEFi6+n42D4TWIVXdPly9T7blX2LLYKKjCsRrvZxFycb76EXpC0vS7ztcgMhvIgO89BIC9a4Jlj4q7tHnY6IkrpPNJHGaKB4R5baLn8Ny8qlkn1Du4QqnTGnSCHzmq8dMXu4f1aVNXGmd1omffYWy+rbmlnpUuwRGjAKFOYwURqJA8JG5pinzVDAYBasvPyG4CCUNiWK8bFzGJeEtyC0JXJocqzM7BN0WDQtCCJT6OSRMz9mdxfLWJfm/CqgH/xvXrz2btCVUot6c0WpI4bAVl7TR1p6oQFZmigxxA/fjXaVk0Jei9JmLwxuYFnpHEpSXbvYzkRHE92Uf2dQR5sL3aMdxYHJTjvSzKOh5xlAC7p7s/I+WHQhVwArpITnKo+UqDG6LJ7Y/SoJcgJjRn/PUY6EUzseWCLf6gQuE44rUyA9hnEPUmNHW4EWitXjwo7yymZ0DCWyN7YfxIzbLdWiAZDP5vqQussZe6+s+ibPxcYfAK4pdBN55UFiIJCynreTHsZ/TJ73z0s0pg20+4Uzztt1qNFZDaOGuIZhUduZYFcdLQMhsCh7nJnH+Ccyhe+JDvAg6jbmBhUrMSH7ktxe0oW6pEUSCQ9ULlO6957nvGRvrn1AJfOkgvHOLnYhzOWAHax1H2wcKZD7m6jlS/NrduPJ2Osjm+SGe0oTsIngaQ++qGbQYCUNg+6VYWEPnONGNlzKdR9bWz/RBXJ/eKpDRQFPwkhaEtGtYpVA3PUetbLAxuRZ271MtjftdIAyjW5GTSeMwDGSv5SlH6AxwX6KA8yPJo9EWv4bWAy4wRzI7VqfrCzL72c4rvPUJD0CmdyJo24yZs4ByXPBEuNPt2ZkqVhhQBD7PAn5bEvgNVF0yUD89VMmBMA4nh7PnGwy/rsOvRNb+g0eaSbkEnw30LChdiRGomtqQXZm/fdq96rcuaCkJ5rc6hdJGpF5E6uWSWk+7ZfW7OuOayMEktgsnA3mGpWOJdeRp3rfqwG8dDc9VW8ubkgesurtUHJulFuTDqGqTuFwaGVe1kbKFzk+ICC9yKAPPKU5U8c0gW08NspOIk2lBx5jYWX0KSugU6IZCSGm+U4uwOqe7WkSyup7L2Jwtx/nxUf0BDmFOE0xpL+tZ4VPmSAPcd92qLHrODr3dKPT2Cj8YAVo4o5dShY2psnc4hG1tz4+Vr8QZdbVKZ+7NjDZMY8Crbj9tykVBsLQxoweAUkGV1w5CNNp+ffSl9l9ckluNtOblx067x6+GA5acICFLhqH2Ewflx+6ov/WNlWNhP1wolivnS9zNym8Qs/HaD+zieOvvEzcURZlS+f6MP0+17ql25lJ3D2QyBz5yZ4zP2YhUYmJsDnpmMzbhSkgBOMGx55+8XALgkG8iZRf/lMBCbXhiZMn6sQhLKezxPv3NkTOUmOAh5wdj0OdyD9bpT0DiYqr6+AZf1HgEeRIps3IV9cufOgSP8ATaFES7Agz6VeeeQ3tuEdIHxZz66BfNF+KvJmfzYo+oUb5QcKKIrUXnehRR/fdhydv05YtZv6Umw59KPN6fHNRa8811WtXqt9cPvY7wbpZQyi4m9PmveHW1AhullSZdLmGEAZeWVLDI3UUvuL7GsYYeKlreslD82EoBHobq5nt2T4r3eVIUZ1jVwnAa2qswo6IWkGI80A/qV73qs0pvzS8YVdXNqoDXEI2qTBovZ2/nEst3nkoV23nQ3Gvg2LUkscFBcQiCewa8yE2DSmqt2TBqqwF2VwRq0HBVt2EmL83w0g9GzASCpWk8qus1GWc1vsq2y1P61o8AB5+DVc+vSCcFU0nCqJDK/ZdCddo4lKOwOByX6NHRgsxb4Kqj3G6QzVBjx0ZAVRudZsXcdRMHaCfD+3srrHmzwtTJHR/uz/pBK2n0JEEwN7DUY246lTA3r57DXdw1LYfGnHLybm8fn/zWAEFTm0IOmUPpiBgWxkck3ps6KHwNE6sA3z+r5gvLLGkHDgzG1NYN2clCcYI8YF4eTE4ikFk4TQjUKabl6N1DPryCHEZ+8lniZ+7UgIO02me9Z2FKiURo61200dKDJ/YIaXHvaQy7JeqSOLRdt9n3zJsPrDvpI3oo9jAJWyczDd96oFnxGLM4qTdg1d8fwXJw7ENYgVeo//tgLc+BCwYILTsh8ThIzJ89K2HJ5v6lke3POoMjnkma08wnoGTlYBQQ70viR47hzBeIEitkf/2GsbqdQv45e7o2jf2YGmZsdD0Nan4u2kz8Y18JmXW3i+hnyjNoNxAoWrbox8KebTRuHcREdVidATds838z+iahGsiUfseoDiV9D1TY+o+qAwtLVMUakwY/+GK5hK57A4DrscS2n1PG5uZ3rv6ZIxstoJNPZcyaHNnfF3//yFXetS7DEODFjQjzsJCCBZZi9iYZUndFQ2lqCFxWm3C7IsUBXfA6palzv8fgniGfjf5oPR1Ldz0v2Xy/DLNf8BrTbek8sMqe02bfyfOe1K3e3PtiJf7XyjrlH/Bibi66LIFBziIiAj3Z8U8a6fu5+aKEQfll5bn0wrJQwke924gNzHlwcSoMrC1U3krvJe/RkoVxPMYjXJYmNsD2wrmAHtMuEY0uwoHWKpWI7ux6kUIExGOWsHZaE4Z6Ev+vySgJh0/3f4W/atXFi5B4iibiqA5gcKlr/osFB7/+eFFtSangfhBjWK2vnosamkReoooO1jEBSnlgFyzZZiLy1fUkTYlDVgOYZ7nqFRQe3VPM7Wk8XoYbvtMEes4UocY1OiTHOqMgursWHwDlAdqQAVdVDAn65+Jqhl+iDj4zRb1LpZTcPncWYOpc2zXSp/8Al7LxUkIJikaauodN/w/4FujHuVLPyvtkbr5pSSxP1lE+d5fpn0971rWuHPTqL+VJjuYSgEnk/e+K65eVBhd65z5OGFeX/1b+uNOA16CI6zFKz/C0aEBokURPV17HVRAZM2veQ74hgoRpCCAJDcfjmMepg0/zYUlxI0ReAkb1JAif7JfQWpGYie/qlMCMxyX1pXvVx9GnX3Udap5noN/rAawq8DKvRKuv/5wCL5rbEW/UvkFTNM4ib325ZxiMnV+UdBOSe8EO9EZlP3Zq9hZszRPlr4ndchaiGCYjnatY/sO/6jV/hsAa6EWJZOouz7cUqdDfahsjdV0rcE3q3+mAKC5dZUJrZ4LGmadcjEASEVFeJtRvXC2uQTh5LgO0hGRIjKFZHMEw1MBUpltRilkXeIn/vZ8N1Zrg2RCRWc80ioRjEGsszyVHIADIrt0CWCayrpqsz7BaL2ssMaFiyfpMRJUwarrR2OvuzX21EAZIb2LTnEkKM37r28bTC8nPuf7uuddv1TczWAv6/4hurnkNu4NkWPkMgCHGshiWBAVv7vHs1D6xczIsV4AOeyLKI+Muy9K4evJpAvhW3UdxbTXPGzVeGOpccs44aO66INcLQweOQaJUSBCR7eSfv2hljr4GPQkcI2qPaimKaxXvSGElB+QTupkvMVTUE8PQyMw3JSm/MUJFgkrPDZ84CvVCiNjMbc5i1ej01p4YCRJAn7peDxO/RJr6oqg69Vf/dESPFFCXV7F9vUz4WzOmZOouFuPzzkwuvFy0EN3H1nwGEjGX50Y3lk9FDni2J5DDldSwUrXZ/aD2nhfSJHumhfXf5Z2EwppWsi/PE8jhB3oEKkQqt7YfNgvl7bchaXXVTiLp9ANkZQQW/9jPeiH7RJbpCGT9RDulqNxJzMlZ/e19ALBSl75C+bnxjejomYOFG3NGC/KwYMsCDUejBYO5TSZihcJ0j5ZR2Pk+/JPlhkUeCjRjgDJm6hlMmgjYUbCLMvmCRoFel1GekOtntLP/9Ulutga4hJGS5ltckYKYOyQFwMvDaoEYmJkroCmOFxcAX7O75P9FNO7W2GmRuNPaZ0e6DFmtFtwncHXFniknGc8oV/bPYykTfMbEfJJw9DTQM+Mtq/+xDEjXC2hRHu1QruxO8ZRgu+QrOP+qg872We0EmjnKN764YFsATqBrypDxO4i9ExszvCGRnk0D6wkELiAQ2ic7Js6B6oZdz8fXBfmJUrR1OCUmJXk9WRi6Z3r2C4sDs0HpOWaeikqp3GuU3Gz3TapjwuHbPSiV3SdfUS/32LbmNP/tZQrm1qhL5FHWvi2v+h+/uf537u3g0tAp7OX41sCJWSeIJyeMi5x89tUv2tA/vdLhYx5TBUpPfjacf2/+IDlMgm+bKEFMWeVnEo6FwzUF//MN3SfKQfS96vv0ZkhKl5EqnzamTiTzA8LZ1cU/tZTph/SpF5/gMVoj1EOr9MV3ws7X5HAe05bOAtA2X+yRbWszf74PMKSLY3t04UhJkzbDwh6HYBYvlsu2hN7tgTnlx9o7hG1OqhiVk0NGVDmiD7NoLyYjzq/vtOGloSIczifOsxE9jB7jrZGjdHC43o+06tvJA3S+QoY6dDqBl5OuScPkntMECtjhweuqSzLsFmE/mbXU1S+qoFdWPGTaHhqHmAS/G8MPJsg8QCodg15YckfsJIy/7XnlqgE2321EMCUe0UkLyFv7vF2o8QNhlAPTZInf+nmEFo9oC7HenwPytrkF6YKQB8/QZokMh5tc4XFe46JPGpN5/czZIM2ZZ+6YF6gf5FSUMss+8pvgHWH6I4ovVkFEmGkcC0nHPpCtbwunWduQ7h04yfmyl/sYYm/LULcuQ8+icI0TKK8HGjAzh+om0jDcdGHVXY64+/6BnEAwiFoQgUNvlgavkUPCVwfGxKP43bk1Oe+0C9QcAZC+lTbA9VMR353doKMtiIeE5RP6vd3b44aUwys6puRLFpglj3ID8ewVOQQ9lR+1CUDGUZ3Qy/ixnZuuyWUhD68i9CFQPl/JkXK+I5SlPfg3/X8jZRkgpI6sx0v+BaqVVoqV1huU5C6vgQg+8R8xQk9ks9ToxscGy2tA499LT/VRyBZEcCa2Yf0ZTsJ7QqP7+JDR9DcArN4lBeRWRB/Y4Lf2/F5EBSbWiAmTrsYhal6NsX5iFc2rPsCF/S3BdOaVsTEpp1Xy3R1B1v7pQK1x/8OxT6q3jvLwz+t1IIuIVZdqX3iuVoSjo/uJHQVRPPI7/tlPCSCrjIT2sbGz4PPlF+XgV652BvAFol4CRE5Kkj7a5/96qBk4Eo2ajLz3L8TkrKCmnB+YAPsnjSax3EwWxIPvrPS5CDHYYPh6GeGf1Zo+GweIM+uhnWEzmRR776KWbek9dQ+Av8HNF1aMkyakJeWQLt6C5HwEs9LRwe5cZOl1PEztNhrsxOJKM5DG7A3GBP2cHoGVWQ5QE8JxDm3Q0XtYdrUwVJTyVVBBzYvHpXV9vag/Wm0hTNWVFenQpoIyV5EsIQ3NhZZugSjAIyd9CDDtA3ZkI9Wg+S2VUklfpn2iTTrKMOaH+fHXtK8LtPat8x2n9o8W6t6qFlFNe2UZWbtqSJgoRUHlx4qRxU816iKuqvaZ/MP2+2nZNHnsUrXRtdpV9NeWbp1XP2rvUttBCcxH5+H+qos98lkV6mxZzlfRA9ZwaDYbu7SR4FkAuqgyklp0ffjJXbO7GjiqOCZgbZW90pvnrGpfE/BFYvJ4UlbA6b6XebuhrUb8WtT2ltT3Ha5vA/EPc5nDHprNP90OwKLR2aALM860yyethVy1JWN5rmngfQuUhkyQwyi9C3o0JrZK8OZ/JYB79Cwz/SjZ980Xn0WLp+KFafJ6pzGN2hOftSMF1ayK/ZxTv1+hFk38w6Slnyhl2/couo6I8F9Wdaa9JnrV1PiRjaYsD1iB7DSyfeRMT/VvL+6SFhw0bkSkQ+zWybrS6dZdpsnLXWd0gcZwMCJRwLloH9OEEYIsvr1W8GiB5YP891FFRZij9qn1WjwTx1lJhhQMeTyFYI49vXcjgB1m8VrNabN8zZC/OZ9nsqzkjHXzmuQHECejaDO8frqpiSbCKpdaikkuP4FqnTEwcGCm3zM0QXVOhAfYWyeCdkyfDKTBjm39iCDnGIRSY89jSjenjz2z6wT18vZnoVZN+Ztz36jq0IZVh2YLjK1VH0+PcJnDJwfB2xktZIExxFx5XUZzCXcARqkkB0z4HWW7cq+bFze1SMZF48frzUHBP7zJoLNLalf1L/EOaVNpdQZZWq6hDY6TCsDBCyShZmaGmjtmqkYd62kdFaJ3FUSLTBiGfAEgwy/bteKg6Uc95UlaJyiRYoqXJsu6bXj01rSN6OT5KN/cVrfXXn1Dyi2aIqStoMUyTBxMLogtlrfTjvzSEHL/2syQLZ5Ngn6yptBBkjSilexcsy32tptQHqD+himEOT1jJHrsUUumzCnZwrR+Tx95tcmsicNKPf5ujh8+6nvY6RYyLWGnMRZ63+aZuLCvlDrZ0tP4Rg8H5/O2ueUYjghFcS2wmj71FrVUkdyRPD/yQ+5ZSFcXRymF4aKbqmzOB5TcKbNuG55b6pJklD/4aKGMvTXOBOeTQWgpz5H3Or1dkbSHZ51repahvFfPXBRruPSIxJSQIKUABk8pdkTizt2IhWNnjAdnyOS5CyDu/2AV8g6X9oBX9MZKhwOK1B0HfDYoYQMKxJn7HBy1Eez3mMyEPolk9uN4t3+TugV7SxxqGYc+ezpe3hKv2onaSvTBySxyiLOTxVPI0Rjfa4mC9A0Fx0Quy7DhUaawo0oGapEFQHwsQMCrQhnlDkM+40RIyVX50xo5BnHv3pX41eBGI9slLrGTr0NZkWyQcWZth/Cq4nmyVXWhnyi0PfjpzKqVGabfO3f0A+X+/5P/WSBQH+fi70YNUwZVBxvqai/2K6Iqo9kADb6PUYTUhm8e3krNnBkoUApS3DKvnBUOgB7gG6Ah2wmTye7u5FdOvIsJINTWwV4XpIZ7EIflMK+xaWTIpCied57NpBfSKOGt6EofCq4JPa4VetHsQWlkpzSkEnFR4T2hWLJC0oI9C97C8FlyHw5J0FPOlWpM2j10IDYr0jdqN5mMCVaEoM+cbjBZww/UuDIrnkg4ABXMvsKt7KFtDvCLF2eFOtRbwAuj6KN+cQdOf25+2rj/+M3Dk6hoq54W6+PXQvmvQ8TmbUQYMmGCUMW8QrprAKSp3qH5rDQMyXrzDbYBZEEehqEB1YQQMdL87I/0gGbAXcqBpkyZigS3k1By7FNAO02DseHl3J7Y5dbxO5Kx0N67KwqpUjqCtHfKzeLL6rS0ZCx4f/Ce+d0pxMQ7DiMpnpLZqfSD12T/ObOVTu6rUj9mecQJceEU019DNuU9a3NBIrYQkWJe0bUeVI8CZwusbbaK9LXoEOj7MV4pHp/Mk97qYQAjyXuS/EW+6HcskSvnBuPCPBvQke5/lIB7XmDaklw6TT1j2Pku7HzG9/JYGZExqEGd2FWAMfbg2vm2HVxBoGCsYucn5VoFxrI3/ZSVKTSaVDnj175ClAECnILtFtqc6x4bB+QqQx2DSCXHpQFGSI+9oTwUVamNC9Ba0u1EYfWvF52825diHSi/v1VuCG7OmJvXEb/TKgxxjpSSUxmijMo+FZa3uoj20B/DKe/eVQF3Lc3kiBL4I8AkshPKP9Q2jVW/+8KMoM6PcwwTQO84JKMt50kf3IhOB0qRKwn9IW1kryxMRvfv5UtlwGVYZ2M+/OK7uZoScUVcSOcuox7SvZcyyEedUcGPN3d/WfrwQsMgIjmZZJN2w73P0+bFB8oDscSilZ7vsWL+UG7m62kcHvkNaXt6+IdtlebgtcqX2g4SkCMdnez88tWkuOyGBy7rkb54Qd5mrNYBfJdHFRwqlSTaWdBxSFOB/j1YmURRUwXt2pOwmAOM54szjFpwlaoFanuBx5pEQc1dQh7pExk5eano3OECA0U1E9hzajtgI9CFYQ4gO6xU12RbSwb6cFbbYKwKCVzg4NuR/ErpBAcFLDwLik2dmCSbOaooR0huxNlbz4qG1spjLLdPngVMJlsbcDkgVLmfK1WqvW9OYkjhDY5QLEDqWN7rEVFZvuPDDG+llkethPLA8PO0zkurMLuNUtkX+ZZEELFAxEyopyS/ge5iUXbXicGvWQuHlOqxrVM9nYsvvptT7GxYbN0/EwsM+VxgLtIdRfeXmorp2BJTROzMKR0dAjo9Qq0z97unws6+Lb6BtiNCORqtFruumsle2CUKknlZSsK3uSZMWNkvgIXijiTDTwDfogObn4GLG8tSVJj4S9/2UEBKCwWQv/1kdySy/+spW8/7pW8gIZcIv6pqMAYyDzImEXpg0cLtFeKnOZ0vizba28jlHE8S+gGhQKqM3yYYgOqvicdGTuNlff1VY6jSyDSAV1sRdThuc6q7X10Ue5Igd6LglUJljdd13QZMy6PDP623cx54VsWZYJ8eoGlI0wUT4WgA4WTJMFrY+8yX5H68KSCz37JrprDuLVYXZg2BPCKsekX3hXhnDIUiWL4jPd5DvzqzDyE4IAenUlkjROVB5bFBGHMoLtMEluPCx3OcqPoRFTleVFj133up6QrbgZg3bNdVsnlxPCKc524kXf4gvnQgITgPMmLir1zHM60fZ/LucSenEvhKzczZSruX7D0lwP6wW2NbA7pECKVMva5VZb+x5pOTJVhvfEU9KQCa9hDgLpWYISL7Z5oliVckfgItFRxtHKOIR5RoqNZ9ImuhEa78wINj5UPxkYWndmMS2aVS37AlmN4Z4zfuCrxEely2M8Q2haL2zXyY3YtimUtfu7V6qaYQViVc4UxyJ6+c0UoGxJwGZEKlMDOVx5YyuosPwNB08HmXFGbzK9+1mfYpvtYkdSyun7/sXNRYQ9haHDMvIczeDDRZ/NDeMl2UGnoMZYcq8fmwVi1EvanKzZ3k9kSTdi1dgf0yb0d0nkxVUiWY84kTuaaAnIYypSB1/wYugXMXopTACIbbynCMB29shhu8PthQ+u0w1MoaC7DgxFjudK8YpjsWjt67IdiGtIl/4oeiUcBsR6kTh4x7vV4ftBr66ncoHDgnPSLIT+08tlrytbko3ETj7LgMBAzS58OapGF79he4g7yE/KjLs5CPe2jI+XPzP2F8/yKFAH2So0Sph0h6qu7zQy3VA5r1fFN4nB9L5rDGCubwwhGYJAJsvyQZixCg90G+avRhCS4AxYTg8xsW1vxLpuQTThW2uSlCVURzWci7jlUa2CJ2vas+xAD1AwavNbZzCU6LNogiqiA5aICKny13YlrCVJtGS6sBp1O1SMuZaH1gbxXYV1RK5G8UugbOJuYiUttRVIlG1huoialPsNjtAH5zhdoMcxmn6jAZIpbZ0XeQgEWw7PWxrHvKJhf7hjlwFOSH9a3emKMjjifpmE6HvnC7u1npyATVzxMYD1Z5ScekbOLfx+7tden0fYq9n3Q/5brsGgEwApUwPxSH4r+Jewo37ty36cpn/hBsIRd1FxjWp+Z+JURXge4NR+CK3i4AIl42dRca57pI0Fhddo7RzTBsBcSyyFLmjIT2gSQpo7faZyobR21ER8QccTShCYY6btdi9o3qDlxaHZTXGcUCdLXSxlku+VEUdeoGmn1pgq9i67ShNTWasRehqetkuSej0u5Hk9dULyAsGZl573yriURf4FMLLRhEWCj/Hr0aSY110EmVZ+DOLZSK2Rr1iXUzO1V+XYMrhOfIXbP4mVpU37Ny2R454nZLckFk5Xzw3Df+jDguOFtduzLr/1t0z9NSIk6CuM7tvxR2nF6Y6PaqVyMZOGRy1IVUIyb1MVPqv5D5HhHtz5u1rsp0ZP9uobfnpaSc+faL8O+axctBdzskZUZMcq4ok1d+/D9/S775+zExWBOYF7ItORexXvmvyQ4SUv9vT4f4MjC+qFU5iEFD9cdzgK9IXNmMQJXko1FfH8U0Wqa7zOv7HV0G1qYcwUVg2rf0BbLedqK1rRqVaYkbjCgMq6EF2P0l0wXa0O/SQ5iJ/Tkv//06zJv3MBhENplDDFpUcG5JGx6YQnE+QDZ8U30AfswMpXmf0TYrsuzAacfxEqSTDI+lggrIslFmP7VFXapjt/+mdMjvvIah9uL/g1aNQeu+Jo6UHXRjkrF8dL0G/q63AQpolSa4R3gvckiWjV8GU/I9qYvB8OOniDLlwl2UyGksBzonHPnGVrebOySvinOX5PG8p0+1/tjHc68yhGO6d3llvbOqsVH/bylo+4Vd/sEQiJPl4rocZLUYhSPMlhKOfqoSmM6cHvGJRTQMXDYhDWlm+9XySY7rZ4DdNCegh0IvHpEnqxbS2juW8pOtWMF2cVftkR7/L8Tu8wPeZt4FdPHXM8X3ICTRjnfARQTgCQkopcGo59RMpq22ewVKLBjKR5lebWNyJh9sUy/CbCObz+09k022P0umLKp60rvwnjgYzE3aHTBoeizsc+V9a98NmpI6gSP7zRF1SO+VVreI2UHzPeSdy480lD3TDogX9ZMxaGuQyi33zhww7pjyYskMJhv8Uwqlz7vqgG8vMAFtmTpWONDbFu4oonomRsGyFrxrpa0oc9EmXDBXLL2rv3IF9oxFtOIojfEgX/IJo1dE0HL8jkLm0BibzDs/LsINWV+0XgjnWXRwNDQKkfh6ht7ACr7WNBUAB6nwmaoRrtl7Wsff8bpBiJHMLagmkl4Ea/GhCEuMn/Y6ypCVVWl889Yt1vQdP7DwXjkZFIH1RzuOzKoEfXhZXv/5BLvtxXWem6nYCSHywG6/DkhXjeR6zI0XbkrkBTINmUsr45Ktsq8lVEc05yq9rLc3tLRxw6A7ainlM+Zh2WD9XhkZEQPnAR908QnvkJ2ri3xJnTola99tsLFLj/7d9j03ZQnh16l9K6zfrnEaLtlQykpRIXboOMP5uz/gKTn7WqHol0UeZGGy6U7GE4Q3Tr+b6kCh+26oPn8L3Sj0duCaO6+SIoEliVpArKljMv2pvy+b4koxLTQGrg4cL8iCKduzN+Ajpy1LNGfZklGVKMBubdQBhrsWnaISkjOOKU5rAbPQ+ULqhsVE39ZkChp+64aQhS/nJzC+KsxmFCgQzVu0ocErSIduyNmtug29UkOn/BQNwEUF0WZ0w+zNEtvw05BFSDMsvpkHolTi0GPyjvPEPDTfUR3YvazQVm5hJDzZGR/2400n6uyjiDoVNT63j7QjqpTDFVLlYYZtM3dNFZRvyeSlxPqib7r2KM5zzeruuUF5x3z8aEf5NW5VIXvhXa729lXd0bdDG1nJ9yQ8dSfLcCnBv7IQcc0thpFvlMsZVMIDWdTMOmHD1XNBf11n7qcBnJhzl3NXvX5vjuVlqLZXYxIf6NjR3nv9GSDb7Qt/ZHW+yuimoBpVQpEgYgLsUl7Bh5wBHzZs3KJIKInt2rq3/G+IVsqzqozJNjaKOnq9AtO0kLYuiuFYlHezJ8PtYiDz+wOV5FbvzLE0noGko7wE/zjAltPd3J/wGr2nYo/cHvya99mrVpexGf+w85Ij1Uxt8+T+ONdUKJIeoYZV5zMlt1XEqF3PJUjRjtUf8VlI/SDtZ2MFZd0yCfyTzDI8YXwyLH+XEU7ZYj7dIo8pBxEbuLrCT15f2oSnAplTrTnJ39KKAX3GAPC5MT+65m2JWVpBtM2o8yufEC8ezTwIRg3jErd2k1TpJZ7+DjOf3mnZP/uTByDkwOMCdYG5vDyaMfpLk1puScwNo600oyYk+2jRHiRakWfJtMoqWtuMq3k/ASgvdQZoK3QT/nE09FR1bInBgSIy7HqBKc+aCBFPUPKwVTQafZflEMyEh/OvSeY3VLW9gCOmM4kRaJYI6o8wBFE+l9ki4RYaSc3nvdey7+noAKR3Pg/BsGZqj6H1EGCq19fqfsAF7VIBgLkBup3Nn4v9UgcqqUfOIljF1PvH1cD13CLx2l/LhhHrZ0ANDGbEcKQjbAEglR+C1Qgb/zoIgwyy9y2c+9S79M3XsR8eg5xELwvrvzVr8PzoX16CzWvwFymtJ2FQ9btxYTTJevBqZCgRhpj/DZ5M87p75TzxcNpuNa4ClVyCzd/PMe6V1HQEif1V3+tb57jsvr24EDC6uRC/+RQDBPWvFiVSNGdfixLSPZVWre0rnprGItbzZ+nf2K3wGp8j1Ep6a3cTRfgKzUFKYHjPajaPtgw8vNr5fVO2H1mYQn2hQGh6QmmkPdjJlsffjaymMEFX1ryDHF0tfr9j7BC9tjx3TzDLB5vkYlg+hf8MB3ROjXI/MmwFtXrlcUbr2f8t2xvwatdS7KYt98AzQ5XICuzFE9y0gGx6NSb4y002IyNM0XfBC2KXkd1XT8PiZXbkrXvGyUuVRVZ9k9f9+5It/Tb/Wnv/uwM7BitIpK2h/uqEmkXi/s3mAeMc6JbGE2dOtM7bFd115Y7hU3pmfE+UQHA2mBitfFxqwRdALVScIM5jldZjWEj1p0WbDxPTDEeBkOaTyzsqF/HB+KGxmMcJ5d8OoNGPkbocSEzWHgLTpQKK54+6jUp9ShYB3twED0ft/rBLFTy1SK68cnsKs5CQHj6GqDUHadjyAS+mk1DlVEXiFt+hHYudD5irJ0aILmWbaBhanKIn/cpymmIIYPM2J03xkvxMJfvabX9IvMFEj64kcIX4O6utCcfCtSUA42lMwDmrN86qIzcT5fsDGeXQb4zh0XSXI+IqSDbB3t946Xzm5OAzwPVEHFfaedxOqDcoI6ZqldzpNuegi5amTM2g+nANYg8meQzYdjT3jsJsJyVBCmwWiRz+HBxR96pv3F6dfZmFdeqAa/rqxCVULFgWr7wj2CSSuWP9VWc1W68D/qGvDvXOUxsHZYW38SIsYOeOE7uI3vzYpeSsOtjhhwLsAPN/kPI12FAk3vhGfvcakiIgQI2DcGBuh0oSMXjYjU3PYrqnhCyG1AQ7/HULFfynirRHMzSakeydhs+nOx5CDZxN5ghxMH6NXIKoxeWLL3s+HhCclS/Vyg8ToP1eEURB9/sZ/0xMxgdTJ5GR5k52RV3/aYgShDrS0BaVdfCPpwWHKp9aLWcOxoaGWyt5NJ9HIJkglc1s89Ubog9cR3JAMdxOMKs64Lj/kWsqjH79cX05ujehtt8q4Arqpllu68kNA1PU41hDC36hJY4hDdqXHjXKUiXr0s1GREHxJzzUUinMNY95POzP0sjoSBDYVx7t9o1y7jT8Qj5dKFABISF7SRNVizWQj7XNvmaoD3+z3LQqJjrb5mctOXBd6iFVzGl1n7qgOYuTB5195GpIFzE+wa5CtyXd+TD1arUp5xwOpZA/eVQDBCOdltPF+gbWF9ZhmyhZMgamULjek1sKYYFZAH1zjYozkFqPJ3PrS4Ab9vlDEsS0/YHxu1RbOAlldOkYW5s5FCtGQuL37dr+VDdjZ3pjdGfSfc/wQUesqpzytN2SJ7cSjgzcRn8sTV6Y8XdFZ6j6WCeo1nUNVAil6impZ15HofqMyzbL44j26Jd1PcmxBVT1vLvhlTy2Pe7gmV8MoWcL99bVtDDQeJLenDJoL1QT/6jq4oMIhXz0dgh90fsTGPANwaMM/WKNku+UsQc3/d6vo5MStE37MyFRacsfeU5S4Rf4i0q2MkmgKW4rnhoGwhsdVzLa+0DH812LOoVp4062BK77B/pMdp2HSfXE3kroHWiAbTchWfaIK1JXMf5T5r2iB0xlCi3UWRZqF9L9a2USiTy1+VLDmbZHTegTJlDX3FFR25KMGpJCnxRwrA1wRIMKXnK2fA1rsZx3pVto/W+USgUu0ygmZT+JlAyIZKvGfvwkMmxMkct/D7kX+PmZD6mFG4bEeYVbTLoaQgvQXsXN5dDsme1aDVxymkZk6B9beZRnUM095kYkuX1TAhrw0tGB93v53QANwdFO8rU33ZLmDjg7Qa8QgHiDkStpGErffudsersI9gVP8zskglRXVGF024WFEBMVsAg6aXGbKNGwxCGKb4j6UGMlV547ONrww/0Rx+6cUuzOez41+f0+znnVGDMRW8SNdr0evzML6Zyilc3C2p3tIqgFrepXfc4Bu7/cDPj947EV66/m9+sPaP3iIuRUZDDKdrPTl4GXxlWMRhIaHWjg3iMOaEkZQJBJISdWL2me5UCE87mJKmuCiBM8NdM8iR/7B3/mL+N333KcNfonVeZWKhUkbZVkpbZLyyzWR+yAgngYp/xA3wo6fI8+J5wZrP50Ppim7rWIPgNjSBHeS9aKXsrBEv46GCHK0Q/14DlGiuG/U2aGAXMDy7N2pDepL0KCjl16ljXOBWTUD6TsaFDiIyndOIhJWRzEBs+a9mR0bVNR7g1U8E2PV94/sgoAP76DMRTo8fBuld6CP/8P1+r39vevvQKBii8AKtqeSi9SdO5KxV5lRtNjjVv1+HavDoC0WaB+mNPOTJhbmi6zU9SEsMu4DNDyjU4j3nBRrtSSBb43dSYqIIsFZ13U/i0JmYa0vRgWXkkhbiPem8yMbsWlmhAkoAeNsUF81ujr72IyMQ9w4VGCFc/dnnJ7jq0bmAqrK+OYNk2RJADx1R+8fj/ueeFnROhEkyZNUWsRo8DDKPPwRyZWnT3I8vsudFv8jk/2yTZAWfSw/2iKhnmtrYE4a91+AG7lm6F0uVF2GGfnocyD2SPorBWBQWkdSG9F6Es3bXBnQT/Xf+Faxwh60Bc3HsQnGMVoPIfOtXCsXbABjluOn4xOyFdwvTw6ZYynRVCH8JwUD9QAMD6ehMQ24jq90QOZHYeX/hxbIB49vFFMHLusXjq1Q0lWehZQ9nBMpQ3yXh+gm6b71+qIMzzemQ+JjzbDImL/uD/5V4EVpds/nV79XAJ6xMbx2s+wL3DpH1UUyIcv6dp56vjdoNWHjnd0xxXd6OganuolFij11f9gI3DL8qFAdQJ0DWI0J5/K7+J/MgQ09WdPTTv2yY82v1tRSXFRo46W/8OgrOucPff/z2taXTCM6XlrkIhDKONN8lHTjd6cTSRrKjcQTajwnVTlg5/mUUJNeOz8P+wZ8ajXS8FiYRem+xFxyv6RqRLWvAdmjHEqYFkI4CSdc4uMf5J56IrS2HJk0Emhg2OO3+YfZPvNTq9Vg1AhzOAADa7QZTap55wVqbl33NMUGHWQr0D2HvGwVhWR+XK61i2/gI5CxRzBhfeALPCYb3/x6da31sgSligQiyfp9VL8b1+OhHVT9YxKTnw/4Xc5RVZQwzD7FEAmG8ARilAkHYxmwQh0HufiUNWQ3nkBJlEKzm0hpmWfUZHSzSRV+QkgfZKrY03s4ktVAf7x7tJ/qVfutx6x/2ZnjEvRc/7DzfWXilvI4iBvRjTXAofHiWPHfpNtH0q6rXSMbesYJ+ow/QOOw2yArcXVMhT/+yX7h83+acRe5aCqwAAA5Y+AbO4BGmDYCuWDeinOTTLmhrAINIbn4NuUdvUQgYQUYxJoBSg8x9Fm9MKpZFDWONE9LpPBzNQNP0mrecSohxNlYKlxbor/gQ+2/QZHASxOhOdRUwMHjooCdTGxc9B502UYwwHbslnhMa7c+WomPhhpQconYLjD9anTYCECJSTCw1xn3evkpVw0HAyYIvuZYww9UC8ggUHs5b9zwv2yHgT42YOJxXxt7ELwXlitK3RM/ljJD8DSVm2CzhcS1QYE5EHEehuYDvf46c/SKy71OuYvGq8vHjLwZcyYeUe+oTCpkTFD4b4ICSueyZbbQkEEMvrSHiIaLTS+o0g3xOle4hW5IOkl+B+WxLwsAtICE9LYHw+wfTHF19wnrWzGf0vIOUkTTtAQK9DA3BQCqpkTMi2/kTGc5FeBbadVCIcGGwXs8O1QMDFPCW+G9E4LLx/qndgynNh6EegLk/ir3fXZVUGTw3ci9q80LY0XegcyNy/EUViLlwsgzXZ6CUV/23Lu35mJv60HHP5VkCa+zD6diYYRSCI7I2IkrHaPva1tcPM6ILdSyKfRoUqkN49nOqThQcjGJwqt1EXYGus/FqKSegemdFiDcZkn85Y+m4XT1g6oIH0voVDgPK/6JK/WnHdaXHvtWRU6By9SnoY21Zi8EHmY1QGAuSHlL3s6GZncjpqLoCHHufL7fFo9nju+TnZMkPhYaTXD61me0E5qUFDbmXko8i2+UTz+uVenl3vZuYolzErqHQrs6YjJFEJrBHKJPOqK1YlHvZA6QuzHA4E7UZM/ezLAC61RPMhpl+OCVk8f9dnFw25AjJsuUfthb7bju9P3Qd86QmktvxNmegW68Q9NO8d6oy85f8wVSHZaqERcXtyjldqDtSLrPizdftANAyxO2xdDUTHNMoG1KuR2VHnpQUgwsSZM0SgIvfFpCM4AhcTKS86hLes3uzPREh2Eu4y19RsSH0NIVY1jsUpLwvQvCYR66lMW8Nn6o1sKjy4Lr4Vx0h0PuF9JB5R9oxl16Orndfp/Yr8EbuUa4KJp4jnM2RLXTSHNbOF8wzqgYzIMnucs8O+YvnnJFcVE0zfYPLr0MLYbIkLo9o/PLHPQ77RPwIlFBYXNO4nzNiq7Dz6tTFPFTz7wXRJCBICBT1kud/EYwVfbEQNskSUX4Eazf4X2d446UD6yVH+9kRyVWtNmYMYkYuvGkWnrLFNUz5qIkUejnxGe/MF+XxyfY0FQKJTjijJKY5vjV/4DzdoSWzFtUZmMYn8cueIYr+6p4WJpe6HVU0OWSHnOsc+ayneeauK6Y+AlapyMEp9gy7P3ZObeoDkAY/FBINnkJAy0GnV31EqKxgd3y5UTYSlo/qZM5RF4K0iD7Ij6ptyw17MrorSwatFzyRBSbqse+AYYw1S/uHxBAuIoYg9mzhCvxQLGkDi2Kc5XVFdzFlEqMvg045SjuRZWbljGMpNmSr0WDin7Vi2R7knpfRUOpxI32LC3cBris5XcnL6XQJWOsa55xuXmK7Ms1KFOtAzM+BOjh5K/gae6E10+fRh/GDNsSOw9JWbNGVVQfCRRpTw1+9QwwiZS+ni/dsFuvRiojBh7sazvx+WSuNno3cU9uQwGvaliTHr1Pt8z+m9Ya7symPeBjE4gsLJ1ltUf4AF0LgnhDfgqJQpkSK7noBZfx/Pfq1PcEb28aJZsLX7QcFvSSpV5nrtL7a/AWY/7hncJw0qlk9Tldu5+wLEFPqZeznrEvLvX6u4C9T1ab0Px3Hiz5KDZKppagoH+X+y8+eDD6TwarvA+r/uabqQVy9p8iIWqVzyGiz1BMZoidtYSkTGsP0unfhXNO5hNE4KCEcD/QLC2FQbjrl4+vP7u+ohZNc0uC2Jioa0H7NRiKdiwxVUGObABKEWDn1a7drZYaGAJWMbA87s4O9aRNNM+fTrdHOgdSijfoZYk4/m3goUFuZvV7XTj90zPp0MdLjvqwMyFeP0U8yvZz7RhNn4PPV9c+8N/IKxjcTRqe3om4L85OcFCooTk+kYPjCKdXC6agioaLwUcPEkkYgpFFfaekBsBrGcPWlnID9vg37vzQWjf2/WW8Zf3uUS+hEqKFfEKxZRoA+TkRybZ8FfOAzUOIA6Fv/SpMW08vhakE53YIAD5QWEgFlm7EaMuHkBroG/KL+s921Prm3zxO9H+OYXZmXiKKRDvt92Uel+KH2uVMkChcxEDr02Rr814l8Q7oCkHUtv7B4JXf3b6ropUHEuCzTYBRnCvTg5HjcIaXT6Xq+CQI1PCEsF6hZSDZqCrxttv0oOSIYhvhyh8Ze3hKKTKIgubQzWTdpxA3NoOBZO4P+8555OFs+zLsi+591Eupyqa7wQyC0As7wnrlxBLUOFr2kffr25GnXEo/sU/AuRuYXaT+EJrZBAsY4woIp02qIT1ZT6iECOa4GIxCDfurTaDfzjRFXZTxHPZopgdUnSsQQFUNAaliD4ZY5o42Qt2URdvRnjoOCHf84+8I5WNjHZ0G5x7NQcf4vdddWc8clOeGy+iAacgQqvbSIXxn8Q11am7hpf0zaEP8cX6UEzaiVhzy9rH+LZIhygHPA13iAhPN6oTWy5IKPloVa9SOR77fWqIDNB2jczpBnHqy6KDQRMsj6GBTN0ZPhlXeNhpZ3IfoQhspvsNeYB54xqy6Kzrlq5gtCgVOJmvEyLMUnSXOgk70ShmD+aVntEYO1QEm9BqRB30AXNNzg9HY5tVKymMHVtpVUSdGjmOllJ21azGNES9I9PPEFi1dq+nemAXA4AqxjBzVdFJL2aZRrgkzy+l53NjDj4WnybffAH/OZ4WK3VKBHNGFope244CjvtmXhjbv85iPjVmYyxH5PZANnhXeY7+2T247yH7iliSy814FLd/09dkkiEk5G1tIYD5tUmMY0icDnTelaI8dx02P8bswbWdJjR3a2QbHFIqOcrnKUpfAV4+YSdKQv4dSan6eLqhOZRLsVd0Llg+TIyDJnL7Xm7gT3ULOwWMTH5qLs6hKG4X16y5o9g2birfRUA+Qy5CJoN5B07p9EizeY2uITMhuku6/IQdrOUIc89guaj9crRfv3sAmGdxy46H32kjsnPA+uMj6+Ytf7ejp/JZzuCcrKN/bmhBushuvcFwBqKF0yRiNMv25Am9DzFwYmM2uOXbnbxLs4S3XKXBD+tCcIa32vf5dzft/UvyPU2Vh20hbLTTNfoVNbHXsxTs6x33JAF1/WgTafyR0LI3XV2zdqGu0DYd1ue8Cy9NAGqMy0YgFYjeRZ0OkHsyrx8xNMVCUXJ+lu5aB3UAXZMsCtO9mXbP91MmC9I48UYV8kmLAppxghKm/TnbT3+X4F6+ijnAlBsLfIXAWNb36pid54h300+KbbEKN5GVvFS/kT2a0pDS/kbDxXRBLw3ABgBVAC3ia3mmZhhnHVXFUy41WDg1udDvvdK2/cFbf41Sm5te6SOLjd/e/x7wJrpZm2fNuyQX9mDygsQ1DRlZNhGZHc1ayQJu5Iv9bCv9P5lPcoqHFtYJrj+/R4bgUU1eNdD7hPNC/SERYkPFhjZnbFFzKg0JVzcpQGYqqbV5WmaMwi6Y/l/QGpB+jW5Ailb4DZkbL2td+576HhrOq5XUGeFpydB8rEjSq4alYRGkJm6YL8HqK1UpHBs/q5A/p3U1Zh9tFNQaENIkSVstylPzXY5dgL66bHkg91MGCLlXtUmgxdHphkJA+VzZ7achiYBvvxAP1IuVPV4NPelkJSlPBqpxCoeCYbqsDJ0Io4zi2iq2hKZnsicfQy/qUbNmpoJSVmyPjmKjCCzZp43ZEPQaI+WlrLh8AAzhl8JY+0Sp5m6Qr4/1KoPImurYoTFlD9NGiPImwid4YJfU/wOjGoKpQnLtJxiPmd+aqK/A4lR7ts9cQzhyrr9GJg/66n16FfzT/r5moNABIAkfMq4ae8DPosDvGsNqzXVJOjeuJFrMhyFxTWDHhxW3muZDDZdWulPxOU4NVsY2VJft7wZKys0awxUarIOurkAn4xEaHN8g+d2YQDd4BLag5h9BfkA6ZagFuMLdYqK6SR82CNpORmf9kCCdBGlOMHOGCP46niAYRTNDeJ1399OTIw+6CuvMgcFk7dzpv9+fCbv5llN+HZfkxCZSQj89zRfs1AFPbKhFg2/wUWui0Ull3K+ReQTnFbXrx2pykpHjvylLs8hutw6P9VOuvbxekh5AkLS0mSya7wuH2luFzTYU/TRj+DJDrlfm8nPYmZOMQ9yBfGYUeLk6ds+z4YDPyrk84TPRBpPQ+IJlnOK5bKIX2gab7R4IqIdzZvdGR1tE8MoiHr7FWsy0HdLEQ7QVplKxluUQD6H5lKpOfdYrosZNAwAceEnwMAknvbw4hQHmYa/xqeoFXeIeag4BPuIYDZiHuOSHbLU03OXP/oavKmCzoaThvOEbzJEg4PD/yvCaeWOW+Rd246nVj//3oIauW0GS9dDdgMGIbWyeSyVYDXzNOtjqfa6x+eft0wSTW3nQNw4Tgg7MLtdVXSkt+rfJMm/WocduuOOcwr+Vww/PD9osnCfsBq7aa/9S7yBo/FoPdrov50FppTrYJ6S5T+A0OVPbuaVPlZQSHvl1x7zewUIAni8O0wwx8g4mQZ7j841aHF6nbu++Z1Igcz3me3bcC4sYOOhaH9zWur/nEmKEHlHKsoirReDRH33CsPq289m9xotSafENjKUn8Es3rqC17xq2DNlL2IfS1GTzCI5UP0DU31n5BWKzhMC44EGfBeHb19YJkRLODNIvsilK1IcB2sJMGzJQVETdjqjnPLi75gHhyfxNHUv38/JG8Preh0149kdc06s4RLPT6ghqqk80W4Ns4UiHiJFqZI4h8DdPoMSTdtRmt9Bxk/RXsnd7vZBoREiMhQM7WviYtaorJYOzq37gXDjkGGF0X/ByAa3KUWaJ+VSFGYnOJPvtrCWL5IgJ9kyVb+NU8OxQMwWZCQZH4canK/rSfZUMrK+C2Afz4YsKPloPSvXC46FysaRG8g2b7JUKb97rCvOjyaJbw2U0sWzJqS3p4J9rFqc/KJ6k4iTElgOoC3eKRsj3x1RV19a8EsWk1f30qd4WgFrlEo9kjfT9i/Yn6tDntt2z+fn9Qdp3eya94o7TfYAEaiS8934Z3XG21N5RzLdG9PgfQNszk9oSJiSYWaOfgNDWZmbodlt09GTNkLVo6/rOa9xMLxpNBrzO3yw9s9A4+2ACM2Ca93Xq9pGg6He3gWLsemWj3UIg200MDIYXjxDeXtkJh3dyMBf8Tw1gBvX+4bYysiG/pKoUJGb8JYykX6n08WbYHpmgipIIINiVBL4YTrnI5zfUJT7ZxHHRrx44P3SUaymkGd4QIjv1f5kY5qK8iiYg/DkKp7BpmASv4L8P+z7HYRl56qGdqO1MrCipdES+fR3Uca+6mFBZrbOw/dT/myOduHicex9KfP8ihKU2fNFrUazQPKrNNcIvmzAuTsRBsGhRryJ8NxEIgsEqJTsPGTFWuBt2Qq5rWzPHeKUkmXUNPDiNJUIld3MnASb64GdDhbLEnvcSPLG6J05749gHnUppV0Bd0FPeIwHJ2WAw8ax7BqmSz+DWmdEOzT3Y2pVRJ8p/O3OQeoScUDghL4Ghi8hjsqZmoAuFkNVrM17pgF2Fyq/9QMVQtNxqH6078EDVi5FrMMX/EGn36FwP6FpiKW8MOjQzR+9l3ZOthKPa63QkNExlYUcZXgbdOQj6+cRBr29D9vx4MmEZ+VCeseQQUVx5d4kU6eG4PvJmf97GaYN3qxSExQZQQcnbXNWcmIixGVOUua8JoqnndFGGirefmn8ecj5zlrp7cc6Ex/Up45q4kFuUNAJ4c0yBSFTgXKyvHgAT7qlVM2CjL8KBt9DU5HCIq62ZNLsBdy9Nq4maJHdANU46KODi6PQN/QyPOkhc62ohJxkVUVyBGjNVMsJ1/z5vvHRE7q5el2Vo7NBAOTIvhm5cl3xfjwBFgLZ0SIa0tFzOxOYvq1dpr3PRKtFRyWT2U/GpQ1jaEkPtVqeaj9J8+tNISujux/vjP0mCJCQugBoUY+jCVUPNuzCzufBY4ypNdtdI9w7WgE1Dom9yerSCP1jMe76MecTxrqvCvhfySNCxWYwMyyL1eVy5jxIfEsdVHLqE5lBJzGqOEYV6wtBh+cwqy3DDZNrtprE9CXV1I4EAXoA+lNcfc+VUWwHOs+/jeG4EKMwvFPmoBVViaxTUvZU3ifeqfQCJ+oJErp26o7jftYA0BhNq+fFyqNAH/YjweAo6lZa8ErH5KvQCrKm+HSMoarG24/NYocAWEFK9B2gSzInGyhIYT6oSUNPFgZ482tpkUYQ2vLsHFzK9Vmm2lHgh58h0ZXiUVm7OKHDCzRBQZfTxPLcI9du2IKNFnPCUgtgTrgV/t+UdqCdngFP0kTXECwe5vRgiFv9qxctyUeg3x+HUIGkPPxnNnNenkYN76qp0zV0D+PmUNfrDC01lbBDIHeiSaU/ARp0gWrht3y6Bjlb3bjDyG5Ltl1hy5bmpGcdTLDQM4LoNF/JyjVLnO0QtowTIvc0DtfjZ059o3SySMnPoIidx2gTQSyyvJkYIXYdwqoFvB65ISJHvJWEnO0MYVPLuSkoTyZU4HKu3Hyz3E+EG8WYnMu/pNjbpwxeJtBtZ8zluC8F507GTjgV4CfTcb+PoVxvuFlRBFv9DxQSVeDYxyIfa+iI+DCe6z5lrf9asbY/SeklKcGTPIywvaG2/IiIpcL3QvymP0EAYCCpaKLaplZ7tu/+sooM5jeCnSnI9CJ8QVHtrHgQSTGkaDXm5zD+2/EtF/G+5NqnisRNXMF+Co4YgdJbjTrft3kr4TqCk9KhemSLfgKK2km1pkmfsQUE80SK+Gxg0J6K9o7pL2Wx1S/9okdD8jVSP7i1UkgeWKFlxjp12ftFUYMuaVH9maQSAWBq1jsY8jk8GIpP1TbTG2dbLC9x1J79jOh2QP/963K5IMwCZfKVievJq0rZwA4WTI1l3dAVFLnNqGxjGlM0Ed+Y/NIpXgue/KgPHM+YmdUFCcH2JeWthGVusW7gF5mbhpk8P0jQSWqk7kMrVacTejxx61Rlm3NDBFkHthdcXR8i4ozoLR5G94hl2A1UK3ZCbGJo9d6yK/nro4hBuTScR4PxHXyfZf9BKqLrxxG1XgR4GIS0SdZHeXfksIpATf9iiEC6Lk7N0zsxgUFog3L9GH+FlAltvjfApTRUr68Wx9GH+plWei171QkCt1vekWzt0AaLWVW+FyDU+/DxkIN754F5sxhGE0ij/RDngARJoNhWOeQEYa1rRaDw+q32BNQVQePkhTxRHG2JKMvAO+GQFYBTcaDY1ui0YHQFpSoPQRSbeEvUwcwGdwcVCSgCRxQYqsDrXMXrGUrCnMlhVYfXdvoR2XAFcUP4FQcaVRMI2Aa4TkkvH6xyPY4bcHKiRGeFUbH7+EGD+OFTBO7odBJAMDizCE9XnfDlZc0U7uYLB767vdWFkYa7aa8cUK8DO3g5D5Dty6Ji8s3/1gLDpiLlQFiuK+mh/6DtVt9VOADopqWjg8eV33r0eVKpsfivV0mPnFf4sxj0zNRf1thkU7Y2Ihqd82Dy93tZvL5ibmsKKaQgszsC3y4kRA2NFo0ZLoCOX0sC4ZgPW66N+66Nr2NchbtZ7X5WGpve6Y6pkG+w/8OEpv+ZaUnsThc+L0BUTyf5FFL5x8dxEgDX8ta+N7oCgbqRgIPk4LB4VMgQBzB2ucBxbe0BzAPbDY58wjYin7JOV7577AXMySPl3BgS7kl6GFx4laKJLYfBfHHjVfgkqYJ8FXr92lJ9OiyK9FexhHCXrFoh7tFqqWH9mqxohbAEc8pb2EI8NWOjv9a/IQCXC9LVn3UEhP6vAaNhCwZjap4l6xq1kZGnSBPbl3I00nmQfkrNfHjqZywIQfNn1IfeAdbKiKqI90Lp2YAc8Tp6XpK3B5Ma4F9ir6nNPrxpryqYlcpmM2p41KQy0o81uEsWRzMHAOD/ndCGyRAWj67ZW5wFG3cueYvEDMxBmJD+V1331p3Q45Cif8FHp6tPSRNMNyYq1/IwjzdK7OtNNFX7BBMloEBnBI+wQTcqlxJWjbxI690YblN6qGJ6PNtLdgbsTnWP1eQm7a3Ff/SR+ZzYJQ/5BGj2SjKllvwWfq7jOyYXXkUvY+/s1x0gNDewcMKSpLIcNRcweEc5DuBsjMr1OduUSylixTgbS0AgiJXn0B+iZz7Ge9tFQArfZyxu9TuIP8TbU87psQSB/xYW3Fx+xDied+mb2KrQ39kIKEbxgOJKxgmraLx63T7vzotBknPnXApphaAr2/wK98zKelJySXTZzDHPatkQS/NASdnLCSMXKuGF0Rg78q7+d9yw0x8Bl3Niou0CbZnL+lGYTx+WVHiSiboXJYlubz8aM/osRddUEZQBe+eqD92yUGLEJT/FV90kJe/dzzbf7q0zwQys1HMT9uEpPgb58sHqDJWG7vpfUeTXo/9fabPMOojW3+b3xWla7LFUg9zGwBfUQRsT2edlR9SeHlhL7tx2PA6nu9sn5wgZTcbRAZQtmNGCavIalQXBsVKrL1Dzt+AGTl/adHQ/cligHi+8dZ+TeuV3uyLtEvQkpox0DgoYRHlq9oTF/n2zQ94fV6pczr25Su3LKke9ewegU6c2h6DYob3c+JpJnhxSxlAE2BWZh39dU78wYFgdkQzo49vwShhTbrx0HB4NDEPNxzQ20CNkiUzGglfXQmddKYGG/xO707UZzHI0wzDbcKUdEesyonMYMAZi2a8FPaYsdJRwWticXRVX5CccHkT6ZW8be6kAoIAynx8kiGzZG/OOWABxIJp+AUSTAFdUSsZo/lADmAjMp7ZA8tJE4es6r5+a5jclqVKrbqGeTuLnrHJIsUXSaTPDQzxlonk0A9DdPMd1ueCOOcI5kkXB29hhMshnPUrI25vI3rvBLuDkVnTHrcaMYLhYeGc0IWSWEt3PFq1MlT6elpN3Gr/BCWi8UkUX/Ouvk1C0XT+PlH68AWawcN/ncYJGs2ZFd6dLvTFjzuJO7iwz1MB4Q1Fsu4D8ZTCBsnweRG/RCQPIS+oaf/MKXR1FdPSZu7utvsS4ljkD4K79pAgs/r73mEkT0fVlb7J7Ca+2tPqd7yQqJSm4yzlkCGtWK2K3K5AzqHnWdt9O+txidtYGWhU91C5cYtye41OeyivvkwqugnCgYOwyi0SARtoEtfOky2P156t6+pwb75HVSHRDTSMB4GNaucFrBgYD/rkZ73GmrdUSWL96S/C+nDPz3xamNgLMN2jg8VyZkIN0RPirE6UVhEPqCjNxRboX5iievJ2MjhaLWI2VyFtPe1WKrlCUOBW2FEb5W/uygSGAfnbujzb/92M7VCKpik/LAT3DRiUwrUbwGmV909SkuSRALsgQQCJKTqsV8bXZyVKCM3Tmx+lgf24K3w+qw4x6pPO6mxjKaFzV5Jy05SXu6A31V7+e9ISD8xnC7S15EN17ltIVof7fye9OFLw3aVVK3LtywDhTj4yJVwcsgNm2HIXAHrFzll15T8g0pZd0la4WSc9zhNCOk+ufDpdwsmBMY0sGc/NUwbPUY4ZPrPKjllZDkzXZfNocZ13xBMrDXkZwTnQMIVvDW6vuOefUCF6OynQoyhzUdUWXsgaiQBci/aDFjrFgY5uiiH1FAdTDoq6sfzjqJh8jv+IAj1ySzuvRfC/k0OREQ4MX/7QBobDf5CYgEg5cKTAg4C8dVs4mCSIN7QlQNJGdpWpGm2S1bnEMoWr/VGOBE/OD1+rw59SX7Q3Q1VbQAe1o2XA00+jpRNwWXI0yO8ACtH0QKbRhDZo5ZhkVsRQVEeju6gzHbzympzX58R2AvQBmcdX6BJp6LLmwTBm6JSsAtOtIRTUgspFPnfa5ZctqW2h0cbROJjJh6zeGzGEGpHGJwytf1jlKYxufJfN5Qk3dD1I1nNhcMXQJUqDw97J48h8ikhXqyWO2miJmprK+AvAvzjqG79RV7XPdkDV8V/92IsLxoiKTA/8WJ2kVqaqFlNrXKq5ovP3p++tvUhnSbA6x7KhnL5TJNFxfPdITLygIxPFNFR4psnPxD/JYBYgk4+ZKIfKuzGrUROWwgLIwQAhckFXAVU092z7dZVX4TY1Bb0ZKsyVM4gDqTwm6EMAUgrC7C8JmoFRJwQEumsHlTjeeFsFdFxTM8oNWEz9HVJ9CQa+RP7/8mid9Lc7EOUJl8mXwNxZRtTohSXjHI42qliAM2R0K6tjc8G2wzBoxpk6zHLHYVY26sVivOBKAaKIsvGxfok7YMBrcFRB1zAUmMl3IiX+6vz+SikWblifE2EPGJJyiAc24LKGNpMEhZXRLMvJOjRx9xn7dn2/DD0ee9YWC+mMSPUSS0147LNPO7lA4VtI0JvTaAA5Y4vAUA2mez/Onk/dNeuRZ6rqHl5NBLGj25lKxSTwey3ZTBQr33XkUCFYVS/losqaQcMqpqMFhwxKsJCphPrI82gvlgTcWMRsFIjpBkDpJ8cOajlxjdKe4C+6T7ffCOPTvwKfTe7XZyAEO4cCyEXw9OowHrNocF0xBszC4pU6p/2uWggSsI2jX4astnYGIkbTH/9zV7KyRvYF84V9MTDzbmeoplfXNYTnbW5rWVt9MuYSupGJDAmgEtcQgt3E1NaAOGo8DZjBLtvw9Zukz3XUtPNDokkh+Bb9j8CfKxJM+ywZthUFYAPzom6skCGv30JS9cci7KC3PqDMdFH3oDsJqRp2ITevTm+fT7tkldKJHYOjS+4Hp5GT2mpibAo1Ek1lViP+0+MX+5wpdIVkvs/Dj8Q3WGSOL+m8WAoOOTFfGYOH+q6T/tgFVz26hPYsp49TQMVq5b9NMz2HeDZz0ywuhFmq5VbPzJ5qC5A4kXpL4ibBVLJ6wGW27X4F++lcVMVtLCi1YeOgR+Qc64Jy+ETXhH7kUeqhC+BjB+iI2R1KiuATx/IShbPySH15IefqhfTFuW4JC+C4fP+9zoDdVZvV4PFPpyoMHFWB+1uH8bEGintGUzGORJfgLQ2FqqY0OywhynCXya+7RO0zipKesR50qHmE4y7f6i7tzdKFANl6wcSxtnJlahTc3CvIaBhVf8yGTSPTVQO8dbOvNcze8CyHu8LKo9DO9jvEEv+F3R1va+L7aqNzZcyzk7FXgJ+Jy0nO5GYrQsCUTfHv6DdKrkkh9L6uozcjbRdq3DS9cDarTqaedArMRQaNNHCOeF+PRhUBrRrOew1T0VsPEIN/x0g79MHp5hBFECgmLSoqRFePMgLbd18aHrywWMQMMxcbhjN9v4x4oKrEb4tUVvIhFHFZ/Hyhu/wbwi9Ke38FN0JPh3HfQABbamSeafRKo2TdltmuxdF3ojRjU243RbWBCYkQeHxK/Ff6/dAgk2McaXAPnr8qHtCi5yPz/NLlvkUDmdHbbvhFqVoI/vxS2fmhxkrn3Fb4qLcsCQdWz+zH6MBNzx1ux9aB2ouvzvYgricTKMAIl1ot7IALvuzCqDAOiXablsgvCFFM88PKjgEINjwHIoQcL2GbEVnRRl3tfnDNgDQXAg49/NtJ/jxzpNG84nLoeIbPFX0Gd6tWPcDoxwj5OodWLlzhIXhedQXXP/4DeLsFn+HBsy3IMabKzuuR03RwAn6rvafhG+Hi/uEBsgEJeBLbEsWo3Tkwdrpe526Q9XUEKjoS8Qzi6eBqsj+9UIAxjEUBxWZKJh0HEbwZTrlWC1sNrxQ6lgBBeZolstITe9U9gXTXjt2g46H2ciGAfJR3T/YvnV35MaNCm4qbQlKYs69da+x6zslZRnkoT5Q1Nrb9u8Dth9bbzWCzMNis6ZukeZgHUqVkQlnS8wB8IK0Se3k+CDHc8lhp19QdrKRKLTuNRAH4WKNk3QT/arPZX/aqdGBDrRcRd1Obu6jbWyegn7kiCa1nJzyGwwazEMg2cl4r0Ek3/itnVw72rPlQFVZJ0y0zizJMJHKqLEdCRFPnHX57th9Xkrj2VUCK/k27AiwtskZZHbVW1mxdPHJeMUiJ5UNCuo2BRnMyT5NGHVStumd2q2xtx7FR5J6HMGy6d+gVedd6Kj1cLK30vgX/vdhAK9tRbEI5YwrnufvVJ4GlgtTXyWxGWpHuVwEK+mDIkJF3/IuUwskPEO5waH8s988h3+CKhsdoSwW3oUzfc/oq6Ycct61MFdNeseTsi6A4BaSzgYsyvjbjr/UbHj/uKrxT2YEGvFCsTpSYC7iEoumSKbwxNXOXQBicWxZhGtnc8WzGRy5bEFg9vARHxRFuWhDdpvQ9vyq0DW4yfaZokE3YI92HXzqtDAWVHpyHcxK0Wco+Bbc1+hoxQ/dkAtEz5DRxd4IzxEn9QUBuR090Wxa90ZiUtPQcuuVlTWVKFOot2QnYry4gYXxR72SU/DtDunN01NlF6gNVvp98IMjId6OVPkhrDpsjD/TnfROAdqBe5zcxxX8hTcuyZw2f+7dniBfgUqEBshJwjAyNLf6/y+tTBwaixAY0p5+dOKemURyX055optkz41A+BhU9A8IxwU1iJ65IBLzell3Rb5lLCH1fNaNVJr6MkiEUhea62UZNhkbOEYy8I3ASEPj1lb1+zRTqalIqZlmoCdwPmEj6Xhm1bqvwEfJKYsXK3du0CM7ZhYJlgaMZwMY7gi6PlLDj5BsS0RaF30PmXxzGavKl7o4uDtegW35OlC9wugLOJkv8s3A14TtWDctHdsJKYsXI+Y9p0iY0/UHwZL+HbP8WlZoeHpEYse6ie+45+h0Lo77VIoPruvRFkPFDob8w8gKOxo7LGsE8VVfoZuUXU9EMH1vwx4aD/GdmnudX1YLcXaOrPpH8e1PTQUA2qTEFWhunJbq6i5ZB++pkU7XmMwa8Y+pprDC2yb6QpcaETfyrsQMH80IF4ZCx+eVWLkYQbM0bkonwEMA2phmVU3b2If6IcRm2MrSmB3wfw2YLSWSQYM70+NQzGTqdKS15WBJQwmRxUmZzDC9ixYimYMRhI6sP3NAV5oZ83p10QPziNqhlVaevC6+RdhGUvaWJyvMGUHrclQT5VsnDpEBWB7g2BBr2GuUADmXT9DMViM3hCv2GG+blgtb95nBgUcc2vYJ67i41tq6iCfph67yQzTY/oxXzdSTkw/X+Jd4o6TJs0/JcyduqMdGza4fLUlYpDssSklI88UX+9fL8W1hPcRAAgq3m/sVLVcBsZ4Plsagrwt1NXKWgpbjTZISarpfBf8vh0UlcHDNN7rr9FMMFuOEfj0bIm5aph9B+uTLawOZLDdm8/NfAXe7VXEqhZtHgrlfSWOZV/0rnSwFpxOu6MBT/yaMXzbOLvrlNggddlbv/0QoVoIzqQiZh09GkwPnV/qLN4RnXi49Pvf/J+oQNcScGIDgEFI6bBJS/TrR2aoB4B6lNKRo9I9pgvyEtbHhI9CBVlWttyKbaZEpXHRHjwzYgXcHrc+UhI9tBuiQeIXGH1ncBzoxIyh3pbqFIkh/PP6HivgpdLfLlcMOCiR2MajcSV6xCF6k8rhM2FJBmKTvfzkZ9oeLpwsRti65JI0cfEDUctI0BQg3Gfk4Kpwjmwp7d/zIsEWXQcJlrdQ5+2EzAZh+NsJ5BT/i4OnNpiFX8bQ9LkVlCYzNqREwb7/76ez49wTq4tq22Yh0dWg8uReQpuzKRjC7VzGsP7TzFM7AfEWI221kzngL/BEe5Vtx+5MX1MbpXA3WhQGrNk1SZsqu+q3f3D3TC4i1wqgPK/Ss5EBYUQH2wzN621EyJLuWALhQOMzZ3eobyOlifG5DBKL6rEcuniGlmnbXVgFxpBnFABbRtk8wtTeP1mT/spXiUTkyy+1RhWwNdT0VYXAcq1KRkFNwyzX0SQZNUEgR5YEVKrrsAHiGQ9t2RLCiI9LXgZfx/+irIdLu4A1C0nYvC67PvK08pXvJloJki61e2uwK/GsjC1oFE+SgK8Ot4GZb+ueGOmVuwWrhz4EM16UBJR+iLegHcbEAvEbbYJ7y7nyuLAERGDvnqC75LzBBBH6HYk8UltuCOTB+gErv63hVmc/9iNE+cLo7Suq9HKSyamL70ouPTrNUYalRNPfUki5hfbr3w7kbAsfjhmsH+VnCIwBkY/hQWFxdTvd/Pz0lWsW+t5KwJCNalaS5kk8hvspD5mSKVmJGMkPRc/1dytl4ZHI8/JY5+NQNe6JfJT7Z396OLRkRheU4PpJkUFWGHGKRtLJbMqoFqbbGo5RP+nnhPtdyANoGDpYzKNtKkpU1eFOzWqOTSSTML+YFoA+1NVETSk0whU92MtAJEOsHV6A5NGPpn1a4LP7vDcadOScf87SfDfq5jELBxCd9prgILWQvTtPF8gKb4IgTNR1qI/4Cz5omgzisjD9hRmyHd4KqDnKjt0K/Pyj8a8l6RJ+O56ks9JyY64YiDIU9d8jrKjpLRbxJNql6S30QxGKK6dTtJwnlEzuRgeO7a5BgsMj4ncFhDP7vapDsNi/DZY26adLsb26Pko5Lw2Qumk+LlGYJHvWKDqOhxD7WIBZHqux1vUyG5xr8NeJju3+i7/OIYNskL8nP22ujraSawx2VaH+cMUJSOLTVg1NCbN17aqtvzJS4zXB6nrkUdJks83NFVBsRhlHWcschpVk266lqQ443tzdhh5OjF8BWYuCeryJoNM51vbL6HzGGmV1TfHTCVCryF65BHwfx9RzRdrgZw5NeCGI3kOqDx8u4CXoLS/vENIZVVoOJXHfNUV6TMER8R8V1DgZAz1Ndt1ScAHGPT8csaSRd1jAGAqG2yyJbLdYLdIx8Hw2GJYUhDNO+pwptssQyLeooMAt6PD96nakIJwNPgoF61x0P9lRKwXPxOgSzZ/7+IeRLqmhrzEqf6y+msGOETVzDHM+pyUwp/iVyskQeA4CxmMPliXB2D5kegZHyKOycjOsToXSrCiT9whe7pN98/3B7YJKyv92SxexSiaJlQ415x6l0lVEMSmferNXRPTJWGjSiQmc0VE/lioL+vHo4U0PiSCWF90Li+4fBe4FsOYxEDIeKthMqC7UsqcllZze1D2Y0Wcfpj05azpufk4jkVacujHxEWvGP/xes/kG/TWnxJTDQaGw4AmQ4zZViBMD7tiKtr7IOxDgUen1VBZDVGO9+rx9N/jpsbflDEPkImv35PLoHJCZTwKhycZSfnBfE8ZwIrARxLju9i8PqnRPFGOd/T+lZbNZZfsDDdFQdqmP/igrbR8vnzPrbc3nj8TwQR/P1WV5FEDW3irq9HVVdYglDT5s86smvWT162Kl4OxorFctkQqML2hWcp+IxW4Uyoxlul3SpigIbf13SHftiIGoGndQBwsDXBqLp5K7U705uxaPoQsjWYffqsfVE9BvomxSxZ8DeCCZ9O3YFG3rFl2GMADAgL03I1z7bHWHjXoRhamyEAyDC5qyuZ6xGQao5xet8vgIZOs9dIsZlq0KKilsIvq9fNie0p/ttJ2sXpFm/VrfTsRdXsw/VXBfW2UBQt8ArAZm/aAGMhjI1VW3YZOQK+0Mh5A22+pyddMPWLmDz4yd/t/5OsJmd0q2/XrKsU3TOMYDF8+k2bN8PsX7Ok4j2N41IIrQ3Pm19LH7o7otzXcIsnjS0Y/JA/fQ0kj8APdebarmf0UTfSPH9RJasQjoix9S0p9DiJOPjkF5Pf5el1OUVAGUlwnhXHfrRsx9lNH4InFQJoB6i81rmSyA0KSkFirodJjMDKByW+BSwYMGaZufE57RHw5kq6fZB/rlxWcBoKCNH0BZGyWSu7pGbs2FWWr+BjkyfRmZqKDSxAsaHrnlLnRR8I7zBEz5EQI0r6Z3Z1UgAbVy8m5cWW3f2Nymdx+MF+H6X53nLKuLWQASuQNJ4oZT3vAlF0KSDfgmRz3rtCDv9JQrxfkEjmd0OSrbrDLeKBiGmXgCwnmTeKA9R4Av/ll+mMkhMZCHpOFZylsASvWAotPkN9W8VfcIQM/0CVkp8nTAmkG0BI1FnHvbX7gDFTzIQ78ksDYETiG1QuO4ynYZTM3GYgcU3mjYI9uuK3lwo9vtpwlsCrImohno3NBDdfC0jcm/oTunAPdk12XmTMUDlhKOVLP4VIv5QG98B8eCQsIz9bvktEafC9VK6J6CMi6yP6lgb9Brp8W4/ybvspySf8XKcKYOl6azsqm7Kdjv6i2KDzVKN+HGVuVdEVAHC5JUEry+RmQMYcKtm734/bHHmSow1qL8MnaGf4ba/nbpHmTRR+Uxdmb4vi3fSOUmF2+llHQ1noXKinV+AOwE5JUWZK+X2RHB6jfQC1bv8m6tbZN7QT2z5IAWp2YgjJoAoUyjFPnpJM5xXBoQsxk6D2UzACDN/ar5vtQqUfzArG6F9PAC8Yj5TslB7Nj5QBWnH44Gqq51XJlNFlpr1lcIQBIC+B1hf5WC4FirZqqYCa2y4se1rwlDA/CSjrqtXRpiOESsQDIMYziYgY6jtwVgRWNhaR7AMftHjkC+J4AT/WvlSiV43lWXwfbZQoVJQCpwLcFuWqd7txJBZf9EUy2iXx4yfktKx7Gm5Z3P1/7X39+TyDkS9azL+CX2T+NyawPUU+Dkd7lo+Sdu65Fzbi+kFMyBSEtT45QvX6Sd+4U52frmhSjYXAY/WJg2ngu043FydXKaHlWGSmId9SLuf/SWhblrEKbVf26kVuuLOLnCRgXLY9GvBZxOFenKcisvS+aMUvxTXy5zbZm5x8QQ3MqxUi0upcmc2/mh/bafvci/ijk8l46UJfEZCupLL2wQGa7su0b+7a5aeBJUfFpmZFLqDXQPSQP3UqfagRrrBDTFocmyKDZkjryJRFG02Na6V78xHSDUgvY430kHy8doZRDScZDM3buvxV6/ZPNkzOAtbB0X+DMlgRPD8HjbLiJDTcN4EkdWLhC9LfIkvKxItBfx39/cDkd6LJePQcwDfuyw2qA7Lzmck8/j/o9pHZBYYM7wfsp5Bnn0uA13RM6XDMxRf7u9XCsz+GWTS/OPKkIxPUH0CJLGdkSlP6b1DKuynDp5k0TzX+IVrnaDx0G27bhLgdg4EPlCOokeVVi5IMR9ZMvMyer0Xcl5fnkVOR594CUUvhj/v0CMW3TdeG36beYJE0HVDVa+SV4hJFv75XXEkyyMV61VWFsxdj1bti8IBenSW4TDC4RRW1shRdvPuWRlnJSSFJG0EObBLBpG4ucKNzeaAMB9LSL0izdNFXX4F4T0CPS+NftXrts0RenxRpzgTnISWDYbMsbBrvPbfxNJmex54c5b8+uOvMHYZDuAt9SqgDD8Og4r+9Ud3I/rQyCOmJzZ2qc6BTO44U67ZUO4wxZfFjbz8IdekZArHrWGVjffWdkXWW5UAYne1LkEa4PbHhtlssSek3J5B0IKdWfXcaQAS/keB7scoMZRuZfrALECJFKZrwyJiCkLmamM3wpYj5eqD2DxTjW2Px4rxceCJrFj0WxXfV04ZilWwZPpWnTwdzCRLSydWDvl3V0T6Bva0mCq9Q1BwZpx3J84SDSrI9787BOlODBo9rtfftfSHj3gXWOwKLG3aEAxMfCHlqsq+FKZBaLfPzQS3UEmofglNmL4tiRGtexCF45fgT1utJkC5f9aQLhMitXuyhS9py3EQe8SKGkkqVwnNVyuaORCX+S9WzOHi5D4YpEafgKm8OfrYDDHrtgROmJm+mnNHIaL73dTZxvPaCu33h2EAuYT2SZO1waKBD/x+UA6FU3AOokNEkmkykVj72r4Po8s5tAaLIUHcfW+OZd+Eiyybv2CyX1PD7weFvjv800/zzzBzLQ2ctoQQbE/efGQ0B8EaiInAa6zAPTLy37/0V/soDqOpY1nR3zSasscSQMVU1fgyUeiFNM+v5WT67BDESEro/b+EUSEBXxcyuZWUSw1F5biJFwZvVJO3pmyFVmZ73Dl1+HILcAOSk4HHSrP3Xory2LlJ0JNApzDJpes16uFZqDQVcMh/ctK86AzfKOYmPBIxvW6SwWstGwTjrud3ZQTUDUnAHPXY7UWiBVBzI4yj4FNzjIM14GOE4f7N7rZ2OZiXLVzzFaVumxl+zpi0hzWV5lXW0pqIWFX8EnaOcRA2UPExo3bCq1UtjsGLNVKb1/z/AZFZD/DkH1pycf3kEAl6dc5qRdpoiOWGYOMOj19navRFOGWjSVYr4q3Q6hgSYih71nnptlwjGE2hk2/DJUjlIwTx+0UhX+IXbOFDPwsurxDaYjy8mO47heOQqTRDCSiD0TkwwG1jDpyl498dn3RKQ2AWFWPOxq47VqByGS8mrk6jO5OSOBiYlPvwzbWpvA97e9gdTaMlKUcPzlappvHpp66wjG6GFiP/lOp0l8071//h/gWku3OF11gWfVAjzNjj6EWDSQK40kUzFLN+3c5vcMChaN7IWnOKreBMrhP7K0WmwlVpT/vFfX5KqwVMUVYsJkp8lAi8WCZOk1uySNUACDB4LQWMT9rtEiusiCDl8E7VrLEYM74aqKgbz7Evl/+yJOuYep9kdL87AKIiEww7pD5N5zW9DOdNeH0oIFjzBKRvbgpxPMFswpcXm9t4pItcUT7IJketwSqxsN6FnLombsx57an3YwbdRzBy7SxBf5wkCRRbi5TnwkGJ+a2zvtEpllDJXLJEHe+ImKQ1qJ52ME7g078AQ6HjWcT6LjHI6oiFztF4L4QaL9VUJfG/frMVi3X33lGIsiD48MPsgOlm7WAKssUF6K3zFbDjKsJcsMkqbbi3qBD0Y87qUt/3TZTb1QSLQVBAXZABsJucsq+/AUIuauFNwrCRmXmNKxhbe/NGhKa811xFi3dWWmLZCLyf9yZxDj3O5uUNVxjfDr/KGeXKfwKt5UXxgJkGShtPLSiUdmxLkC8cL9Mr2EolGuFPWpXS9pZbf9N/urbKSnxs1woD4+vkS/moWDsK89CPDvL/BVBZCDcFbo1bQPZLNuoPUqmS2bIp7KkiBwrmuV4ZqcaTaYl/f/z6HnwC26JgbVvCQLYvfbVckIVEaSN7dvCwDMYZdmy0mrmRVLwo51LNqjrk0vK6YYsscc1xHhCC7WqpKFoQo0w0tyUEEReV5S0EUWO4Ypb1heKFH8E0HfvwNK7AdEPk7b4j8AhNhWp/p/XDtwSTDw2vdD8L1W0zDhlGabWwZmeBVjDSyoNknZMCK3S8mDSZNwgizT+fI/Jdeo4sd3QZ9h5uHubnljI52QsCYoA436/2uc720Ia1Vn+tAnXdchM11rtL1F5eo7CQb9tLrO7808qJxN7FKvaxGgb+Td5p2JxH+nJOoyAFf68Aa42Ukq1Dg2S6tJL6g2mNhbjVciOmRWs7jCsTe7Qx+fWFuz0PORcK6oTbDT9FI2PfaRcJC4P/GqE0QPncmSFzDS7habVAMK5dMLa9ht5D4kDf/fQ+JxF2EMrxwSWkf6iFEAPToj8em3/8ym/7ebevbPKDaQpUf/lZnWuhOP/jhNuBtBQ7L3evgnKjXpuzcT6uzsVogF9HfzujR1wyurHIUyQ7Ga+yYFc6FjbZBVUjVYA5Bt3KPTk686vwk4ns2XrEjHivj1dtE1/9kwJZSsduj20JGMZ2ArU1h06Qui5326No+mcnsNiUf2RP/SMXzKHJ3lqgfXYukzdhkOEELNv9JrkiY7ebaLx+4Wv6DA/dapyI/VRgMrKMVYtTWtuaFR3iE7B1fQUk4auZUtWLkG+Zgz+H7zEZ686S8op7kdcBbOKg3UyIfM+LTSFqTHhNHMsgubT/sbifsskHu7L5wliIvSDNwcYMAP1Dc/GCCN6/9fYjmyZkyMoDKm5Z9inJOrnC0kMi44r3Mq+5FWEt+ovE9X4LmWNMhxVrp4Hh1sa3cpftUef7d9QpfgHbngIAWz3WJMKbozW1MyNrRbisADq26QfN/OovneHOBMswXZaenhXgaTxQyURm5Wca2ZSPl+pAPBRoabxa3ISiAg3xyCOxh553apMhwzuiC3eQ3Put2LdlkvyDKUQeBjVZmlXeNh1/fq6laoBe/XygiMXwQpvsVpIV0c7/KVhjKCm9ppBW0w6h4/iGuuMLK4kle0ylchS4yAsxiugUqhuYy1hwr6h6ZisZdawgma+qlW93L8YiE6qVvKxu0inQ9CrpbxYPBDIjN6qfpSRQE8MlzhFmDe3H9Cnqhlv+zx8jX8QfPcVkIyTbQ3o+ehfCbVlcZLDnDX29J2HWKub7rxwBp7UbRBe5qN0kWENxSyWOlcM4arug5Ni6FAXjqSo5GiwKXj2qoviDVprD2qQyN9X99P2hYzTaNdygixwM9btYSVpCF5cBrhyNUCylpe5Sc41SMm7UHXm4AnRrP/PXLUYCj1Mr/gnVlexCn4DEHgaY+hHnXBytZziMP6rsw9MB5sfVf2H43TIhbctgn8rrUEnBtcf+3RfnO6K+MJ2bvwSKoh8qzAtX16NV87MQ0KVvVZF1E6jFTSCnvZmitDGSbS9w4pauqEMijdOacLiSCD8C/zr0SE9TszVhrn7vf79h++xUFCYS11jrGtk78vUf4sGSGcJap7NTSrl+Har2Nw4gDEqJpsVC2EITHtxeOPzNob/I1ru9X+Qmvv9DGliMbHQieIbNzqQKnAWqHeTpMwOuf+hBNJyBl2Lpbwtd7k47xSDdF4qAzfAx73DPQH26LHfE7USUBAPK8lqTNmPIqK+Ri0AY25+AD+pUn0Uq9/W06rrmGr7RM1fVR/jZamKPJ68Ref39Gbifnei1O6ez7IX20s489B9R7EwH0BJCpU/Oo5P5KqJiUUDGXOEBIv4nEd/UnkhfjbutTu3qxTVm2Zz0OEeZyf1K92X5SwBFvNlVzkvqutR5ex/J+m3CSHE2ussrS/tOrknOhqGNK15yRK8lQ77WTr/HTDrqxV40lYkqyg1+wPDbkPi2LwyJtNPzICW9BV+B2cTJXZF6hquD80giS5SiVoyjtqGL6qStRVvgoUYlpv9TWhodQopWaDX33F6TRsNYTDFi5E2XMTr5nlffxQHAz8xq1m6LHggffHmaIZAKmu9i9j/ppuUeY0UA6kBuECE1G5fGJSXiQfdZUeIM2YU6/0m0iYWxZlD/Ua78sZ0+FU4iyz2iBlB5UcOwA6QEVsifcxwPE5oiwdt24r2Gu1czmRIKSNBwRQCXLzBLJgADgc0LhRJFfpoP9iBTIEI4VulArUdCC9rzp/KarlGxBElEP99yNWcVZ877n4Qz/6rbOX0h5fy/YB7QEFKQP1EjtUA+3fO927Z49Blhcl4zaH/8+29X1/c1bpbd95jM50sU3WhBriuGB05NhzP8jTJKGL1XzisERJCXHTQJws7rAIO+WlWoyO26VtVVTusD9T6er43Swdkf+HqVt03c5tGuYmE6X24XlDAsHJZxfhoD906BQPUOGiW5R9PE2pHs47FEtFC5+E1vZszhe1nt5wYAGTSsTfUCdf/RgBZctt9gcyji5ox4KDUT4CsuC9WWA7NFWsAQMHMjTcoz3iSvWznklLVFYOMD7FzoEILe4/s2S1E+pvSFLsWJ0ogTIgtV7k8t1iw8Jk3RKxcpwYV68A/DaQLhHVe5sFhecwTsfF1PHeMkHHZytRdbP7UZkLuQDwjJlx1qR5VN01OrfWBqXO6ThGuVp7jqbe8ztL2yglrXFeu0NgRnZu7TlrflYh8q+159J58gWMIEK5kfUMiyGxvknEWGfeCq30555VTAf0aMxdjp1hlGn89PUX+1Trq8tr/tTMqTiNdcMc1w2qqeVFSz9gFU09Yxzd1LQn5FsfPQii9YpmFyt3Z14X3bkKZxGqEkox04YJVhCwaFxtBNIETwpaG1EHBw2t7XJqTl0jRSDwoQTudnDiR4TsSK/9Ydcb0EEXTGLC6qifEeXraSqBjhAQBYmrREvmJMj9ABHSqEagY0ZQ6lYOBJF17qyhnyZeobH27N20OqAGHYwEm8yi2pyZnh1FwxBr7hlyvcrDoB2k6hNG1gghyy6seV8+WoMe1uVKumcpkHgV69CoSedTsZmdGn+lpUhALQowEpXP3iXm7yeoexXvmfdiiBF+9ww5nBf4Gm8YRODytn/haGRnYqTeLb0fEZTLd1sQ/Sw4g9n5m4lIYS1kVgjklzk+wHe5ef6VfmYSElw/7JQveJitMIfyKRAy+MDJXR20wo3oGCw05KPkxkPwPs9LFKru1EgVS+RuGbQQdcOU6bMxmFTkqU6MjuASjkL3R8uVBdqoaGQsjkNkOjQSWOdKjw7QHdgF2yvkrSPqaVlC+M5szVaeLCwfoeeBZLpUcwv8F3aeeJCqdA3KkeLXTVMASZfVoeqb3oFUTvqHBuuHH/00V9H8sRmamqhdJPsQsUTq0ia8UsKcJpktwgZ0v/p0v1mlE5jhfeO/VHvvvzgJ2WZim9YYy/LtIlVbsbj70ELVnAD78QsoqLQwPgA5Fal4ilLkrqaTyn8VzJpotlLZGBimVgkkWp4hO5fhxnsR33T1PjTHBk42G1+vT+MAnc+nLKEIlyy+GkEWVv/O/IuDfZdBoGQ+bKPkza/vMU3fN4Txe/VXf+cutlo0pEdjbS4tvzjhqAa1Ya5VkGs92I19lc6djH73iQWqGEE/cm2lXcWVCnD55XPbfqsTsbb1mhU/vQ9mGfV/carkfxqWHT92QuMJIa8ua/WFUoqu01J1LF7IUWo2TgFTi+tnkqDTcksBMIVLPUzNzWJ0aLzp66j1oqy0T81WeQGJJeXamI4R/RZpRScHbSpo1LKV+5ryrAaCvNq7cSqWCr8J5Xqb5NT5u9nYEfeUOca6OZC5oqImGUuti/Vh0IHuRYT9GYqxFqDS+fzQdWuKGV8HktkMPtDi89hi9phlZfaG5Ljkb+88pNQHhfDAGrRAdqAuKj5mft/kQd1YC9A2ILdFQK0J7cXM2RkQkDhxE464jn/qlbjvjSFMx6JkSKil1xEo6mfc/1DXUd8yOHarAxk9eO7tLmJ+AmXx4Yofo73YGQK3QreCEFTs8CA7GBiTqj4UCzxa9as59JFoLTU2GUq8MB99d7QjeAIvfkEJ9jQKXJx2bqjOE4NWD5WmIdpmq9hS8StGz9cNxwKbAPE6gFgr5MBnkuySE1t6w0FSlAAOuwcjOV4F0ZEcYVJsuJB7twHyughYPzr8wc0Ze0JLSEujHPJ+dp43ZZVEm1Wy/ZXaTGuiGL3QY3eGwSqw0wCW98nm2Ov18J2qVh+BjzrwM1M+YLxWI1ZXyL4v4MjqpDA2fO9JiXMQFVF9KbCXqTXTff5GhA/lnxUT0oIfwrCFlofjVnDZmyRHUgjAyfr+OPj+JZDupD5iq7w7JXlwfZZ7a950t3g0cnwVzH6EgLG4R5ZC2s58UbalHZCXz4x8FJQjotjBkrbwCmpm5j5jCvktm/he0w07ds+6UmosmZYO3FvmMNeMbgg0boWQZ+L3JOr8dSi44DhYxbMCSlznz1a/zYYAf+SlgUGKLfE+kKasKhmL+2eLqElhsL/uknJ2TIWjLLmiqtX8cgWcgvf4B803qArahoft78TlR4I+6dVP5K8RsSCceo9azMH3ogcaRYVMfNu5iCyOaps0wCo0qf5a29AdOOFZXM0h79sJVAqBcVuP8cylXEmwzvK4UHemdrPJP65o8ijlpKjWUiBjoeVvtkiTfL2eITG4nwzyCTEGinvcB/s8g8d3m2gu/ybELwjxfNMoe8U9lEStovMQHulV2YCYZ+iHPYfuGMuJ5xVB86+tefzjNcOp7Yf/qMvNOUa8CyJ53jPb75UN4xR/5duNbQE1e/roDHhXOBOz0je0CIDDrtznLnSx8ptbX82TQZ1dhrPph7mdgRfIxUOC3sRTGbaczGuFlIihCcvTZmQzljrSrA+RMunoCkQCTkV2CMIH/jKZ71kFTVG9sVwtXT75eeqR8U2rsU7FM+s1DLATryLaLwrngjs+hWs208Uly4K+s+n+nxHx8OC9Zoenw4HSpXplU2gJwNqGzsk+RouYvcFTmAKKll57Zuy+H4LZAZVxSmEUiadHlFJU43V/7FommIu3Jd+QfFT1kPhnAyJYsV9V6v1VFYGHpsKM6EPMxnJ7I8CagJKyaOgIio2wv3qEaohvpc4gJ8yPpMgvdUiK4ad4Mm9PUfn0VSPJOHdTE3blYrPwxBchc22Tti1DePr4WaracpDIf0F26i5swvb6gLrUdH4Mo1SXcymQo5X0iQANalvffvmAYlssE5Jk3Ko2v5Mg4Jg/M4WXQ9yntoymBiWtPIYRAW7I8XNIOcHxKSJXT1ouSHnnAme5TTG9RjSgB3hb285aGkyDBu9pQUhZIlLpxXc6lpqnOtaHmjnPvP2orxBzhLIRLGQy3436UAgs2AcbJwQbNpfu6MY6uXP72gPRS80YGAeY7Ym7OHRV1dK0guh3yCft/V339yDosI77966jjTAaH+zLmFaqBkMNZzcPdsqkiLVkgJloNCTfg0fiPlbpNg2DpAaF8bx4gbv2J7WII6UxC57PUMFue4Xel8bU7mvvqR9W+Jy5OEHnM2tZZfRcx26HDR8eOp+dWjmIsh3nHcRBz8Pogth/pNgll579RecHzVBSD2KeLblu7tnpfo3/BTJsOcupPKapEQ1pA9vWZOZY3Sk3IjCllc6/oPQAeFVxNZwzz8tB7j2daTLavgYZNFJ+riz/ai3uyFlH5fX7Tkd4MmajGZ7vSr+vLbzC10Jz3OLQHqxO/7zitJyC/csaScOf3eRQ3BQxRBvpRo5y017WQExH18vhRV5dUpNm8/g/bAwKPnoCvQjxHbG3SujfEnBeZY+xOeBOLFLrvBMUAhI73mv0LseKIqTD3IzsjRtksl1rGF7PvnaDIUg2RRm1qtvjjnssXy7Zv99bYtn7j+3UFr6d3rOmGQR0emnG2S7DwVyoPYRPsRb8Llry84Ruyri4/rfQWQ3fcb50ybHtdplzQx7JAM0pFIroRct08ylcx25Jt0a9inZixg0ohtq+nHshhI/LSCNzjCHWdSs4RjoByVdH/lom6IY/AsaI/8CHjewQjM27sNplF2KXxI1UhKyHDunA0clI9QEyldXfsuQWYZwK5WHV+JDgCDB57qgDBX5yJ73IGrfRVwmdeuTd5Rwbu32aOLnGfPmCPcKNlOU9wok0WVXBXCAPhg953c+Xuk0rDaQVcYboBTCwhUnu+XCJyTH7qDADRWu515dg2lRQKJRKWFHUOVVr+/ZbisE9Wr18+3Nh4U8bJOUVGkjr2Pre1SeT9WPsQhoa8Cp7we8zny1Nr6sCXMdCYBYczFwE0Z0qSQit0DGNBGSO4Uw4xHMe7TFu6BdrfcjsHmn3JCPXNA8VQVp9IlNf0ChzGzFMmVTYcKuIyrTaZydMWV32QcAoAyW4bqvYT4O49fIuh5upv2TSb1Qv2WQa28V7st4GtRTI3tMKOvpw8rk5yiGSW6Tl67kcnTiL4W38yU8fFXBAigRk02RgXzuUmFZEEsBqPZkvALXyJnUdtXacF3DsKoBp0ONOzzFCvfIYQ8WKHYW3kovLgUoGuxAUizaIINXZJrr+c+KIHCIOkdP5ugliv5Wf2fDaB0I2dglU7hId8jS0gAP7EnCmMabvNiWQr4QCJ7wPJ4C56SInnSokyjt2zpNvDTyZoioIRPvM3bNKCUexy+gHDObyXXDDtcJUBdJhYuqsHsIY9p/SBAGUvRvlh8stINwkNpVroeYGGCwSoGb9DkZAZy93j/EIX+3HLgqE/kmEmWOXK2WTB+PPBShJlz2cKlh85a/m649WNTtK0TLd1bcnf/aCxCVwdGT+tZSnPbA6ySDCWO5DN6pkvbVuacOX9CPFqHeSalqufirBJQZbNAT473nmI1xNuAlmDDYCyrhZgrWO90YBtrkvpBa8lI4hgNtb0g2qRg2QO0IQkAZNqAt5isjosUtP6UByiw67DKC85qGL4duNC6jA3/PzELulOr9dR08f7K1sT/y6xXanjXq1URo7g6bmNTA77NUEb0RJzCoY8dcaG/hI66nLNKVYGC2cpePX5BVOo4q+CaxVHJ3czCCLYZYU6mtA/bmuvqMuxWC4LVkOooSSn47+zNb/4+H8AG3JQhzjTUTZyBA9jhiDvKTCvA/fKaVIFO4X9sq9pK2KYDuelcpBLgsxhGzsxERfzgxnsadvJ6e0wdW+kIGmgaetpkDCbzbpXD6asyhN/GeVFHfnEDpRnlXdWDTC1yHG/BNus/Ubr7z/i8Pk0q9mH6lOyfPlFqwS6ESsV5u9daLrb2Y2Q+kb+w5Hplt6Xvl5fexS2jxJah/LjEzJP0ucREahhPcyYbDeNEDk53FXG89Qgkr5Z6aoHwLlqtcG3DHk2j0QTD3i2+vNv0QiK7AAWue+uJYfGKJwZCXxN/hJEhbHvXU47ZD2ddcsSwOM9k42OqxG17iLGd/+hZgxmZWgrgvwIJtZFjK2YOn9DKqh4+OmSQKPzL8ZEfpcXxd+cBgxtjTDtVULdjLHlkqRGODb2nqQVrP4G/OhLdzfWmOAgA1Bv3+bP2DLjSGWKj0JkClzlfyWrD1R8JlLA2ar43D9E9lv/JICa0YeE03ULtyhgglEWnqv027q3vSUFom5jtOeqndCSFNM3pDxW86mrGjvCAsV6+lKnRaggcU1qiPCJuCbSeagqTaMhr7Y+nwd0qlTTmSDNg4gGYy5FzAp21A3BGCVExxxdLZ8+rDXh+KKzlGlyK2sGe9GVftOQvkbbdm5rjXj4tjV+Mc5Sd+OUrSSBO/AUoTTub3tqTSR9PTCh/DQcJvjYiLREzs7wTqvuA5zH2PRipwdgWgUqYMYgQNjx+IhgAVyYxn5KH41+rsZAHCOYkyLQ/5G9Ck5WrH9pn7rlbIbQ6IOpgwYkJSR9hc3ruPBGHUwtfleZevdtGCCXKZS4oshmwDx2plBf7bcyLoUJmI4u0un5ZP0xorqPRIM9H+waDmMjgXe9xAurncH/rtidsmGhZd58j0yWCU8IkaTxQgQEkiONBTrOC+Q5xq2OHRqwTxav1KhYSYwtlVPFQTYbEjYi/dzq7pB3XKuIsg+ImPLBx3bdQUFjKTXrGDNQNmtjlyr6MsL5al0FuqaJ+UHeXHjYxlbw8ab/uHAfMGec23veTCR1YWS6e1RMU6EWAn5NJpVpY0iCqBL5zG23kUTVSQbeK90CMcFR9SkZOFZNeIWeV642fZtmFGyL2QklM/++3SqwD75Ru/2Op8o4Cme6ltpscqgu/n/B3WMWgiHUbtXHtsJNRNxZRodK0BAuorT/YTZOQrdCcjK0OqODlpsnAdPH8cuvgW/M6PeIz43AQeVP2E+JhWjO2IVMW8GTtood1oEANYnwdKUDMr6Vv8naWiWEzVJsoWM9bSlyOnfVqrL9fdZBpkBIUEPZe6a/umyc3uUIRHKajXRGA/uj6gXh2ueB813PaXTRiFFxAvKogNZfsf4fE1jNIvWq2EYucB20Ws0/GYCrLsRn+6P0FKNAB6qT0YKQea5Ue15W3cwzxUIAAryFCIHqEl1x+MeR89HbSGt+jE4yTlmuZHt0nL/SQFxUbXBGLvzTE05c8O9R4nHTNWybg/Gkw/lVXBN3FBuTxeR6dwfHJAcWMrIizxpoEdS2Ld/QB+owx2Q+nNo/nSEpXEZeGHKZKOOorR/ihNOmDe+kvIqZatsJOLiDatIKpAEJ66T9mi2HAke25GC3sb8sgLYjj3UGtyoorfAUBDCLLn3vSLeEhZ9c3gbGHW0lC30s2mt9zKj2nQacCvLZLH6bNVWB1euQ4H6hHyLVXZi0im1B9XtHGs1Y+iBrr7Kbuhuzg5i/gIJh8f8BKXkuy+FiFjVJv1LbxHPm7uZDGqvTbKpoAiKABXQ44vFNSGKnFPspTRwILuthOId7l2wKW8YFcQTY9j9zFZvJIix/eq7Ghb9Db19V6vN0FCsv2C7312pXsPI4MrpdolXeLQWGiQWtyqDVcEtvA/OGQ0gg5hBf1hs0vo7GC1Qj5BAkcH34P9291oCNJHYKYsVFsNzMQwCuwyl5Ws3Afhs+wc1sv+QCjtzeArxmqVZxtAMkNWEXfx2O4UqnyxxUD29LL141nwmy3j9Sn79NRcfvP8M3Enl1Zs2snC/nCdZxvsFJpKxHwYfgStSWuOaqt7RBPDMTmM/k3yBfwgjB9OuXzXUkzw37RFmmcC+OsMUkng+e1TsPEOvBvrrwVuJ85ys/R1ZGDDljPwX54BtcTMQco5bxvR8cmdibaGQdd/aNA1Q0bW1KH7wKngkMJFd/va3lRUC3kln9jezdC7QuZRxBlMUDknBdP78e5V2qWo/dKoHrlxMl1PBKe0UAqUJiwIOU7QdaG4Mgndc6RBTQYzFoUovjriC5qKmXsUw1oHHQ5HuUDjRumHRntkchoEop4PRV6GZuNUG4JgyPhnPerO4sFov1IO26sqs7wkmGEGv/Fgy2uSVtTaSh6dV2maqfDIiQOI98s3gUIj2/in6v2cCe/N+VEcxp+FrHMK/Ut1ibv8Przdrd7bZpqGEaa5WmIRD9AoM2AaADKydozsIKIgnRLO6o4oflr371CJnxXsoGy0VXdgYJdiMCyHLyMaoLNQ9hx1K5ivaPsP1YStrAYLGvgexXVMv8VS9cI5W5Oiu5AgSCm5J3dPBLEvWmblS4eIsm2i0MLzIEL3wGme+Kw9AoJtl62ddTuHmDyNiU86HsZB5d9rPjLske51dFh34QHQK29jzsjn5BYoDuWL3L07qI9I0ttkVP1+ONe5ITRMperadiMCsGsxYVIqlgwmLmT2Q4iRpqQZ0mOghX1+1616qhmQymCFOQBXWCkOVCEulB7Ip1hu3JNxfIspufLLdETkfAH61QKZd71t3YfSs34dGIsjVZu2jmUoDyiCBFunBLUZy6UUWs/Y7Zwqn6E59nTnm4U3G01OKopfjM92G1urdubNOwev4HdCJexJkd5Ut4uDCWn+VK+pCu4nUrg2Efro2LknUZrs0jZbFO7ogmOyBIn4ZSRIDukN602kg/nQP8bnwTXZtbK0KPo3NRPDJjPahiTRVkSgEugWNibX1ljwBCEsZ7s/Wv9vRzj3Z6/H1DuK3qSCmj6rko183Jma/IKznloXfx3ekzZue1olhEa/kamwngbOz3TORjGaXVZUcHV7qgsn4y9M+BR1FrrfYBuHiu35JYrOtQV3akdDAdLM53C2WbcxpDoXI9GTGiawezRybrTijH1B0/kv7Qe8M1uDFg8J6QxSrvE5hexG5o3FdavmhTpzVU+UUJoQaGFfh+dCOdHcVq7VvsGhb4Y0LNhmgrsPN+GqLLbEuuC74Dtyp4qDtRd4yRHgPVgF1FtiK2eMYWVbQhKzs9dbJaAmycVcqdbbpfGLY+30WLI+mLD7syrwXPzefkphwwtxcwytCXRy5SjVy8hEuI2YRohlGb9uhfq+auFCIexrTvXhY5l6s+MWWpDb5BTsvUAPXbjTYa4cJeBPAW5SFY2J+mmCRGKAE5YhztF6WKKrEmr1QEg5EcNrsvIBK3XmXeU3miZNCbntqPy/2XZCqYIxi5UotEl/VKFa9BW0Rp0Zh87CTvRg6MGXSH/kKiKEK0bDMoBMFewNHKzRtH80QDhgPfh0hBofQg4AByRQ8KQj50OQ6ctZAXKr9/AHjjUpVCqanoWAcpir83Jx810QTvCK6ZBZDo39Irok4vDPhi6ILh4U0vtKDWa/ugcZH4kz5RcyAJ1H198D1JC6EPFlRo0sHkRZ97O8yaS7V7bm2l4HmFb/4htYhAE8RzP+AQDU3WR7/dXiEUEQqlzJgNHiCQS6xwboah5t9VH086UTLvQtiyoO/6zq+FiehvuT/eejH1IF+Pj3evxv/CHHo1D6eIWqnW6KArSAfVPJNSfqbTFiO3XlSS0yM0W2xxO8L5m6vJ6MDfG0FM6rd3Ai3RbZiwWT2drsABReECY+pH4IaHmiIJgfgryWfBjTmz5Xff6mCpLpaEVvOphCEwzvc43/+fJOacVK4NMf98gpu5o4QAgnK0ZYDbpZI71J/w+dwQB4DblHr4Z0U2EKGqZGZrVZtZGWPKmm3u4MZxfpUGi/wbSS4CwSpYI43UF9gbjrFNpxTqAIF9yM/hHppbWDlxUm/utQb+RyxV+aEUb+/hFFksslDR1kcLXd6W65nFCeypU7kmO2NMPlTuEBj/v2A0deOhOwFlrZ9AGMKOLkuovxWmg3WFxMCR8biXJi2sol5ef/ggGzl6kYAetONp688PCBSK3R2a+QRV+Y7n+9i4hs/Z3atW0jPh+x4m8s1bcI7w6+B76RgnpL+xMLFxff+TRgehZ+R3lQjUEkty7n9d5jCuIEUHlUkaLwQMXbk0E6LGaV+EyOb/JU4/r99MiOOCPjnGmOBiSWX1I+RtaMW0/ACCTTSzDLXgiF0ZYQIX9od36U1ogqNmDoWZDwrFzN8c6QaOy3csbyHsbKhZpJuUt4Lknj845JIgVRr6zeZrJCstqIDXZhfQGcab7hkVk7lzrHJkDryn72xU8Popgs0c5lss2FbrlDd24zgOVmj9QlIodFjdiL6mkkhdFXEtLhSrbFMrSgwkvRhonp3+jAc1Ydlf6iRGCi8EctoasXK7KNNY2c9EkrB8OvsDpjsZSRteo5czpPjksDKBnhL4geNVrwhKk9F3mxH3ccM30VhcAvMpV+qBPXIJHyyNBazc3hDXQA01Mu8m647ZwXFXwppM/4iCP5g4DDJkMRBI1zM2OUOXAzdzPWkGrKwrFCj9C+BI/vmoGuFL5tea8oMYFDaqLG2EzBBVlX161DY+76UAlG1QFkzkynjoF2r3bVV5D3pVtq14VqQHblSqGRDDT2ZVQdDQq4zQ3r8dB4Oxc/FOnl9NQasEQoo89gLPAxfq0eK14E00lPeLW/Vl/2l3wcTrYWdUOqR+AMpVfE4G+k35FbPzzVZY4FkhiZx70jsA1SP3k+nQzNo81JjPy9kQ1uaigt92usFs8uxyuKYps4vS1PvcC7PfKKmoGhL6KQiSNZt7CUYJn1jXT3dSbUP+4yTe+G/n/ik5x71C4GB1d38uXeKR7yIxxyMqLrGSbrBFEO7ybUFfYEyXoozq4tAXSBViYR19iUOHlnZRSFeiYBq1BipBL7uEQBnEcyFt4jjPa8vTEHCsyalk7OjfJ769HOAYXbtZgBoaF9D4zxq1nvV0pqbKHngb8VFnRimWA317Nmk9KWVOnK2bgPRvDDdrgRzpK261bqTI3toZzpTwN4XOaz10I+t7xRgYo+gNv0Io2d9D960bdsx5JatlYusTxB503XcE0bzDGV6pnqgF6/JYhkDP1EiyOTR/4Z2BgpjUY/E5cAOu/Qu85jPUnJcvjxIJBmGO/3pJ772gFQO0IDvw8+dPwlI/KGzkAsaMBMwKfaW06Qx1n8YEnjUvCssQ0JqhfWaKg5iI3nG4OLGZigN/x2O1FfKftGyrPp/Euly5934G/BMgBwZA69cZFvNWDGzttEuhD8Esnk/CXTY2zwJYOMMCKFnTUyhpjBm/gdA6ZwlLrsBTJAzjBZiTWLJX0t1vvnLeCCc9D+fMGdRXjxrLohb5QffWw599mWzwccMQrGOq0X11SHn9k85dRAS+ohGPjSa79kmP9114vl6Bur9eEsQY8sPlPzJ9dQIGkYsYpbFWpHhrmYAAzvJ6FgAzTCwZSLd+ckMq3XysZHTDQdRww7A1+caRoJAOFCxLVU5JGWBVwTkBdVq34vNTdjBMCS4/au8UQn3oH/lHpPVaqotIW86cPsFi2dm4BI9SqRLkuVgmXq1dPzBjXh4zOKofGCDQAslWASGjk7Sfb2eWbmrG+Pfei21XTPHv7AW2SXFNdlvsya4ZHaeViRASSQ5adOmZ1j89BnChcE1M5a1UQVKBTo5BniRR096K6ahs0tp+w6WJdp4mg71rVrZx+1SUCAW0E6BkuPh5qkNrkDlZ/3vmKeSv27qxLd1OMPxcLMfGjD+idQCBfZsn6tdncVtameeU5j6zhPBgFqYjlzB3MwIGixWfHhSedILnolDadH2lSGiL+4IJmM3GU5jtwBEpknRzOihryXUP2uMQ55TqAHJ2xbrRJ7LrlEM6jW4G5zNe0jx1b2IX1FCwHZae6kESrjcQFjwfwlZ4FvsyrfGXjzMK3hIkI51+X5zALo2loLSUZ2yHkIEWpiPmAaaMhr/UJZbZK5HQexoUzSSxbATwRRs94BD18NAKLlEbRvSu+0LSkJmbcO0jiOKROTPZ8Io5jSO/AtQcP+iP2fFsKp06LxlGjKjI5PdtyOBtHphymqzujKQIXx1vB70LW3NqXoRwMzgSyjXdqi2Gl/QP6UasNO0WAVju2TYwN9M7rAFcjNE/FVTo3Ha7QdvHGl65wDwSva04B9dyxx2sws/un1uWVMmgufC2Tx7avX4KYRBwblAeV2nwPVYboiUWJmC210VILqWjYop0dx0qpbGhvmJ5k4Vyze6255GdE9wYr9J3Gt4BCy8OJsuWJE1K3isWvH9Fqj9zQFzMD+goP9y2+YkzBL3YbxC4LgDnlh9kJkgFza7vhS11UQvpc+g8+feyRmjHBcvADcxjJoXs3SqZdQYisZmHxh6poruob2Emppqr7gDWHbjhtGs/mRgYyws02iukBl0dSwQe6ebT5WQhVa5h12AaNobiE7cwmsGWVzW10e+KwgM+lFWYRimRtnoMGXk8nesIS6vj64LColLycy9A18Z+wj4GeY/TP3OjZPsVolsIWSA9pgRX5SyzfNixZ8DRCrVNEiH1Ytqk8qmfYU/JcUEQUFiWct468KzY/KMqSeMYWXl3aw05/+V7D5D26U9AcoQK9h/6IXizJAkdnV040qV30sVgYIuLCv8p1Hdq0pdm61v308iIsOX0ypMXKpUc8jwpKJ0hAdqZS5694xlaogH/6SIGpYkTHTzhVr4f12PkCEhYw0efqQL11qQ0j/gKkOg3F9RGJVLEOf3ecdK9MY/dgG1VSsvRF2n3rUj5NVLlmY4lT/UjGK5NJYxXWy02dGhKV5UzoHfMGsh7eiV6UyiM+Fc7XkeLnOI1Q8pej46FqMAmPVMxFACy7JJOt9ME/uAuZv7SrpaUe4cHdONQL1PKohPynlGbMEcT9STcPIChHdPGTw2KuD99Wo6sDebPl44LjvLODrtbxtjio1Y+PbNFc9uOcpQkv5+zI+DFAJr8gXmMrPrAdZOk1tLY+TS0F5Zgh45KW8fRjQ/J/0Por7d7OWIpXD5B6lg72nK5sDHpI0oGGINvnKyAxlpgs8/D0b/kkK/O+B9IeeZQp1ZdRbnjBg7iA3uI/AoAOkCNIkAFLruk/qhRjFlqzUhEANCUD7MWiLkEHOumDxxwQwpYSBEZIMIdxgijlvKq9pVlccxedjBdZpafcB/b9wEE/1Kc7wJVi3MX5gCQjI9t5fqCQdoHDW3XtHzsmE1E6NsxUZPtTLi6GzJ7zuwxHK2nyAv0Wfou9av1Qm3auB3wt9LLoZVlFyI8M88OclR1uGB3HW66a1LQM4ty5D5VH8N5W8B7DmtHAJjk0RuHd1WX275oTxs2LZDE6Aj7hynL2/bNR+RGsyaP+M67AoVobIZG0UMIMe+wm//G82QFuYfbIwMfiVbTzRnqLmT0swdrnJUMOGyM4TUqntqD+tZ8weNF3Uz7uwDAsERhiogM+gi3MayTDykBOC0Nfg/qBA+kglf6WD4dJQThaxBELg22cZ/I2AgOV0b+sn0lMr3k7tXGdGd581DnYnsmLVxph/71ppHKCkdQpCyGYqXTea7g/0/VCI05MRwiEV2QhO8uv9X7/2EGNH2KGgbFjMyJyw6I6knPKQustQpprJSMC5mYQwjcZQj6xMqFSkCs2Z3J72CuRtKSIzeGRrFk4tL1m95RYHIkFwS1od1ef/B9hvOYkyyBObn065NV2E8VGCicyn3e7ByZpydRWS3vDx0xELWHI/jZlRybosAjCdoZwhPkAD6temdAJGWPHBHnqze1qxTzZGQ0eAQSdmtHM9kJ79tRghQwgkWGihAgRhAOQqdAD5IlT68N4YAtXIXvOhxbKDaQAszeMuLBiKw2m1epbg9qMkOv5BwXTMYq98kXizTz8ONYjip7WgVUYUCcT8TGGinhrpplHRXeM1V8mIcVz8HwSOf++YhaVSkXkntqRoxMyrc21YagBAunjJMGiz7XBVKgUtxVwZpeLsDx2YODLlf6sK14/Ckckym4g9Sgmg9hzwQ4wnHl5fSOg+XmLgPnp7hGUmr4mfwYPKn/1GWvQ9A+6HGwQKYDG39jsZyWJTpRvK6Ka3I16dd4wdDkv3jagQ2T6p6FVKciaionkSGBWuKyFtPUsZVV/1cC1n5gnj+OIvJVibYcIRAdmjOrqrnDO36Ygr4JqPsxgJp8eyvV2Hx3t47KX2LBVbRXmx7pWFfXg+Rd+P2Ej/q8ZSwHZwub3ODildSYAdLquP+B5/0phOR+4BkyxAghlNnv2hg80J3Aa7RxvmbJ4C29tlMZU2UITlwCgS577PXpm5nW1KfVsymlQnn99Ks1PT6m1IQVznA26vbLoM10DYYCWqaKDQAfJbNp6muhdrHjZpY3vilM1rZzUxbHk2j4b1weRFaZrqCrqbQ8WT4ToebUSIJZHwqdnCTxnHGt53WHHzOax/Wb5Swkp6NEHEVRnZQ4NjaICBBXibdMNIu0f+CFMARHe1587KKqeAdVHBUZgsjXpV5XjMHKUi52MKw4+dzzQKOJGKWjbiYZ2HHR1YzAVbEo8izUwoJEtt0gH4J/NzV6PE0Dzint3NwMm+9uie6mjyFNHAzAwbgiiaIODFHMeIMSe6IAbdiEQ+chOE/n/YMU9DkRa0tLrzqfKhsR9CytcxZGoC9WdTtaxz1fdh3aJAHDObhkyNTOoI0r1GGdEzxjkAyA8ESQfXlvlaVSUH0nGYVFtsRoozzxm4caeSIyYIlhMVWtCPA9CRjWNv+81v47xywwd9Ji9E8fsOvaN/T5hkeEA66K1zSIqGp2VU82/QMEe96pNo3JRpAeHFs8Io2GFHAYLhMBFTb+sxudONtwBDDtuWg149MX1Q3zKSrLvQbOGdFrbeNXlEWmheTiy7poKQGd8dglRSPCwLoCzLx2Sl69AY3LTnckXucJNjYp5w2vw3ptyc6ahk6/yz9/5RIBkX+ntde8m6RAjLKWW66bX5EGADbAMPm9cCJuIUhHAyS5cH6o3OiKvdjhaQ3wuP+f+zdAMFT9W8zKNJb6JeBeboQguJ2K15Onl727EdXG4gTVVMnRg1xH5f/e0Nes7cOGuDoeD9NEndqtF2VcXR3oyCaGTI9wiIBQZXrNU8asC+cvk8SGQzyJY/JlMFP9cnKOaH75GI+no532ni4uNx/NEHzHT3V0FAONopN4oZNPwPenbbe8IB4jSuEeAwGxgSbkLai6/wsvPRFZCWAET6W/1Bqrw4sCg5j1+4E8LnUINWExvSWWOjB4UBMRrbSzOQuOam96DRIV8VLeYjfcq+fZNOjg9e6e+J055QMC1XKUeWLZCQGNFo1bQe/somBMd6jKzzqUQMmiAqM5apJQh+tRJokK7XJpUKjjh8dKIsZ5VFwFeRsJo2Xo05RxqmEQSZlGKgVmQ0XS0RdrYwp7Dclxf3C5iqTJZsf6vgsTYQYZ3JfE1ORFGrr3dIi8VNa+F/pwAZ57HKupL0FHMHkDpKBakjO2gsbmqHe1FV0iyNw7SZAHv+sM3QS9QgI1awhcxhswQ2thUrMpjij97G0UkxXxF83HWhw7yNjAfI/v03WXj+AJ/sD+p/eGGyAsi8WTBaU+/7nTOeiy5nftQGicI7Q68QOmhDgCkYrR4CqIo8Ogv+fZNavd36lMWhtd3h7hBx8ALjcCydvTndMJc2+vLlmlbqBq5ExCVMyKYoYiP5/SI3Bb1VyOPzV3kAigfYR/dJwRH66THlxTJGGm9UaExDeaqO034FgCG3auicZ14LSSlhEceWMSnICvtdz8aGUHika2h2vxelXkFzBwxKPCzrUnZGC4WTX7K7imtUlbiEhwHEE0s599nbcNzIVO1IyjUjKny2A/UnNDd8pbRkDU53dECeOdabqTQ2T5g1VKGEQ03FYflT/Kktagg6ZT/TfuvQKWn+pwg3qtKP2lhJRlptDHkr+SozYW9VNDdrNKxQwlFmCtWFWtB0kJqHoZS+8S4Dtb55q937VrMh+KGkGGDGsro4alQVN7ewnmVQ3ET/nX8k4TIGe5qtIMNGM4h0iZrK1qLsMTiHtkVuIez3of0ONMdpUlaYbBWKreLGrEdu23UoojmM3YaRSJB+BNRzPwi3vPtk7XDJj/yfw/uzMh9F9H3bjtG56r8Dx1JiAO7Fyc0rJipwyXZYqdnvElsRA+v7zGN+yqEZlbFVJL3JZSLtQHcILvcp8kQ4JvEB5KmcsdC2wwPsStjK9SJqAZWfbBuiJtSEeOtGO//w3SoAjX7xQcEGkG/3sQEndEdxJsida1aucKTenU7c42wG3AvZrp5hdPmaC9D+Jgn/RvCCDLfvA79zNxaCyhmvsjsf7O+ifDJnwcPqBtgFjkgLBk0zn/fUfmN+C8urww/DUQcPCEI55GFyIGso8fEjpqvD4kxaOgy+rk1Oa1KZEY8ngiMl5arSVntGTzz2G7JYfQTrl581MIbQ9WAHtmoda2xtcuGdKXEyRbNAA+o+u9QF69va6PnjRaJgiEJsbdn20CFJfyvAnwyvAS13Rhc0F8Vx2QAt49iYc+VnD/zdMcGHcvkwSBjS5j6RXPj7NopRHXj54JynW2Ywm3fQiy0FLCcJK10Im6m95syK1Pan+YWUlmmdBRn/DTWAOtxKfgBtzsLGEEv5NT0EnpsSVHqDEn0rG4Vnu7U1VTDMfysrDvvieuSK2ZTob9mYPoT6Bytl2OCQ1wLQPd14h8aeEXa9lTR+R32kSGLZWFIdbKMLIfXYPmMBOsC9Q1Rn1Og5Q0hjjM9Wi0L1KxwRcU18HWoYQRTiGaMAiDjKor0ey1zvmagutz8Q300ySmSgre4AJnrlaucEtTUDR8A/xV06YTx/S2Y9N5DeWx0WNzEPQjxI8OZrXMgt4v0DTpbqzs0WHeCN6TcKpIoIpUleu24dBFUmlgYzsvPnD5zx/y4XTNGKdE0MuGnowfRljvFbkCJpVUk4AHqQIjsdjKD3CtHsiPjvMWRl7YdreesVAdy10x2ZTCfz2lZiM0mgBiLdNwBHF7LhU+MxZ32t96hQ4eU9dH/sYnPxvN8aIesFPF7ieOnyIinyLhIBSBUQzfEalnN9T3iepJELiwCE0xvKqu4S7TDXdkIbxEzgkxAaOU2dANPmTp7Rtm3cDANfLZmXjlPuHr7G/bkunxRWR0iwW5hUimDcALNrHj4jgYdZVuZ+VODdFbAO12Jb+36NgGWZs9DAlAY0oRqdmW+DmWHy4Z7iiqBB5G4ca3x+5x7F337FoNcxDwMSPKd+j62BX7rCguWybgYPXVgrrCkD/1Px0XMOtKx0MUewyLl+AFJc7xjygjmDDvpZAUKv8NJSp9F3c6lxd73rioZjrs0YV7YcBqQnPpLTTxcjpn1ubTvSVlbwOdzVzRLROy9d1VvVMr5OEQeLOWyiYkewCKFDbnxpIhGaIJ8WZNjOY4p3mf9ZKXa63F365q9oBC46UIa7x59tkoYgz0EX7RiroO94yd7fXkrgOu7qg5W5VNEtNZSDvnhJbj+RJpJRGHFlfnIp6iO7I50nLf3DPfYymO1BqvEGyjU4x5UPcHAC3+w+TBgbN4yIQxDwzIuIhHWn1geoXUjY9Tx3mL0WnQvT2yE753GUbU0d4ry7QFNFsUEYeMFMNM/dBm94bItfek0jlJNcUoM4evEylEPpJxh3q+UNIo/teW8jZeZLLWXEj54rzfehBeMACrlqTs0Slgphui37SejNGBiq6On2WgACxdeX26r/zLd/ka7/U4ozgA6Iia1k/rOXcreIwIwadRSSprkDBtNezKKLCvpMiPYdJR5Xq85vHXp3jhvYMNuMXFaYprvS7ZfE1nsQIN+0c/cSdA+IWc8eXQGvk23QMW1FbHMO3ZjMHh5kZwZMPy0WiuANYvWDU3rquMmAImAJw3h/Us3QAk6BoKqhux8QXB+cxqT5Z2sZzVdQKEsI4Oir2PNB8plmO6zMg5KfkagWRXfYxh44JbtSCZdDcP6fURPyuLeoA0tXsgcsggrxfyyewGTIBaH1Ho1JR4GqDEeEstG0InXYlT9BCWKI7VHPGs4PH2J2qO1B2n3z10KQ8DyD1ZZEWi6YeeA/IdZ/+bzy+zVvY1+pSzVdAaedHdhbx5UlXXRFMwNuoStVoMWRK++bPPqk7q4Su552d2Ani38fNcMOVK+1kI7VVXOXyFc6TIihxKoYqGjzfCCyws3iIjhsswoGXUiehrKDSXeMqGesadKxCwAdO8cVMJZrdH+E2qlJhjuTNSe6yrXN7hRLkOvtu+qG+TiHgvKdcRivXSEXJtUew+rsjA4p5PVHYkADxx17LkS5dp0yOLe3YZ5PIDczIXdCEnnaf+n8K1ADkDjpp1YJFRzt7J7iZfGFiFutVNqMn/0Am88U22uh+ly7y4eRIVUomOtYN5AuIKdlXF+/7r2bpba0rabx0fTQXwtpFNgp27AisoIvKypdeXmuHr4rim1GQrJ8FL/9kzkCEKgQRz2GMf54xQeHaaZQr0kuEQAXNiQQTtu+Zd4NKYug7Vcd9FBkHp2Ee3waltCEncc7u4v6RWm7IkWMiz911IW/UTkbs4UI/nmM36iAxVdfXn2zYkjA0alyCe02Lg6S8oVqWw8ndPZtj3m+HVrYeYaDtDALEmjbYLE3y4f6fpZ/RzMVj5l+qlhEjA8YSksngscZxcAqTcem6alXtvjgOKaE3ILzRUjF/ck4sa5w7AL8dQ1IlFWUojuwpyJYlqYgmj/A7Gaj5cbHVDDIuxKMJQ5FkDtKVdYBLnRvAIciLOyM7zc/D2lW2jJ10MCeVz0l5TMG76uoAMMxb3/gusoJfhVCAGZwth1uW/8CPWPhaFjppgek5Kf86eGr4qMycI8ARsQT0XFuzSa95Ymx3eGJedXhXMvP7sH3oJiLwDSsBC+wy897Adp3Ef2wlwzwK9/RGFewLRTMW+aYoqKXdhSfQlMFidd50oCu/P19rLNnjhyCIUVU1Uk0LwhnXFMe9lbs7EVSCR2crtJu65GTnQKskcAuFKlC0G5sjINXr83Q1LtazG6Fu9ECmtnfc2Hl8J1Y3OzfO6NdTG7f+m8E1duwP0hW+Ye8yUMB5JK7ZeGTBVHONzi9FD1cgpCls/DdFsioU+LVnGsCu2KaipNz34vg1EiThwobyKgEqiKOu/TjH0oIv9vaDKgTW0PhZluX8ONCC9injVYYgE0zFbb8axB1o14QvhfzghOIx+A4f9Pe6yXowOfIYEErCzZ/I0OgoXJYtsTQ/RmnDslP8MhUtTF1qSwm61zjQpRoB/d5kM9IrED55+TnFXvnnMccbxMResNGSKfpi7miGOawxB1B4FO6jodgI1FnvDgtxQqafXqkaQPHOVbA/PUAriI3fGqrx+n+bgmDygg1qb7H2nS1KcP23VgZ0F5AppG2JERMBS1j6sSUWul99N12LqsnnVjfX85cJ7U5PE3E3SdwK8TjIqbPxJ+ALUIwuC0du2mam6n/w3lKlb1w5Z7DZb0wknyV6eN3YtFSjQxFpUj9tpBGXMocvdATyNt50pm+dkzmtsnhGJEEJ8ytlye4X3jz088U3ei1SbTYeUsvHbSvfe3qJc1rl8GmYBTSIb5e9c1Q7NbvtRbZMcx+ACmDxV6u8xWhKmEE2SDam1xvbMdM8xdO2KEjHLEoweBGFGLOfqNNfA7nAKLxNoTRZDrZ/kO7CFQtmeX68R4+Ukz0DRHjRtObfkqJzanTkTfrjLRtUM7lRp2ZpXx4YHCXLh+HJaeJ5o1flTxAo7FRZLxy/l/daQNQof5rHAUpl3T9pOy9MAGYLG987fZkV7VS2q0AWM+5FM1ATxHPS6hJw+XqUmcNfPfp2qhCxt8E3zD5QtvLwAKKK3KUN+KwwPPkTOnbfKfo9jz8c++yaAuG+OETLHkXNBEykaqeFemQGLKLsAKwiW73OHUNpMvD+5o0tj28nHLiFrYmID4c0jsciyaw3gnxgS0OGUHQgIORtwKL04q5CjPnRejVVJT9FYz1WA1H+Bt8X1uaMk1jZjoGiwqqq2daqNrA+MLhejhnCkNeJssvlNHh7VVAZduF1Q0EMnaYWaCW2+afoPqKKYUFGWLVw6nS1BjgA8xpE8WOS1DWTA7pJyB3SK2Zu9pekeeatFEzYhhR4K3F1/UoCJRBmn040c1lKnv16+bJ0fTTNFjSNpgJkhvWqham8G+R6dhUTFK8ZBj18/8Qzen7c0fjsidaODfSE6ETbUU8WgFxyuPaTDkuhR5fIlADnqv6a4mJhWGUvTwuWzdgtdZJf0O5vS8GiKey09rGwdKDtBh0NhA3mzncRptdwszhoyUL47mVCL343irYkUDXuDVUoz7Efxxeu8p139TbDEbkgEf5gbc77LkZ655x5f6juEYwMRIVAt72is5c/UHvX61FDurvP3oYSHVFfpHe0z/3u6JEOrIG01wnEwFm9sdaVg9cFGEnBMEU9otPJUq5xS4/loCQnDnWiE+YAGYAdoAmoA4gCETf1ES0xikcEbZmJeO0r1cCrGQt+sX0j9dsPYWC/FGBFjqmA1rlkDrDx9W5kSvyPiujYjihI8/DTCMbMweoghWQP1s7k73eLxOx+1cIerBF5Jlg2A1DSv/qHJiktyrdK3gOBzBhHlFz+MKLJ4C6mRPjUDi8nOG9WaDXlm+D+EOmvYb0KqA9VML0z+aNLEt2sOhXA7BubqwlOnR/uT0Nqb3L80wGj4QbPDu8CdL0kRvocHqZIMBKkr2UB6Ems6X+v3RNXcrzH2sEl94pMagS5pEfSlmAE2/3U2DBamXsksyumwxOmtkuj0lRpuAGL2eG0kWnY/9Bgf8PYJfLEzZTu29ganHpjkXaQhvL6bmJW7VSL9BB+gqzmYMO6Bi1plolw/QDi8G+ZLS4yCuJDQ0PHZgK7IejlnlKwpCq6Fg8lkanNHb0g1fAvw84uJo7pZM3EFN9wPh4lcxwMoqXw39fMEYOZw5RmPNDtDRlf+GZw+l28wceDeEb996OocEYWXQMc2/0T1zijl207eHAnHci/GIADVJE0K6niCiJkzyuImyA82Irklo/dq8sAfVt7WNbHv0jXSR3H/kRuWt/0U5sP+5qM60D4nSycZjPcHqHrjkeqeM2iLw6jr70rjJ4nXyUcbe9k6jzJRQ0IkF8bAix3j3xY9Rgr2+vKC9daORXxXWahfDJge6AZrSf29WBVc9KNuJdeem9+7VH+2vvHWVIaqgeYZ1dLZdOWP7ZwkBeM68YZfx0OMgfFIiRaDoBdeuG8zsj2YoBfhLRvUVHYt0w/L2k8Wc31dbK5NcDePR80Vym3Z7jUiNRhdlmmp6xwupQRhcUQ66X8TuCilRskRoVqHxiaK9NwKuTVVDTCoNHct78Pmzu57KzqoIV+1cPgJ6gwF3sDfNj5yT31qQebyz7NRG73zPCV+AU8rR0BbRJw18wDH/3tnoUSitpblztknM7kLOr29zdDRtNqwAuFEvH38+yZ65yqUzRWNwfjXy7vnja2BS0CWgBVPwFXSce+1ieg+I7lw9OfDgveHpy1Ynh0c24kfoW/mnT/1QafhOkpXeNd//Wrymo5pSD/7e0ueg+E2AxoEZL/S2WFhQAxvnJ15h8lqH3cav8miCToRndCRpZXJe8tEZq4Dj74fFqR/pVNVIHakpTIybUr97Dci3RDqY5mIkiJQmD2s1Ap1qUVvbj56ijNxaD7tiEbsvGVXYFrLiq94OmsrP7puLMI+GBqeZAJ0vbOgvk5pKZaTyTBj8gJJ+EQT2DhWno2YWfpZypBo445/HLn1HU6MXdaylj7ECP5ibIDx+aeKidQBvmaC8Jol4JtIKZL1SreALEPFPOV3SRAp7HE4tNTc1hyhB/aPqwOQYU7mn496EJsfmewB2doEXfU4KMWMMOQeEvEfLG9yX/Vjc4Q/nA9eU2dxe10fd+Tdl/7RhQPRXX2tnsWzevKDQiEHHxV4FLG0X0TTZ57A/d7/1kVtia68Hxn4DzvMxyy0G2bUsITHgSiv4YGWeYcaamQBnPuIRh+msWDN1MAVrJN6nakeW3Ku+uxhqKar3vN/MjN7bcJyfKjAAMSzl37jrPadzQ9rXToO0YyvfxzbLdqt32/FnxOD96SuH5qEJCw2yfcVLRfYIw1IemvzbWhemoHNMbMm7Mu9FAvQtoXkOCqPhLWwOWV5kBkBRgbaoOIZ4+ajpGK+tRYx4M3a7HVA7DbLMEJBFgt36EnUvySYjlFAo5Cs6iho+inzFZaNqqDR8/zR2cdclh8QknTmSqoHuOjcnSJCyyZ1DyklF0r49oWWoOVS8oRZRr6mLL4MHnBrKMYEDzmeXs/DNAVH1g+mW0ADk1hb0ZOp8Pa7cFdiHHhclDvde26NWJrD7JYz/ReeTDVuZvX/6/sgBbSW48mxI0c/8RS1WfiR0JT/CbDSMqa4HLVXjIbU0MQVpiju05UMHmLYrddaHskTdMM7X3e30ae5yHcYzG96z0ZaBt5odxcozgqJb9LgclYWKysy1jn2LdiC4lShy1RUxf0usdjMLlHL62V0yNRDgFJ6ekl4qERpcAYASj/9GG/y7yx06MhlzUyD7ZWODu5/ObO0i2dVQMO2IUXdJu6/rbmyvOezDQWyubvh3BpA+9bHPEAtdZonkGGbcwTxpbY5x0WAiBUSMCXrtKxYJmKA+w1S75RZq/HhvSrOUk0cAFCyBpoHkHVuI+7SVhv7ZlxMttxkUvU5QbprmVskAulG4+Tt7orC6Q+ZSqD+Dt1vjBU9yMdr1/9ht7ooJYMMBOMbbl10CSCOzc/rFZTCkoECGxosplY0ekrPKyucBdiKj9fQ9DF1mL58zPRRfIWUXv/hBe2H/YRuOQhALn53aFhmClxPI3Hj4Z8l0i5cgE0bdBU7Cg5vmDKcbJC6SeFbWyuZFwdeFpFyJDNL68uJCbKaVXOSlpkItJ8Yo8bFPJjR06SUYFrM1IN8T4khfmapzwVLCKYP60S69TkO4GSHjiLfYTB5nJKst5o80hh4Y8Es3oST6E9JTae0sFAPebjmaeJqBGfGQDNoBYe+tSrvZFoa/tj93HU0M+RfOI0c9n3DSMRWHQ8qdaK8iasIJV1hObQtvoZSD4oQaS5vDQnVCuCCD4xm67oOrrSxFebpkRIr98LETytSfiJnGAMsyPhnpRakqXjKANL+/l30cdtxiFu0peEkamZOgoZkIVZLOKlR19pGNxRXGewxSzBCg5X2uLjBSYNTTLJcxcKrJfoeS7FXjfu4YUi6IvP4/o8sTDfA+ba2oNEKESUlmuVBD8ybe6NJ33zBGarS+Ig4QhpPsSVIq0eJw8CtGG8O2E5jJJqpFFNBxxF/pt+t9OPzvvniy+DX6/Yqz4oX4qPjWuPDlKwEzBg36snW1KadtazUwk+wY0vYUh1nTeKWvKs9ZBdN07R+jqt7eLmqwMVkn29adebQOS9On5b3Bnl2ftdON2FnQO2G2E9KdDV2+uEc74rb5FilYFOa2dA5CF07bzqdDGjJlYDhy4/rikiDmsf8eY3546ZKd/epuvVve+9NkFJmY408QpnpJ5xCc5yoeuEEDb8kpgLyL/AfD+7kCYUJ0hKHzFEiYfmxHwMsgau3FayECnUWG1hm6xB8OMs9qp98WIjiISjKs8slgQ+QVIy8hTFrlOuvq5SPI1FkO4xhQbC27rHxBAuZw0udgLKx60ea3sxzStFXn7coDr6usoP9CAI057ouXH90tF/YkaTchYNOMDhgB6ssX0MwoMsfH8KDjCkoqdwrRKPnAXIAACChcGItfS+7V6+B5W/tZm5FAp/yuwezYZiHwMbaPXDGY/CCX7MXbwqv9IiUSDOPCINpp9/c4Mvzxml9BVtzOfWvtsjAq2cPgJed/KgxqdCkz0er8aYaDWFBUpTv5T/5v/+/RybXp53kD1cUiUS1xQAgYWrpwXYCvtNOt55Y2xkadrI8a/+YtsNbSqd6fxSny70HK89KJbLq0FlarHJixyatW2X6XT241XNU7+/UzM2iKimoR5njGALPPUnlNnWYbFNs4LyobnFTEBCVKyhEsN3AArel7JeI4tTal2d4L8gW85OL+UC3EEsRRdtHgj0ShmfMd+KC/6C+aPzQ7b6X8GZO801zfyvzeJIemhr8HuZiT4fAbR+Bz8J8haR56XPsHv6nBWKqJwou4NErP1s0Z9/fJeXq3yQfvC40/ROnu5Ax4iquX+0dGvtl3Hd+x9OozdSLvwBE0lKCMq/jC9mz5qp9n2vE9xYFqW09AcrYKKECd/eKwYhadb/kAFZAqwU4WDAviF06n/d2DM9Ewg9dUtQD1FrWI1hlchJyJ+2a/koS0fHmozYzrkRrSWizAFIVK+6FP7czC99whM1tKqgOtAicT94p30nRKYeoI0ApDg9Ngk6bcTmMWFNBL3hSL2nzEfiJWwQza2cIkOGUvg+V5HD8AxtnSj71uVL+OAiz8b1z9Q412jebvknnWMn2j0nlWrxQoXPyiposuwXcudsmf+aTOWlr5VyucMXJmvj7xmYavGurQxq4sUUmUC2iwWxSqjdClPn/q13SAxBdqp4Lmtsrs/+eAyuKHbb6qFfZMvfsEA3hYlTcavw+us2YomWsfy8F3f3Rur+f50WfLXNqjp0ZWJwaymvY+VCjIM58QCsN5z/ugHFNfR64tF96CMlqcbTR6XSBxOPWYXJJMsCMtRT3rJQ6sc1uL5bS42OJ7GFM0F6f11fv9Mq3Z9ufcS52PSv4VlQglt4orePn4ciZJPFr/ENpsSm7Vl7no7Gq/5lN2xmrxT4GqjQqUlqOYOy308x+OaV0/C+4Z80sY29OJRK7crLyFC78kmsBsvGDzZmcvlXURscj9T7xGO+Xy/n/43FlRIpFeCYcG0WtyxS0iBvmR4fTEEmlioYQfXcVPgkHH6AeoU3wmEY/2WhHegxt1pLAD/3CQAset+8PkbM3OAlU1/tIvmBxGsYkZY8o7mGzP8RFv0KMMQAOMtNOkd+rMSjP6mGtJsEHdkx0FgLzNvJPtMAz8w4qWqcbNCyRwQeG9QA5MhiewPMkka+X2Qq8n4x6s38lnKE+ipOnSi2Jo0UrLJzo+WTxCGbpwfHOB/fI+cMNsa6jsE+u1vbNSIIhsZ8H3r/TcZRBjwrvZEFGcS/00LLm9lZ70zH3CUWq0JiEdA1BBhRihycpbRxz/oVBQ8YLLsJ4YDXaCaU/kvS8rX8fASyXSdAnYf40ETTa22lFqP5YO+xSH2V7rENaRnf7vgl+WsZhUO8NYWTrjDLacKxpA2uM/S/qM9+02UmvEjhTk0AGcRoFuf7pg3k7U5BN10aS5Mzf/M8Fs6uuezZEOOViQSfl7KBDorLZzjMkNTlqThPJ3GgEFd09Y/4ZvaXRx53SMchhjYigPIHte2V2yFX//zUe6Q88FZ7wA+hFgw1R6ytIQ1Lm9gs06AIXw+jXKRFDLMT+pC3tNOFksSZEU8Hi8mc5jUQ0JassW2gFZm75VDMDrytNtP44GN1WJdN9Rube2hc74zOb/bt9bZPwm474WRk8+a7WD7ucee3a+ec5UIgS7XfpPPtRg+X4evtjKonsYAP8nXu5X6o7pg21cUr1BuslHVBq+W9HSRCmjLxyD6Yddt5NpaMxHHAMAzpMi66dOr9cBCrF/FESHAvP/PlpR24E6JSoPfPYikgA06UrRvH0HVk1HYVdLF1ne6YN3hykaRyq7Y6CznCWFvQ0Ij0Qh//eedu7wVlBuO/maBTlWp9reV+nlvabnr6XrOmI1LKc976oqbiMfnXrt6gPTKhxuOVIpubjW32kwQfS8HECvE3JftkRN1rY2AVsEmu7FNIoR0s+Ytld+teWjhpH44/TowTmrnwiTF2P1vkHKiSiE2uFuiDwbcRHiTDZUz/ZtlOiby7opzr+slAR9Qx+txtmtyVuW0+3LoMjRVP+u2dBgeG4XZJrE7LkWpKDsKraHO9IXm+8F7jvMpigV5rFxu9FvJgKlyXTkQZWYCwHHf06cJ4FWjGOuC0s5ljW0HUUaOcAJTPrjNpf7pZyO36od2+Y7Yj7EDvheqvAF8LdBi5FveIVPiV00U+FJ9g08Kt4wNe6omnn76gPWtwRSrnIoMVtNv0eBUGjykMkGOjGR5LT2JRM0JtDWeBs9hon9RyeaAaEB53eX3JbnMv0DsNEx9qfrsnjjRfclYimPBimHgTihGOqdEOTHP6enI7jTwuISvDgWrAI4XADpSyn9jccLQQUivS/Id/a6S9szopsQXkNIWZZd+sRMvkoYdjATdBLTeQ+ccrN0oKXy2C9tMEViM5dEivIh+Y7Afs2OTGRr1pg7v095SWPVvp+sgw322X8HiCJKWZouANH7sMiMh2yj8JTWgtqR+Zl/KCQrjK9x6VbAgT7S6ib+bexmr19boMoYr+xb8lCVj5EItQ1B9SxkgrIHRhI2SKcRnyU61rAXUQw3O8fD2NtXEemoVXpnzmVYAIxktDk9fIpWpKM/IakoVBIiiKzrk/bYHbAbDiSHh8Fe+ClG2OgVhT1XLv0kq7TS29GUCsiSCohz0dEKH2QbYKy56akge4yvrSa/2a/RGams4STY3hVxLhbk+Um1X+eFbZVOv/ui39C0ishxUDr3wRDCHhJg9CKgfUDwpygcr8oMY5C9D+PU38IpmFi5ADSpJEpinZAnE5NMEWb2dN6wORFzlRWEWXEq/Ec1B93pwLWXjARNj2CzA8jLMeVdKrGZPhh61ctV4TKtQ3TTbbgbHV6lit9ug5VwEpKZ3C+ftlzHDMvoRg/EVes+HLbbWOUMPVK3U6ocSg5f87jTAAmYosBGXhyRJeFsdpe4XvWWmLmgjnhZd6lchxKh6MYJwFQGOzdhlJ6feuGM2yvu0TjkBEUJqh27HMF4dN25Yesyw0rf0Rl3tVMdZEgbZYSauNoDNVOMCi3ALp04lM/NqNFHZQdyUKEOJWOHU8MEJJ4qnpCyC5JKCwQO8aWOfu8ddFvs7XCCdDCVyyt9UR/UUkKeJtgy0LW+lqwHP6Fxa+ja7Uk92bA97xWQ8zQD8Lk5bWbeMB8A8oqGAf05IQsKpkauMntMqGPIDxLXmgN69mIAk8kyC9tTqRNgXq1+dvPmYd+vp5gj9Y3fDTpevm7qn8/YHtnCjPjLuxHG3JJSJVVuHNJCpFeUUaT8b4KZySJcIeFtHnAth/voho3lqV/KMcrXwzNvB7QJTz8mwluBgHhQ5VN+iCGSFjzf3EYhvceggnWnfNjmpjuuPQX/cnmVgQEND4BB1EFXOsNmYYn4drTi5Cawuoeabu+KGBc0juYQZK3aFMeBtW9i3QAzsaxMeFXA5sUGcQf+JzvzsgHeFZZFtiTXJwK1+Nx/YniICRSAwJ11q2ZBrPGsi5hprUdKtDUbXBJ2RJxYupAYklKti+pulyxOgamTHJ5kGetrTIpPZthzkwRZGJ+1t7DlGIOKyvuirx5GVsRGc492OYWevgz1Ph/mKnRo029KY8KlKK/i1UXRQczH7BmdKAFPyMd8lRFBiJyq2OGeU9d6UngiSGVZhDkj5ufMpHM/YCbpgfwjj8MRBvU7DHA/0KqYkUuouxX8CFWLZsPkKrP7esUZaddSxKkQbIjXf7CF+1cryK7vWkdjur2p9i7CRcYF5sAc64ehUJY2iN7DIVRLDfoquxNcXp0nIuA3OZohobYkvTIn9b6QMnZRK8h4mo/1GfXFNlsU22sLGiTggO6OwW4Q38rrBsBbjTk/2kJrHKd6n87YXTUKqH2+syZW9yXXS/Qicfh9+PT+cS0IEQSnV8w02G1FNjhkpUPrA2iM4U23XRg3KM0QlSKsbYuhPjegPVSIkEFbppZGinRakIla/tb8lkAHXBsZ3Yac2kcyZvROMEF18bRLt7baqW9n6QVR3eco5zoHR9oKHFkh2YMVbPYw9AfiYMoXT12fRnpuL7qhNIOxd9pCpwodGTeISr8FXLjqSBNMk9V2EwjwmVJBV2Hewohsc4ANxfhky46W/fJ7JIY9xq6MOxWcMSI0SNcST8eWd7fhoIR26wWyC26srgZXBxEa4uivkmAbeTxk46F8qMUm8ciQmxmuyRhV1lEIvNlN26LW9jtu5+vsXcb8jFzy6aj0OtVZbU45Jr1QyXMWrf9nP15I2wddZkBEfjI90eWR+G9e6dPPzRxNpU3zbCqsojlstbtqLna9uFO6f2ScgogN5Pppmbe4uAzxrMynZNuX7FLG5lv/FZ2+VMXGJQTsLbuVlxQfXGZ06Gv0bBvnS+sxHH1iowx1xIMOWxFInCpNVO5f72CU/L6J79OCI76PKJnoSICO6FdoMnfudxH3aLtlQNLUeQuLlASL0lFxGYKRNsx9TTQajHD9pTdPkWNJxeYRM+n1mXAezBdqUvIQeFeUWEvPXxKy5yoIpNhZZAAiaXeIds4eAhj/As/moVh1rwLXiw826GUAUEHcdTwSTrRtzeLiu2KOqmcdBPOW4eycY214koeGtl0YyQog5pFgFxAPrbrw8knmhQ54od87iwA5NWKddGF/eEVy6Ti5wMlkP5uO0fUReoEOW49A9byfokC7uJ5WdRukagAA79h4DBzCwLrWlhkx+37UA14bWABvCapDpJDh+hBMtuKB52ieocLdB9O5LJIfYs9tDhRf7/xkaUDtr+DIBQvzBiFMnSdSzUmhBqdsD6y7TAAjhQTIuGNjUKTCxc5/mMzErQWnMWY0cuIQe0Y/eapRODADnFv3Eaf/RYNZm3ZW4U9zWYk/7eQDGTmXTp4c6NuxKIhNP89hTA7qrHWRvLjd2uHA1ZBE8emEN0fZkLAUhSVZKGrezbAAl1fVc5bIR+0GL9M7PTfyBR5X1P9bUX0UXlJeWbZ8IufzqIO6zOwqAdQGYcaK1LDZFijuN2geM3npqOV8J29y9FmuDQ+YHOSs8RbRsbl2JnReefGYzjMDoUvEkh54nn0mhSpTwGaoXzjP81CrkLaJN6pM6O9drGytLJrNTM/uDth2cBeNR8UVkX89VDX0sy/7ke0gSkuSpMHnCKIt4s8OeKI9GaZJf2pQMNj1HHfR1lqqRkJWFrTSq/BUnOTeiSjaguL6gDG4Sh3il7tTDiL99qd1eqlyuDY/SmGGPrXDJ0v6JOWEF6FWZGst8Os94zdwCMgJ9bzrpn2KEA9Zixds/nilWYqzXw57cH1EM/hyElg7lyaLFV42MbwJUmDqrzUuvJcuXvOqkBotV3JOFPlAL4PcVkik2khKD+fE5+DEArXjeZy8tXReudMf1mptAomRwtia3aYJsto6WzndDC+pwTC7PM0zEL76RwqocIF1zRmmMTv96jBL80yHm7ubg9quJBETQrApnhItPrll9exVIJSNvVoEiCpCTy97ynDLQbAXcqAFR4M1n4RBhkIndtqTJgDCepXO5ZURtzzdAvUN7dpuYwDHfbhx0U5aIO3v7Z+RsvzeGWjwf67hlC54QFxfNkVym56bXlISAaQfzKSDDZLZpce0v8Up6WkUuVEkv+RZfrQF4W26TdBYM5qHYprLRcMibKmWXLGZIJ4Qm/yL7kjqqgFc80CFY2RLSNsZjHwTfPSkciDpruSXNyP+lOvdXcME12GCYMbR1R0SSt+z0P/9odXDffb6ra05v49ry9EKOPi5Kbh0LWp3Eiczj2qcUBtA9KRUcMMSYSuGxXoRaceojPmu0WApwNjEO8m4bs0v0s/NLjgM0+cBvdbm1YDFWCsmmUcGjd2Oh5HeEAMglaHrxmCShFgzW9uujuRQifWXuwcT7edS9OSecBeeuGFjp8/kDqePNDERph3P2zcoT6b9QNS7HYcCYDXJnuFalFB5TJcchbv2Z+AUrq23T1cplLXViGmQPsdiFRhLZ7tZZNAZVHv7FyklBuRB6+SfSG0gpYuZN5vFUnJ467wpfSpn/jX30EPCDvXJiXTRqbg/O/Z/XL67xbYknerwQFIWEE1sysRhkbufeSN0mOUbBHtv1aet7xBH1Kn2oOZ4gsy7b4ShzYrzk8htggzOn/Uit4hP1OWkY4hrPFtdcBKqAUfwbt0EU6dMgYRgnV8FTmka0Jh8pj6CA/d5laugicca6r0S3LT3TrW0YHuonWHAQxD7WIRUK4OnUCWj+VGbMZZUIbfJPo2P0pM24IpakWox4YCKEW6szTLZGZs+VPLi1axV0UDqbz/DFcYuOXa1uXl58F+Cs22Pfq8Tg06e8z1l8Gc7sEN/mz0bXTy4dl6nvhmLTUe76pmM08CxVp7bxlVkqQaQUAQ13yJ508k94PS5WHeNVQP3AUCM/wzaS49DQvfgpdtAWW1ezfGE/OcQFYk1qlEpy7CT8DMG52d5y3oFv4rO9t6ntWG7DxkHH9qCdV47aLAv8uRa/+G6Nsi6JWa/GftEI2taoETQvF962aoephgHjp8o58VPSRiaPxlCPYkZBAB/HPDFGJUwLzJTO/Rx6Hqi/Qw5zq0LNj8MtHn1pCUIbei74LwT1OTzqGXhFG63XBgzySIjkz59sOZrcBNzUJH/6WggWKqd1CVtkmrYsBa7SWuO28MWTYCePieeMKXVUeitH95ChMwjItmYfrlWEdelsHZjZBQdm7yc3LT55ekDwYyNs51DcuAVsJSLZznz/14jdpaER2BZbNiORKzbdeV46mQzIFSED5hNo5aaq7wYttWzfsnXD5B64i2SJmHF2hQnLboTCDaLjS3sfRLj9fK32rF/uq6/fXZipcpyBgF1CLTfmrEBpxJgNb3+WFig7krmgYHBI0aIQ3S/q27Rs5QwirdB3Iu5ZjZAEnmwboom+dV03qqYInFlNMgGn5YvimR0wbS/pPLaxBtCViZ9V5SX1vWkGifctpo4n25uG5QW5Ho6C9XJFkp5BeW/L6aSTKqTqmy4SAPqfT77cHHHRKJcAIm67vfOl45nrYMpkHZYGAW97Mx7nq7kINcXxAa0e5L34/fSYpluxEcYbypnSnV/cKpZmbhvItSyThoINdjXN1Kqr+zB1mxGA5PhvtUNAos51Orw5QZCoMdVBeiFk9UYa0mMGmpFbV8UBS1STJt6AbEvSruaplvy0X4CUatbM9GEezJQstLb6KGbRhJ0QiUIP3YSjnSrARVV3twbNwugqUfmGIbDsHe6JF63NcEciPWo45xVf8USGuClgawD1fnkdx+BELu1A/R/k82Y1xJXeTF8zFB0VR9J7x3A+cj/EGUUHoPgrdDxTEQxawIocm4JST2QXwiWL/AnpSvd1Gnb42q1hDn/dixKT/NDsQ/ycHJV9+HdnOXj/3yldPLkh04sgLFJWWYV9c7tNehd/IHjboXRB5v6KQlhVKsHv/UBALkS9iXWWplHOem9C6udEN31VFDpmWpjs6xYzazSh7fpoe7hBltwub2Gesz4Fl2Wq81MXOtXGkHRxLyDfsOzlH1ahyfe5mQgjmGxfihnqYNaHwcoFghKYJLxEool25R4BhdtGffjwSLHdk5ASgf3DsnA+2wVHEpY9RlGxR33wawQ8S8ZXoRxHXwICC4ySszK0VGz2f45Kj/M1IFllLW7CUqZagSZkTgMbvNMhN4cSJrOrqyKpZkYTiIquQNGQLmxjs77T7RDtJBRbdSVKrCYVKAHNuBI3J/bs3mjc1xRm34gwRUvxloQ0nkHyBmGMP+GY88g9XtACuMLlYbzRfTwovqpSnvjqafvay50qDG7i49OdkxzC3iynnph5XoQ4vHmtRY2RSSHIoMy6yrOBypDPtR/JjHTyvL6up+iozjZilDTjpBaPRA3ZvLmXNgrIk7NVP9wuLFfIxO4bJUe3wE8jE4OZiBmxF3V8IEpdO2dNbrqwm63IoWbwUILSEY1dWWknSZHI45kmT5o4F9cUEolMTtbg8mJH0FMdelUxiWYC5FO9243lsEOqeH/dhzdmsNJFXoDiSAEBtm1n/qVyTFc51R5Ze0YI3idkcFaE3FkmzyQiWFHzSHeDDMUE2RLQkkFdXLTlLVJxAcazdyyAWW1XxmVIWOene0W/bhbk3hghMtJmIITrbbsjWVHfYn7jg6hVkHS8nGDIvtiyHR03dy9AZvwQX2BQVh0Cvaoh3AB+eAdRoHHPUhlveU4ZZBd63LEiGZO/v9E0Zbc1eHBSDwemf70gAU4/0OUb8t1Z+NGxPehJfXec9jdzN6pyP83lkkNYF+ZXzvJETXLIwWyCr2gWwLNOa40vg/7U2TQgiy8yIfb+1Ce+m26VcXlCich3+AmktTl2RpoLhj8/Np8IfuMpb2VqaQjqLaZh2PEx2pzwen+j9TtUtRxXCb9K9dNHM28zDvxfv0Jxi+BeZZTQWn9m8/WpTLe2gnIaITWyJa3R+dCxegUc4WhTSg1gsKS1NvqbRgGhRqmFVD7U1g7UHuXhksRDgwC3gevLct27O21eM6a+CLk+B5Z6pwfczzKGkP7zDHICmL/hZm9lzgD6U1LOoOFVc534eNl7Ne7t5iq65VS9Kuu7Fi7qUFSoQ4UitCL9Ant8x7nkNX0SZTPf59IyVrLGGbOSYarTlnf4naTtLFKwVkDe2QMhkpNqjhObBzyjredLqSEsOjWX2gC/ye0A3YCewZc9n+Qz7qdpPoiT0rC8LWsySjzQa/ZzsXav8XuGHOZ47s5LTvZ5IG2/eJdhcJUUSvS9o3XwMCS3eRJ/S0X+k0DLCmkQoQFCBLUDa1LPq60KdS5sWDeTJN4aLz+B/vcH8GgkolSqR2ozlOUuvGfL/L1yJB5EX57/XPBjd5Bgb+VOGMdhM2PHW4raGruWmitDnAJGokkqVUED+WclgOJ9Wv5Rsd4I4gFp8vyo+1gl7eoSeOyelUhdX8QG3V2Xzc1ClH6dfZapAnKCsg5RDdjWuaWUC9zlenaJdVwrE3IZmRIitkoeYfwAGY3g/h0z17NZhgYMtMB8CusvZ3SLrkp77Rm9ekZ4kK6axmCiddi62ijN2O6EzHvNPU+jjjZY6sJrTN7KyakmaNlhD5/er0FVBidYBp1dHFwoy4iuTtOvplZgxrv99xEwPH1CPUeaOtQ9qbf6UkNOp8LPmfpSw4vBTVZ4Lsh88pMv2VivkJOxUQFSZng67VHFK8rKgCFS10PO4Z4pAy49i7XNCvgg7b0RStC/Y30FY47VEktGn6k/1JwrspfRx8gzuzYiDrE+yVqLeRijLoXGWJ/91AnYMnH5lER6j49w5ABAzF6QkH6ZK/3Fm2IOJ9pnOWe4Vjxt2/kMN83ODBBMvilhUNcnIH7lrz1A5JAYzTfnD85xH5cgkBTjAUmazjYgC8XAhzhdXsMVTvh8FClSBAWlcorDZhlUWr+5fjnqH4kEuESFNI+M6WMIA8XFUwJ7CqSRpB+OtwTDahdq0fr704bygE+S4VPi+Gid3Q6Bz0Fj8vV6YwOZGHQc5lvoA3eFiFB0OX9xYnUoGxzyYSH7+ikGDYuxTsIakciTQAZk6mhEN5mpo1pFpwtw9KxsJiWEV1jhoMXtScyVz/MpgO2zrHHdo2BPlKPrFYkCjdU3swGKI1nmJCQ4sSpgW9ioJxnId2h+NRlU+YNMEfaqa/GndkB558E6I/qquJqkWSm7NMMnZSmw1eZY2tofMFAjtomkedYEvNw4MEYiPOS0VJnt4+eDX389ZMjCndAJEWgaiBMD9WYqOwPlZM9R/vBP4Zzkwct4tKE/Ar+rs0zRbqTpwedj8Z6eSCur7vxyCrC2lO4Hv7LyiqgQzJiWJKq9zQUVKRTX7q1oiRPuFg5/Q+uswMMYqpbGK4QmF4LZXRvf1fYlIKnOH0fuB8AgO7PtuQ8YfyLsJSueN98I4hgmXIM/kO++5kVv5NwjN8kSbwWUlZMzVl5424QlJvJnwp1abdl9bSaLLc85f/T94IhZR7BCgAOXtb69+9yOwLUsFjEun/WzjHLNyDpHRdcQhm+5jzKbU25ErIWOmKI6yEMN/gZAFuJ5obY+fcvvv4EKnUrgvKBbqjlXJXGJAHsg+gRXZ01M22fCkxD7DM5Zp2nZs9YK8d9tUNtWtr+FQJDzvVS2dAs4nD4zNrMhx94YG/snObSwhVeY4HcGTWl4Hjpajt+EjwOjuh7pWXEuFksZKziINtvGji0AgLFEAeeRuQaqU4V8gFXBJkYNV73dJBI55izWTXTZsnvh1iZ3kt0rgpHWRP6RDxzkgvua5ZqgVJIwihDxjxpsc/9wu0ZtNLWdE+GamB+tohevnA06w96hd+5as3/5NWzZNatAFP7mlV4repiHAxU2SSVww/zXaR0h/p4+s4c5L6bdArNX4YmoptbT5mYIVAIguoOdMScUsncsz7vkCTQngo7XEMlVDYwHaHgFn4EIsi1KiyltNQtXyryP5UH0crEXH1yR3P6b1cDv75d1J/a6DqI3CX+mH6F26t3C+LsE/eojBBVz6VzQal3AYgi/ATQ1FGJ3nmkwKsxRL9b/9KKjxJ9CLzo/EBDfwHzt8g5n8xcIObWqfbt9YBZXtEKSVmKHE2yGtjICgqYEbawY28l0T7+eAh6zFcNwalmHxJK5xey8D4TqQ7nD0rWU9YPG35CZdPHpdzNyb8n6N8uCTZqviCGG4eeAXiADq8NMfIUtwf3uUAaeCKSj6Wb+HBuU/vCGBuqjk/CWyoVW/beAPVigPh1Ik7ei8xcw8MXZzzafet/DYwcHZVuccv+TchDk94qFsmm+gQqdqPoeD+1uZa5p1vzwTW7bQ6oLpcdlPxkcbzXQtCq/X/u9UUwZzoh9W+FWdAPi/WzHEaUxC7WmhMcZJ3Yk8Izb5s/x9UQZ8QcfGMQk/dv0Pp4arlLBUYtuCXBdFCpNxpomjl4qvZZQ6jEUG+c7GzIgp3tTcRt9eX1+8+b+SLohmUoUUpPRv/HDYa39YseDwAAl59OOvcH1yl6AiKmYrewkbBm5qlZBRhpqDUtbb+xWVqdfIRlf2kR7b8fQ4Z98xxoZOdIwrauHQMKUY92ls5GsRx8rTjtIHppBZfLaepDERxPF554+O3kDBpJD8bM/UO3T9Xs4NOjI5Y7l9Udw+gXmIRIhTEcQovzFFgeYxoRVgdg7u0XVHiTG8zY+3vHWp3dfG5DZvi1k+fTFt3DIBaVrHOMM/gEHG6UIBAgEvOeX2Ovia/PhsIF5gm7Xbae94DzS+OLj6T9f455/wpLKHytXfMkEm6PSbddJplJjfkwnnuyC6JzapCFcTZZUczT2AYjHhWgTKdzoQYP8DpGuhjcBbm0yO26clyOeO0TDS//m36hKCd6pBFomwWgBsCy3y0H08WRaPCqQOm4ntq2IjzCCDKsryxzjw+jQkYak6FLXSx9ajHpOIt1wCB0tDuIbnEG8ASdjac2HQDfMyiGF4+sTEfs86OueRoG/RvIwOssOM8yWwMudxqZylQdCgxIjUmFp2cWUx0kEj9zBNnXBaE0z87DTGuXMqS3290brZr1jGLqW9/hy7PYZFN24Ia3+ZwkN5wBBlyjGabjfyS4EQ4gHzxAH8fVcIXV6hSu8RcW/5krl+qFD20ey7VlHn9XFbOU78VYgGZAFrbnpjp0et1IN9iLqUlf3QjeL5/0DLzeEz1MVTsIgvZ5DecJ8Z5MSmhzw7v/rvciS4C8VaeZZ9vCnotkoA0/zqanVgDRRZMX6g1uQx3zWft+uv+GIAqVpj5uiOyQogoq9/bQIBAPWhw/d/kZ7/5z55/LfaivXr7yAGJvjg3BQYiMvnl2xrR9aZC6K54s/GjzyZ+ogZXp79DeCuFJ5NYA8KSVSCOhIJ2rYtiGp6DORNvpHo3JYOIq0DHmR5NVz26K1SNhpVi7ds2lME7FOvyngdwgLmp7XDLeMEMmnj/SqsPrt0iojpfzwuEoQMtp9wAVxoDZnmHUs2wtFjl3pjM2MEK4HKHGOahosqj68h6rngwvKCL8Pi7GRzJjo7VjT2/d9TytIyXd9hODkUISuCvUv+WLkcvlQAeUzSqvtoiKq9mNXNYGzv8nP51KKWgEzf7lhKXtSU/+qsZTAAmJhy2BzkTs0QdLJZdKZbr4CzjugOfvnDFmWexvHL3Yc+sXgQosXeQOWXDmwEB9brZ4gnVhog4Uc2mNDMMF8xHBItm4zb0pHv4SWLekfftjPO2W0MUfs0Qy290qq3u/NOj4S3Jfv/N7XNBgoqdAecvGKFtsfivT79YyhD8rk6U7OqkPaSOLwR4p43aCzA+o+MVOn+X/TrMwnm5Wc+doqAjrUtkdje8mjHr125sruy/EDnp7uDrDpabbCeenXbqQc1Exfyv5+ph3YZp0dSoTYDseomsxpTlM7x2IWIa08NkJHEOAxhwBFDTrAkB9n+Og+08d9/y6p2TV5PbjGU9f4CTLserR5RFd1h/pc3KJrWa+jjmEa8Rn+Kud9YjoL9p2sm5w8e/bo9Y+kGvJcJxXdGLdwPgi8lZirYtwBh9AhuEbHDr9RY63nimM24SktruJfKtfz6FH7/SCFKwR05eHWhtYg02qXbJ2gPfiGN0rnQrp9iUbSV7ZmKeLRVocWMcP9nHz3T4q+PdzMF9TDKoeDH1A5BOXV6g1OPXnD6w+o+xJCVhpWM68M3Qk7DB6C7k9WQW6ufz73/73bSVRwZ+5IgpYn2XA+kF453B4p8jk4YOLZYlMWDHboG+qnjIJ6HkaLG8d4arrcgm8J+tdYfggqg9sN4ZfndbXZy9h7Glr9UdSGKpAwpejNFffZAxHmLCJl6hOGK6550T/hCzDW875oJ5Wl/dd4SL7a4guVUJm2VbVagRVT8xzNktVAZpGnu2V4gJo4kr94CN1C5YriuRvmMevoI+4BV4bWj/3LdiJG+0bziyS7v2fVtrDR6J9ve9uvkK0M/L/jHKuFK4f/Kqxi79EpR9fWf/MTU57R5v/MnPOsOuUDG9jaNhTaV/rSvYJdgG4ULH+mb83v0nIUXjPfIO/BY4ZeM5dl5TAhqn+pupl30TqR8ZZfC7gKjPeH7sHK2mPcXZTWfb5R2YZizWfrjxPiuixSCl7yRq6MP0esfymbZxJMcW31pmdgijQmaP3+6aOw+305U0h765qDH2/PtH3suxYwfEDsx1B7jfCF8n5D5+mt5bB7Amww7IDRmsVcBg9e/GcZQGH2u2wynq6SfcEAytiKkW0jhNVBiLn/VEWOqPakadXV0X/TAlc+G6esoFWUQpJXQ7Yw3yJ4ZC9Q8wVJyiKyxwMnTnUjnPLD+sMPXZ5lCi+nl9Bbx+hdUUjQ5FWZuf6Glk5yumUi14/qo3tNixj/rlKPS1ddwBkc3xEAos8r9QWxbxUUnPAaXmFArKFyIcmsYF5PiY1R9Pq2DIa++yyq9I+xk38pDQgUvlUlgNhTz6t6lxHAspIJzMAWNwCDqs8s1pvCbDr6X6YtKCg7RPb+yEyEj2bfDqct1rLjiquHNDTdHxcn8KOnNuSLn6zQ2qCnDimAJPwVhRitl3YmuKCpzzy4fLzn+aiF6YZOuqG7MmQfSrQuDi6RRtCLUJ8TE8mshmUTyQTulAe1y7ndbEPQ8ZtN/brCE0IOOoFH0kSV50KynoZtcB5YIFVdvyI9rizt97tdpodmJgHKIsDDn7g33yYLNTRTVYtZEQjJneXT5gtW0HPWvfv4v3FSa+Sea+GAXxQCLFNLczA2lUuI3qyLLlZt5iXwANrxG7fdsvFw+V2Zp1lPqMvpnutidwwvNKRVOrGP8FfY0GpX4wYCdsTthEyx6++ATS27m644vMRAnO2w7TS5UFtEws5pFtNwUeiY5eqrgn4SNBTFucCPc3+GmNcmJF/mDFYbHC3bUE8EZf2MxrpRIwidUUL+TSUItYC6CsHTiUFMApy+ZBpKXKdL6fJgOpQRvunTZONSwImhJpFrWkpR3o/1Pr4XLu1P0cZAnu2sorNnGCdr/MiXZdvgeCZaSq5HwYvfni+9Of1hBbWeUrRvMcxMYiJ1XbD+636Ue3mA+F7Pl/hvIgGAJx848NS7JeOXE4k2DtVJAZP4JjO1TaX2xfN7d9nhXb0ClIoS8WYcqzalH7L3z1aay9vAueLo06OYbSqu2bYdGyrgEzUcNEkzd/TxPfb8UQkf7TnqwY61jQXz1jSQiQGaT0eU1sy4jdJRvjeM+ktMo9Pi7kQG2oQByJkbkDPj43eOmG2YzujZle++AHDJXCLPZcIZnlO4JvpPatjZsXMEoC2kGM03d5713otTA0gi5ZDdMu3Z7FffuMcmlgxR1nTXu9yjlxu70iN9I6L6en9LtYO+blmqka9drkdiWZv+lH08s+8BU/Jx7i0K7SPFXNqJP/V8vnSCCJHurXC4R7xsuG+YbOj2qTWxRXSC23x54XYvRci1bVArMWSPtowfT3/V1hHN/Ey8a6sFqRdA0VnWen0ajrIU7dVtCTeqxeuFqT3aEO6MocXe7rgbvwLh6vGV0jjhoz2xEct3LRe7XHWl5A5i2XmcHHDcEks4sHC24gKIwZRwTOqB6jAXrYwYHVW/kyKRa2+n+WVC3rhug3JwunxeKRouudznT29b9kbfyjaXwaP/z7I0fcl9pplikNX8wkbuq5ERmVg9Pdpl0cq6EUNYnJvbe+u/kcbemhumQ1a4YN66sypJssK7IzLST2XmMdoLnntoiLCsa8pn/0WQt+Hl+3SXX2wxm/tu6Vv4icf1No850Zs9EC0BkBYi7lbv1p9Mft8pp5uTlJMtFHNIP9NmjcH0SsYrXfPNh+t4jP75mjmnrJgliL+ITz9LVnlpd/8Fd+cCXtmxCaSXbyvvsP3/DIQt87BkPAyDua0exrLvOBb0gJrRWWZIwfc8xIyuAl/czOx53ni7RFcX/Zh3nrStkFvintowwItvvmlVp/6Bspmvz/w07B+yfRgL78oGo6bZC6ZxJbn2dlr39zJ5jzs/O4AxryDn6UwmmdczVgt1FxyCr/Rs7y9ESzDRebpjL6+5MBWXJBDlpn4hITDvfZ69ZiEPIfLZY6MIYRteGZrCHSU78i3VxD/LrtqRTc4Yf0TyCnc5WKP6Y0FtKjkOlyoG57W8chBHNc1Wpt57/rXasNTiPxtyMwsn7z6EPMV7YXIh3C8r7xRX7MZuCCKX3z7aP+UFuswHjMjqLwHLt30I0sD83n//Q8H6I2JYIYkEWB2v2dSUmYEv/cQ1R+Ca0QD67plS7gRX8upaHW5uDa++/3h6DgUzqjpO7/+Q9Yy96fHMZ3g38wjSb47+LsRqjjtjuaNMNb5XOtrcu0uvyK+uNr7loQpaJ/KOpyQ0PfCSO/DRr+96j0Tcf9TEanFiHQWz38MxqF0JXCt4bCcwRg9yjpXdlaRv6cpIQXv5FtlQI7Mbx/S6VsvfQmez2H/Yr/1nvVJDlUsifMptXOgkkZYxJ/9Wj0LLz3sjrx0k84S1aFpx4DTgn48EUXXdE82zyykVfwsBfhG3pvLRCrzijyy95AH0CvPM2/a5RjF8IRgQ81lDZf3fL1uEF3QSpy0puHgsV6x7gEMMkJWpK45p5l/zymCR2aQjNn0rOOBkA6AteuEvAR4UzPNCBWR3Jj4qYeTBqJgTS/iAQi8urDSY0pePYgJosxYfU7uSCeDStZ7GxtN9WtUdXjq9mHZ2pP+lNiDLyJGECy8e8dsoPsqKxnR/hxIuDnGCNgQvzAGEu5GnE2qVC6I1XqIIOY9dYJNgrcgqaLYgW73AVxhfbsHph4WYSMSgBm5xxZ1rVQos+ftNKR6xcrnpsxS7i3SCiakyH/E6SarFylKmiyUSwMAdROY5ux1WrTGH+T/DN5qp70JZodBBZswqPpW/RerhUDn62z25WEdEX65ZApml3zLx1+o14Cz/NWm3HtagSNn9rI6ei+GMgk7aWbg6UVlu0BUVs3WMjmXBpKmKO/4zfxx3SQK6Yk5c3yhydf9CACljBykTew7zbQC3YMp8xryQXXUEuxF3Y530rL8XhmAjoQromKxnemY8D6ssyDsHh3ZLtNJhgIPAmN+c7o6GJuNFVW6Cig6A5TbKGAbeG3UxMPPjWbkkSU5nILVFB6Jsq4KshBAQhuSbHbCz/2X4Bs73HD3I7nzr2VtTo8ZGE7l1ntKILIZsvFqcMHYBRy2Vglqu1fP4ysxvZzjOXKkl3RDc/lSI+MvONVx5kycIY2YQe2BBz/HmkspNu8U/+soVcP0BZS7I3ZdQwqD/gsDacxsJLeCP56XdeJ0S87BuNiM+d7Xx577Qs5X8qqiC8XkbkyEnklp98ZxtPhEXeWYs5YU+zaITYtaFrVWCEyCs30stRztVKO/Q13B9KWGbs4TW81v+lMAatca6ztFD3G7WSzmdKtD9NiBQahxbh7PB15rVLyyQGkomyVhoUW3PG3P2znnzrE6jALQyQ+DdQ7Algmr54VJ5/f5K8hqEe0Xw7sv+9D+e3k/vEoYd0EO1l6w7gJFLP8n1xuC9wxc337LgxZ+NEOeeprT+tO7AQQYR8+Gfw/rfqmMN+++eVW0Lsf8tvlzNGz9sEg7ZI4Xn58yKlXscfCO4nLj2TkEd9afvHLh30gba6ibNHKb2Wvz8oqhaqGOCXJapKUOAv+OfZp3P7AcgsCixtaHTiK7Hz1TjL3KBTJ765aZGu5bx0aLPC7JEUqHYZOoArcJt/jyMsD0/7MKbZoOO+14ZzPTrnwN8zZ6SS8IpgYG7FTAAW1+yAoT5sBwkv1tmhf6wHNacqfTt5K3FCER8+M5VJzcmdWzuNQ0gXiaSr2CJEO//idf0bUUz25eLA4zVwlvmOvBSkAvHj8K6pAgnkOqRb1P+TtnYXGSaRo9e3LFk7zPqCz7PJo/LppUZmszv+7DC0me2rRsBzUPFII64+MbhceXC/Msfnv4xxUIk7KXunVg4JVlLiWWKWgAH/dfST9CIvp3qJq0Z69vm9S17VxNxYHMlXBqMYpt0/Y4iUen6OUqMWwKQT7O3D1/yqEqFbmvKw2txoFiFakEAjqB1lT9x2DH1KKly9EBUaFtR9Ud/G4ZYaGBcfV5dutU24g6J0fw951BL2Ift5+MSbm2k7pYmwUCZ+qz3yoIh9gWRMnEqaEyWDHNcqgq4UzIJhYtxd1mSFhwOvmNaDN/axQaw1sNYbVED7FnEeKK6lxVg+PHovzMx50JLx/Jz/1VDbzsxZo3Wp2WrhVxmylZgUfKyaVWJrWCTONX8bBs689Do2HQNj6lUJSGkOXjrqT4ba9neplyyv9cLXpLCOdUxxaTQ+ITCGNBqB58SK+iCVpnuZJqECWQq2WlbL+XzJTADArgk+Zxfzwsa4YilP39D2OIB+iMcYqfJ2PIRi43R+PY7omxG3O0VdDNVsjAfBh99+LuZ7VQ4l0Jkb1LVzmagno93mZ8LINhe1LO4Lq08NmI7fwEIs6h5NEj1eTk3P/se/Gj9c/7Rmz74ByH69ESumySFPGh2C53CMgqOuRKk1RHdAeJI3levQyY/3MatrYbZhYW1jL9pIgxB/CLTiFvCSWYegsD8yP1d49WBlPb/ggBbN3Aw3upldo9GcDdlGOpDKnxPyC1bDhYTdAbfZy1Gce+pjvwa0wbzM8YkLDg9iLZUxxUckmR8H/ecrHPqncNayrM47hMCHcK9YbnyMiQdJZn7Vx3Rzquanm4CUoqPmINOktyE3bBWo3bScNIVUSB4HWdzpJjpofZfwQ0QWA3/TgGFu52CUtSe4XE4aRD+pQwhhecWDvYJkIbkBiKP8G2ofQRnq+vUDxbi/vZHQw9LcWgCvI2gbA05s1YhT1j7SeKx4tdSGo24kne2qrKcZU9gWDYg/ljiNnaY1oLlcg/XMfiVZMLPUhA9Ya0hurJQiRkrjCcj7yYOZ+VFQKWPa3lOrgMNCfpNkpryCYdAZaFf5O1C1kHvRL7yV0ZG8J09isoNB9rwe4E3I4BdFhHZ3VcHzmMRzzU9quiJPQ2XpVhg+6v29vm6Yn35sQk2mUZuTzgumrEJP/vn9L3UqQJXZJQ097WHoHzsorTXfDWCN7HgjywDeGa5g0SmJYoEeQ3i1QwrGtWtnEfBBsylHfT8cCVIfuT4KUAaQ3lYHakTO1lsAaA+OMLWN+QtCRLZcCN3W30s7vtz1IzVR+XvRnkphmel5N6B82g9kS9CLbmw4Ri7Lxu+0zR6hKvwq0kRfF/xXJrYN1HIoe40AjiSOZoXyLqNrLOZCUGFDE+QWaufuHz9BSl9AvZ7qjGLbkQfbkmn/BojbV3x2pT7IQ+QO9ZmrD+uN6OwKYivgoXa3PO360wKeO0N31BjyynfRgKnebb+RypXkwz1KtOPa/RYTms77XU89HyExg+MZpOi2x8rDj7d3LbElDnD2wUX2v8ClwDd3SVsjGRYqrgrvbAXx74sjCsLTgcjoSxF8fHZ+3bADeuS9VEhvlwFDF8r3fJHUJUGnw8kcq5fXKbnf/tOiC0tjHfdzD6uNrto7Gf46tHPhU4deFWUhW+6IH/LxfEnT1caIWykqJRULFt0aLEiSZ5UwPTXz2ljLnVklEW/EiTsn4g9NOWyKEr+mreeDs/LAKpw+fiu3SrJESCRFDG6JbBoxtHBrR5MbjGakY5gK/8K5Qa2VwJqpSuJjo9OmjWnG/rS3jn977EpVkHBX5Q3eCB3c58UwFxrRjSgTvXN0jr654GF/jObo/VE4b6YtMmG+sY7MSm5/jr5A7/TLMYG76oxDkBQt6ATbbVTsEuEKL3dvnNH6KMSJwgLbuFA3CjDVbm6+8voetpA8cHSm/cuVi0GJtwkQoFFURjf5kHPGVIEAs58ZMj5uIEhDkjodhsPacPoqJs1ijWrV3uFm9BzZL5UHxGXEsna/sZkE50Jh4xQBde5pAkaofXEjI2/YEcawr0o5f42T3F4LN9BdQKNra5FfyHAIAq+6csc7n4YH+VUOkp6v7htAT51kaYtZlS9x5GxZmPNmkVqKA6UPIxpmrC3xFTR0cuhtuzRDNyA3lG3qAAunuFSzCNZ/MxwsffqvVg0zY/WKAw3CLT5lCt+SWnY5e81dXHOmnqH/+dymJ8EbAkz/MPICN32IO5np/dBF2ff5fo6YyV0FrTpiYyyYTf3ZmGHDlP42vfudoRO609eCFzby5XK1N5i0OVqQ+NjoZwM8462x/cZTGfxD1T3qU7v+LAW2dN9uRnFgAlLl70sOAFxUJH2K3/FbL0bbKT8kixIh+8IATHh2pinhhcns7G7rvX49a/9DcZqjXi6/M5Ukq/fi3bYKv0lpqh8YEpyC8SWEQHU1tdzdmB1B0/fuek8QP08HoSZ8bwSmiM0s1oaQyQtQmmCsWuVLpsytK1b8QyemditujZJRlFQ/qJCKjZlt49krQkkLgMr3AjPVnrk5jB4tVTZDO/LM2uKKNqsELokXzdSC05jYuIm1kTGKF247/yf3GXs1W0layGmiYHgq08jDhoIyO0nId/Ft5l00DDyYC3Oq1LiUWB13mmByhLO5eeL/dDqsMTa2RyLqKkX7t/lvaK7h8eOZMyPmSAr/HoSX0BFWjt3bBmHwT5NtaSLTChaJ8dRIMjKDUU6ICMhusnwBQ7lmdJ1/nQqd60vn+QME4sKHaV+wSRvzty2LTH6DFoz4IUBCZwS8tLLidNLdk/caAgoSV6A6KGvu4ROmRAOc4IpeSGuUf6uh+oZ8MQaOtztLYmEFycGwRZF+xXlG4yZVznT4uSmLmR5F0jwwFXYg8P9OjXIa0d7QrhGWHVGwubiKAjH2ugWoJyb8tpxKbt+0RusMUZe/tJC1t5K0RauNxWgHdidXLMSBDa33+feONv37tAxAredYxZXe0Wu708rb11vNXFwDPGXZM8Guk+5NwfesJxcaQfLNNCyN/7+KQt2CcJMJNvs2j91tqQtHcAghyPviJ/QHuz6svMiTyD8i4iD4s0h12/xcJ1Ix7ujmyDMHA1DDDTj6NjZwWSTzb9qpIkr5tFyONsPDGPdxmm7ltaBNpPGbGi/NtkQIvd+oI5tLcTNRP26Yr9/k33Dc2kBdPdmFtYcDlO29LqU2FLkunhJSV8b4jI//rErhXHsCLYuvVNliV5slg3iCsAM15C2OL0VG2wd3wVF1ylN92mi2IONqci4GpUIIRVUJeK2ZWoVi7zrAFryi0PlP12tjnFpkgX6jdPchwlrzfcSevolXtJYdp/5A+/ZOtVnrKiP4h3+GgTExs5y87CkT/TeihN7dEw/gpGczrdvhPLivlaTeS++OFh3507YKBlSl9FrSIgURQwf33XFEm8HML7ZA6ZSD84w18/wcQJycRAfFvsd3/OPFh2JOoT25G/O6YkHEF8+o9qykHs88UzGOqI0bosPcv8N4FL3KBtguI40xJTrw5edtZ9u8kvXQQt3RKm+utsbWB1+S0YEqsPZfZjzPmBlpRKJ4VQ29NgYzuZhJn+ULQwRqen2gtVPJVo3gSey9bB1VSJYL/W4XwhOTR41O560+VR9cteQhK7szu5OijnPbxlnfpQplfW0krWKKxdZveFc8AMZVslVLZ7NYHogM0A7yrhcPccTGsnxFygJ7E7SF5LT0CEhRWuKHsKTyA4PpCmQkcRPczTIxQ2P6tHDvbb4HGvCNpiropfHTIHU2pzPvEPGv9+W5xrpuq2hFyRjgDXtoR8rEtvXyDP4RBzIxhtHe5QiA+ixy+UEsXG58bhGU8wWWav8QDdzkbo6QyfRvxCQSJsNoOgXPlwz1RtI7UKKoBYds95HJirWyUgt9lgcndFRtmHraS25AQUlLP7GQBLHyv56Utw6lvxUM0xuCeDUHTtsCSHzh3vIUP2Z0pVxwfCkTBKF3K7rCugVXzPh9JsjIh0pyVDN3UOoaM6rzOd0EAHj2hX50EsGP/mWphVPARE54qn4gW7sC1I00n9X5GlUXI62v1F/GwyQMFlRz8Q8cC83NwC2oYKZPnXftWhXtUNCcFXdHutm6i4XNZaj+6iNg9EzPWqAUo5zqNx/P6/FY86snlZOcDQayZ7ye96JLxs9eYMtrtkJW2Kz6/Sba3jRNd4tl/8CKfRCgjkl0nGivNSCHK5kTD2Ue0XI2RU+utSzfU+8LGE9tzLu+L/fxdqiJ5i5/7wQuGbBJuGRi6z1w3CFm7Rcns+l8a4PWn5A02thvU6AOu/DEA36f1TJmnK2QQ6RFy8kj6r40aDFffLQsuiw/fzDIilzGa1O6i/AJk0FS4V8zwI+9HA9Gsih2HxKmXTin03F9B9FFOkNRsN7RbsVA80w45YVW9+j5A8ciViFHcFkM6Brxs90kQhNsTYBiAjAgddZNeSDr+eqpOM3cpxZyt38G59zTpqmcUrR88WcrKZsHSBt2EvjvZnATIKOhF14Y6rTkjcEjDVZIX4XeHHynFCH1Z7Pg3YeXh78BEYnRAd5/JDCWhAS8xuRd4Yq6hS6taVGRdAkWsc5pMmXkQ00xb05i51OY8wBV7rLmI/8L8ZB6/RfSyot9Qd+Xe+6VP25I5AJLG6XWcWpUDw9fzCF6utmAJLMyxExtvrJKttAX0jw5hW5/T0LpoMNdbiI2r96nXb8/TF4NIt9i7/R+hVefsi/l5GGQe6pan8nu23b3J0b3NnsRqAun8oIxveUXr5EYKdjEAX0pC5rQK/h6YjUPYVZ4qvXg1yS7ydy1XSzi0s39uBiMLToD38qYkV5bDlHb8IfywNNNZ0Fn1ywWOjruVgNuf8Jk0WCm2uyfbrB7D1dIGrMxUWjqRSYCuI2HqVk1JRzyALt0HKiYtLwO4jDy4ix1+PwBVHGj24CZze1wUnPbZknyeYhYEEfxUHAM3x3NyJGex3ECFXst8odNfa/E039rGMEqYK1MXCgsAsB/gJXJ+4HgDrq+8JpkgBnfxI7xXpsUK1guEDAXPPkFpIzz1x+dG7germiEY+FYAG4Tixnt3lSOSpXTVOrFUamWCBxNFtaU7ZKyyUxYUPUEm8+b8Fp69XfO9xawCPrMNRde/3a1IV+Yy6L+uLPOuTukzNQe3W2OEhdfE6eTega8bM3WWy1OQaJCWcncyx5LryaCT5jHUOjys5Xn2ESoR9ScI4hezXdlT41VxEi2kVC8m4YhpGqK9/iKkNtJFiKiUvA0W/5c8Vb7qxgiDCpbrdkGbBp9x/JlI4yVsEFReqDx6XOWxEn3b5OLaZV4qP7bKa/sNOLvGLirB2avPxrJXIlvLkm2Pk1KGPgIkz/q18jQeFlpjD4rFYGAJeToGCTo5By5dt63cZ1wxrIyygOepMiu3wo/JvV9d9/pjuD1z/98kMZVEOBROg9vSASPsxZ6hwV/RqZ84E7Mvu9XmLQSBKKa8bcOcqDrHr5ZZjeWayhiXtWC+1GR+soasiJLeH2qipdBuJVk48/V50iEM8wyDWfMA0RJG/fUy1YnS223NeZzqIs+7vzfYXcR9pOWz2zLj5PkPt8ZvyOR0ZrGaLUBRolbwZDrCZ6Y2bClsuttu52iP1Lyk73JNTIUeLFiBGFJvWpYaqkr+J57LIOGLTqrEkfEJAsJX7qFuvnoAtbxoTANbXxNsEAbjD0pv+sSpb9tyZ1x/uKVliunDbcBS+ogUThtg5KKwEzH/n+HfD9znPzHQ2o/ZftVSUIasDYdx5r3gypEx62amBWQCs1qsBc0nu/DqCjHorm4y8FQff3sDo26g6JVLt/n2z/E3MEKACk1Z3nZKZJkgGXCPfTZluQNaX3dmCz3eGufosB4gVzhh7nygmRnun8YoXBsX6QnzQNmawc/LBJ1V86/SVnfjpaee4lSlFLMlQj2sG/yRHqBFX2urKKdulX7hGoub2KFWw1mRSiOm0TDOJPiAXUE/xggBpDrMh2K4HNpiYqWPg53jacUPPTIg+KOomi0kS8XRoPDwUciiFIno9RWBFuh4ARGgnAXs9jJlp5EgTDKNLQNjWFfBNKNruzu1Vtw1FWlnXgTTR9v7VRR5suRWEvwXPcHsPAT0cuFG3UnxAT5Fb+AU96GRA84ly5bwiLFIC+Z5kiSPF0aequr33ZKD3Fq6LXm4SH173AVsi+1W9CFSy3jRA6sUCmHD+fx6gFKFpp7vKdsY1uimOrzfDaMgBy0jdjtKJi0rYG7d2BDJI/f3et2u0YeFhIf6CHO9RPylf1/mFSmNAWi/J1hII4vKmVPuEMrVzpoplISypjveaAaMFyKNdYsh+L3CvNRkv7IHuAmCs4OkjlRnCaFioxi2CXzfEMCk96cbN+YbOvhcgY0XA8fJ11OmAw4rG7pnDEnghPHLBZKcco5QFhw7jQUC9Orq6xIL6zaLGEgGvxd1q+4p+tTXd2flK1+8AXgHSiN49Hfk6Fl89R9nH/MiFgI6Y4blFpCzTmLpjHnTbnGAF2jZCwSIRDeXqy/2l5/wNPvKVz+UIrCi39j4K3Y96zMZAFsixPp5aBQUYYZJPnvaoMhIQMzOfAIZPgpV+gthr+9IxCFXgYKcp2JSo41HpDq4Mzrgx5EeMA718kUwip6es7nikOXTDDG6YkPeHi3C8HHm9j/WQTZYvykZy5G+EdCJgVXSunh7hh1zAAiEjN8aj2fUtLi151xvxQ4P4lOTi0NvGtxSp8pcBbcsEsihp+QjE9i8pb6RtaZ0dDSyUc3KVUdJnDTi/xIq9ljCdUz3DkzsWZlhSXkGzbdT7srPmeruUCYFu72raroj39qO7Hq93My9MczBoDZCxip9bVhjCFxUO9QAYgzF6ZTJJiMKkW3keKM3gznRuVTGclOfFcwiam0MbivyHf+u67RdQMZiQ/wsoCSHcP7XtxwAASrvGOjHLT0uKZbCYghsPu6R6z8EM5OFOeOuoqKyZh+gdb6rsHAab0GdQ/eOv0vuPCCfjkpGS8Z/ASX8tRu6skgc5PzVjYqKsU5JTUZGeJSeE7pef4VjsXnmNLHZRQduVW5e+y9T6b1ReaEy4gVzVTJrIc9stvQeV6cyrn+JllFd0mwTp6Cns39sTvzz9xDokml/HeZSPO1vxepp1JvnZ6EfWT0jdTZ5QnIWfPI7SK0PDTp6t4HpFeMXAOpLsWaypxFP5uMs3zZCi9S7Or58k5N6HVeCb+h7tBrN+Nw3/zJvxOuuDH+3qQ0H7c0bOdbIJHD1OrNu8qprenv7Ruu0/ihUqvTTsKcCAf5T+hUwCBaFcsf6P9yvk5wSwL25qB2iZkpuvzMuBs2q9K8Hsb8bIdbnTx2aJizxeOl0AyL6lVjg82F3iJDXBKNn5PLVZZTgvaUVEMJipITA43Jthy5YTHTotAMQ59Ql0s9iSkSQBFmjxS0iOejP/9APpqFYp7bMS0FQtQqdoXffbAOa/9fZSEk6cbgEE8CcIB1Udh2hXFmH6HGyfwtFttaOoqc071cVN4tE/ErijrIZxZ3KeaVNoNY19IWtAh7v/z1mp49DWfby9ZzwiBInJdr6gBhNPB9roHnnlY66D3cxt4utyXFuc8urZHl/rKrIHR37bhc1rPtEutNFkd/GzZELAoOcALCydZpdHbGBut75eiDX2v/g+hEnxyEQakWnUryCY74X1M2ReqmdizCVdHTE2dB1VO4Qsl1ogV7l4T/e9E8A+4s0eoSTkKC3cYs+ZJRsin3q1FULacw+ju22pyHQiws8PpxLfefKAWoLQbTddd4xwxSZKzMcYwnsYZ85LxIPE3PTQQQ84YqRfD3PLGYewx3ngvjr/THg/CkhYKCS1IQ3CacwWd2LR4GFHNKnOZeRN5XUKcLCThh7bVXLlg4Vgy1QvTIPtMFC8+IEBWLcTECI0rOSJi/48ccb9N68D8H1bGr1sAhTZyISzRzaqp2Q654RFa3fkmk0azMWrEpNaLJhM1bgszHElrDJrT/ADOiT6z5uh9mYQrMKF4iBICLr4A2aQQV6TzQBW1u8CKQBrQY94LyuB2KTjVZpIoff7gkuL+wF7Pr9sqYHhWKFJaT8wD9RpUcifCQosf9eOMhYciezC6xpW/xHtDTa5nJw02nit4j16QwJsCQ53WgE7slVX2PeVhwF6Cb45e4FPIafXthLgo0z/4ybKoLp9g/LXvU+NfR4C7Avd8IM05R6wPCsincAy05D97GB9cJo1KKp+iuo7NRLcv+A6Htl/tg76zUU9C78e4uqpc6ftrXWqM8eepN3PpdZg9unrv2fadIdW26XqiZt1wFbL1ulr7xTGCNkrcF58p90vGatJY6n0brQ7pUByQlqqz0pEYk6GidbvMsFkQEdV7+qzQ0H1Yooq7Ku0v0tQ6MKMU/tHAqaYgEOVV+71UlqikqZz5yzzujOiLw7iRNRRGkAEGg62gMMK+bpDJGs6en1slNFXijKcJXm2p5anerXDR8PzL15wBYPndFOMC+jP/pMslVjr2UUpyouX3kxu+Ba3MvypLMr7SBiSjBhzgXDVr3LJRGR1EOaoR5lgSRxlUkpWNjcTB8HulN/HN/YxIxSHxXNLiOxZCQJrJcoM1uIpFpjuGHSnAPrNHSvN0ONJxcA1IpvVrDeuCEZfaqoWzYShUfJ5L+rDQeTE0aEuXb8gsKcQWpsloZW86Sxva8WPl3jYu2aLyAxzoBM1TJUkURLgl/cww4OfqpB9xLv3oo59hoAd0iQzC/SRu/Tjo/N4HNnE5EIaHmEmbVuaKF6YcBqKcPG08+YzZP/CqibBs/kporAsFZupHecOoguZD2vV1jJUyuDq9uRgxz3K/rNG27jtRwsRQd9JVulsaIdT7qPIwiejSS1YELccqLYYINxYpImGacY2gXWG8U5vMWkK6KFrpx9+xcWlPmEPZ5xOoCAu+lst1T4C4C5x66k6KUtzywvyatI4K/M343cyAbyelNxlE22jftlBFpc5ZgNZnhe2POhyuy5/iCCH7yiWT2VXN2Ka3YKrg7dkIoUWRJR2sK7bolfUHvBQ5ApeOaesR3ZaYyCXKSQcMtTa65eFNenAOmU8FRzqWhmM/rhCqcglO0BMfEMNPcHlnjqOHdsSu6wG8K5uflO0zmPVq+DZ7eS+uOQm1cAdPlnPpSq6GVe6myy6HMRt94KyUPHgZA/iT4xOw3xYLaRPSKzLuk/tmDROoYhHziWfNs0N6Vtzz7Eqb323L42707NawgAJ0VbqTdS+mQ19JAatAuI+t+K6NbHeZRjRVUIHpGsG2dq6UHlbQNcLxLATZU8OSIg4gcPJp6Wx4pwrLTDXVN8nd/JqvSUu+/ghypx55pFCi1CyPrKA990DvqRIO53po9w5CzxhmivFMN57qvjZgZ739GzTUU5JXkf0aqIqcPFPX9+AoSWxDxKaTkX3YcIn3WxeGOQHlqXX44Xf2gFRBZlqWFseFaLyL2IgMQNSW6ZaddezuIrlmwyDQBgi6aaITzX2Ji/O7OMRMWTo8vkCS+FreZKOGbu4RQ1YCrJ7bdsXLLyPoLblxOTVTSmKxoJWIH9Hw6rZHCxU5+kW3UyJDpZ8w3pwg3o5+/do/1YBfd83bH4EgD6fEJfcvZLKkGIfGo9nX6JHDo/qBXbCAPPMWcOq3dxylO1UjnFkvTAx0VkKQ8s2BBW1ESD0xOrUHKqf9sJ8wn1lurP8Sp3LI2ikMI6xveWpYSNVrrFup3gBkUBiWbW67ymNq0TLMZ86Cp+3eJKsJ7U/wPE9t/K7IBfeQL/f51zSqiDctfhHY/YnAgbaAtlQKgGeTvkfCk1kH13rzB+ZXVlfbvWOLRX7DnWV10IAe+mCAO8FXp/WJqGCo1ZDwVsm/ymBmgrng7yyJhcjPwb7M7UmwZ53XZMWwLOdEJJ9svXmCGxcAu9zKRgZKH3IzhonPH5lqMWi0hbEckQNKdqbo4ZoPBpSsn6SHfgnOPo+2X3+3L/0DYqFBDaqoRgwNH7zCE2EZr28d32LpybskeGhy16u3mhVh5J6i1csroGgYK4z6SQSm13Ede1EKabJVeJtSEDT752SCLXPw2DSO1/wPzowRTFEJMGOkLVv+I2oLfeWgf1BEDOoD6OQ1GxxLdu3RY8oHk0afoYV9xrRXHOG+nfAvFzpcZpOX887gpo5h3F8C1h6F1XvMfbKRz4SMSC2onppjXmp3ZJIZPFObuJP19ydH7xz/PMODcxngm6R8kWGxn0Ew+mHl/VXqwYmXJGOaRHjiVsE2ufdbSY79B/lykfWgPN+nuG43K6gFcocKcdL8Po5Hmjp9l+hERnlKthald+FYetnnYcmeisZZbssGJ8yZFnUdRq8gso1SfdtT0nF4FZYDSEeR7VIB7P7TuCzMzIqgBSvwT18lOn527XskAE8ZSvjKEgXz/sHtHOQgPq6cgiRZsqQBbT5DUh6Fq0xUZf4l8RzH2z8x38PUHM9JTVDta8PDPRkHMoCy4U2kIA0PAgZufO+mSZ7yCADHYa1pizOIyv5DO0vt9/zhWjFZifJvF4s8YUwYmIkjaS7ZXFvMhzlL4uaG1RD5+dSdXZ3YuJ0fs/7D0Z2VfZQKnOpqkVwnQwSP69DlwKdAOtSeDLopv5Vsdn8ezhoEY+oj/LdNuOnAjZL6RNHMQZkMVDdSBGDFUPOZY4Cxlb6fVy8GRoPGBZcfIMC3fTkmAECsEMglAXnQuPzdbUaL5vHl2HWV0nvz3paepXo4HVxQRDGXairDjthemKjwtynsc4jB/xoGXweUVFXZ0VrxI1oEXIQPbA/Tfi/Cq8QwNDGkOrkgv/U8gIF7vW5lFHQInkx9UG/8x+As23Xvae9ZeaD6lciLnNTmf5MoQkaG5s5qKVH5r5wXYpqy6OEIrUDy6CU5HM6w4NadQWfnz42tV5PCzlk4hHjEkUxbbp8u8ewUMGTU+8PvljFEgu8tlLk5lPkPVSgEcjswM4UJurh5M9SnUSxZch5bu3qG3FrKHEdmiWUqkT+zkHOobI10Zr4osCy3dcpNbL8CfKVtBoTMJZ2XjAyTI3ADtxyxTSfg3Eoq5Qb6L2FN99wGbEmt2PYA2/D+xaLPnaiuKO/JQLXxbqqjzhG2F7PA5Yg4PhNDEgdEElp+xTlIhjqIGKa/3OAnOfPVrkll/oIx3R9LsmVVVjBMW/23TOOUyeHs19qoLQDUeaAn5lRTgBpyty1mBwPoEWnQhKIr6nf1/WUWfNRwuKlIpH+b4F36xVM0liCoZd/mPZR3IyCC1n0qmyIB5A8PYi9OYmyAX3fEPvC1lqJ6xl/P8rlOBrTtgZu11o4rVGUpu4/M/ioSYz+LUrMTKUYSefXzn8Agex3xj3mq0Rlmk5Wl9ne8M6ytIBEpIBsi1/gu5z9CCQUN+x56Qw+obk2gMytmMsNpK74Fgo6SbTC8L/6nySu6ex9/Mn+RBUt81Hg945hAICAKAxQmAVUilWmRr2ZnNJo0rzi2e6jf8TdL8o5z4F4htw9vmpvDGDV4iASa717hyFma1/++sav/v3hrYdluOd7R575fIasHkph1rfDkE1oxy+yrpIyGL6Aib8R/RdZoRpYT7256ym31xOwJzoHYwzTK39IAd6N7SJTQ6yAJOasIRqYHtrGcHSTMDfP4z5vXMR4LtdSbCTsJGKtNTY/XISDts/EJX23GRkUQvtyiZPV+kvybB718E0H6MJQDJ0zehML7OSAaDXnJpLGW8kcc3OSLEYsnF8LrDrSRSC9uhJl5xD4J1rhHd2Hcp4G+E+PqfFzKkBpAuSBtYoaHtJdXCZWqO2rOHCVxh8aPyLrEIF7P1LGmbS3wI6DrOQuInXfNK2VXtfLJPlrRb5cBuaTZ29aMwPiimNdT9FyLPv+oqxPj8aKz6Pp/zWO0lX2KTRWjLIXExCUPgKqzn6i41nBM7ePIIMa+OFUbFotA9rJmjnrM2EFaICyb9YchXv+TnGVvWZ2iTILRX/djCqMBKhCVYMdcx4PRhO2pexw0G/btzNd/5fD0J0XbcllmffxDbwqKTajt2Q6sdhcLwiWdBoS6ElqBP5vmMUTlJOZift12M1+Jyzv+Qc6lO4CJ3lXxs7BJfnQtFysaTMLZUKVmiplO5udJISISVLlhHQaAqjumcBPZolXx31KbINIr8tMGGNx4onnTg7m/Mj6LDk/XY1AbItX09esP2By7JptukvAsFDSRBfrsC2wnb3OLSNwX4ZUPSZ2O4qiLZI6zuEgGjhA0z7uaHUhoLBvONpv7LttCQMmpJmdaXYoJ49vwwMSnxDeNN8e4AvhaTxUzgWqoZ1Ck0+rBMJCJG37kYjNZJswESyU5kbMQ7py6/ptfxmZq2Qok9nYblkKAZ/Nehb8T47a90ame7jgaqs7ygT8jwdMZbqwj6Y+RGy9cwaSqXg0FwHLVRk6+oiptted0itdIfvlKep/Z8gsMXcBk8TkT4IeUEgkbeGm8UqsXXr8JTyZ9l5rjS76t42Gh7Mk8gy3y8NQFHqBbWkpdGg9yAXu3nFGF+FzST4OXeBkgFBe8CWc7as+dUCqDAM+61RaBogxDqef0XfdNIRZwfKDGqLj4Ny8ia8tBcC1N+DEC6l4K7AW8aszwB+TAhWPvJQR+PKiX1m08ctk+8eT7D9sHBn91haHXFPeEuRsvpNx1e3lP8a6mldAN0FZrx2+moTRU/tVvAedIwv6VjyQhDNZnuMHn1M+HY8IK5k0fzd+4a5Aj8IOc0MDwk2sbJkHm6MIuTR+U2KIJtCeMnB4iTSH15f403YUK9LnQVlkTZVgGgjVwpgUqEP33pU9qnR11wgmBh6dh/4z7y6LS2V5ixofTXZ6vt/+PQP8t4Cyh3VPyfuVtszMHEle/PTkp6GdZ5XkHrT3fPIblV2HGDvoSUzGwFYihmqjw58WQdhFq9MuSMVAqC1viSGtJc5soeet1WbFiDOgnRW/NrZYodAPrEKGh1xL2092IJ0NU8LyYD/TiPBlJWSaGNcKv2oypcRXqDby48DWkQ0oIf5TVQCcDoR9aiGJd32Mfz7u12o0XBh02S+9ubq8GybITIX8o/+qfwX6pWZp7d0OoBmBCw4GFYPO6Eu9Za/GuuRdqRCa/JXjp3y8V0DJaRALlgsg9RLZbiTEBTz+nj+dlkAKI1kBwgq8Ea2Hr8/+TmcRanFk7dwERZLvJo1P4L4h1VB8w2rWgFlqZzqnszfoKSKSXnMA3MGzJoxldliq29sPL8SwEpvn8rKT/idEbOA3a9PabtMr4imlaSMga9SZqm14TdXtCIJOESAjJuqvtuMeSw68NGPhkrO0O/8TXoI0//WaiDWnsob4WAngI5+MgRnUuDYOcxvZw0IwWGNciFwrd7XMaly9TNvwAbT2aBXQ/s00AhyAHPvuP1lamA8YZQ+IP2uKACeOQ817Hizf88t1dj/lCYy4Tt8dW/3T3NhZdhISU0lnqSJM0IapyX5f+K/jhpHjjynt2KGNXB4RJZKj8AM3nY2lwCrcR6q76Fwx3/D+F6kHjfEmR64MmZGGhAyYHlCDwHm8AourCzWJ9r3NsjBiKKFy3X8dAT8n+duc7Oipabek74BVkQ2MM0jW+8w/RnXMq8fi8zxu1yUNGeMes7G+PD9fxCSi83NMbIcro5pG6MGwU57o8fiV41tNskCdwv7iwtc6qFNIwZsijjaH+r1rr1/8r//RIIvTtG1e5krmV8rUhjWmTxgRtyx/XIhSJvW9JmwRJ0BUmXztHrf6gB4ZdU0gPWR5M/ngIMqgUl8Wg10SSDScWFisxscwaTkvA/0XIoeDCJPkYUR1nH7j2igUPHk9uC7peBgwwW24+om9vU73QQ+NeD+W/zqeAsKZkjdhIbOeZm3Lg+t/JuKfFISoCVtkylQf8spkNF5K1/BMb3Y6/r9Bpb2xox6xhueFUHWHuJH38jle6zy6assGISCTichdb/rmbfHML++IEa4TILlVHE6srisOfOhb1d93+wyG6XYmxSMBIzIVHPVajOTLGZUNWnvf0unuJl8wqfqAiGdroBRXjJYnaCZE2tqRb8drMD/mEFA2160EoDBmQnezt5WlD6/uoeki+5UZc9RTFqy1zntXrlpPw+6JylQkC4hILXEkqnlLVvyt07oihrG0HGEK2do/VZrdGqtHiUrSMojyoCIs6eikJfuUmU0L1GR9K3y4exJCsTbWeD/DFswNrRGIM3RZbtORCZj4mUp5OGRhJSH7YKpHnrc/4PqPTJjO7U8Y8vVyBJt2A855Dj0xOmMXBxWcjIPiL+RJARE+LQsZgc2yPNfetkvIZz6ITHKSvbmIL6Ko80yrTzw6NVLdN7wUp9WKSImD024mZBRCz/Im3XIaQ0D2q0rct5u2PkWr1X3d5obXqLNq3RjT2sAq6J2vN0D83sRudWf3ysOl61XVX9ultKQqf1eO1S9QwM0YYUHJLEWKNl8yKM2CVlpo2vYGZ4P4TgJaLlxV9AN22Y8kpS8z1T4TTJxLfKTieOpW0/oVYHsoP90xb0bjH9YRDy9ZcFGA7D4wpVWhYB2ORMllPLgxkUXoriAIv4q7vC5/Mz93HRsxRwvjwVorsRAuDbNpgU5G+zexLUfqa3LsxFn+KbVppgpW8CrElJn5ZZ07mJtPzoXaK524g8NzwW6qDK6h64XsiqAjKM6dPZps2kocROHmnsmcTbQkf3qj6NEa/gbjg8Sadl3jm4NnojuZ1PvvS/QWJsnP8layqG/II9rWUdjRDkkNAwc9EmWyoB1yt5MmRhUVsGm0/eF/tYzMgvD/RO8S172344K4U318nU0ABP1Een3hCP/TXQtiShrSDySJJRMedZhjx5bOeowqW388WUPPkWlnvNsEbtuhfTaVfV+A3aTO3Ifi1OtVfQnK9UegjVouizvsEy/389Uly8WvC6aEgPxBZUO+5HumJkWYVqRNTKUmLJZMG/dzB61t8n8ZTxAz75l6fx0joYzH9TRwSBtaMVNgh0+ty3de36AnFhSz0HlLSwCB5c57TmMAdUhzTiZnSJvwBlDLV2zDer+JrnMpZK+PdIHpQNTpMbKyLGA6ybQF18peePnlzE0X5bQ3Mlib1P9z1u5HvXiFY/zpMv/weoXAUNwCZxmhYYzj0bgfqdboUQ19P8u/mIwzoclCC4W3bdXEekjyyqy44iSBhbAd+SucFeWZoQya7tpLcRT6fBKb2J+808MMZB2xK5pso0Vw2/Fxq3cE5s6JYXVrSnH9Gdwss4//5V5VQ/7+DbZHIvOV+xnfHWtGwOZDva7O2mExk30cOk/jyCKTpck+93tgljYUP1dsyaCA976fMA0ssErl1SHphUZtt3x6pM3XzBqK8jfmFEKh22fZmaYhBFRbfTwzHeAtK8rLVt43LT02PwNnmOHffqtn6L6ETh9b4ovewUjM4PDzVkiMl+zuk9/3fyD/HokZ8ueqSmnz2ZsCNpjt8ctikJyizCVceL0Hwo6I0XEwE8hyhKoIHo/bcu66ZMscNboBgM/PVx4JisZP31xLOzQL/uVAiJ/n7uILd8GBlJuVkhjBwrOJjXDs6eFXRmYfdxKDEQ1JDCJ11Hk8OnoLgdQos31NQtlYFYv4ji5pO2YIgVbvyzWi1rMALKbuhUNHQfptnMPXGyCSFFzZ+KBrHPDcREBdMR7vthYneAUqtUU9GNGxTQmo+irPbdbmrep4W235dRE2JjVtSCWcH3PPxLI1AE2i0z2ZYb/7V98DpyRnNqa1fKbFzxWCRvfDj23tWLH3rS3o0lXYPmcNmSE4KB31TCNPrNW2jyrtFfrYtxpWfPqVIiP5ZH+WoTLgGE/R85HS8nI6VeCirEN1r5S6eOELHoOfefpTsWlOZLi3Rsy1MUJlaflIc+UtzwWLx/OI/MW+Ou0+bIqOUfnfSSw/BfuYYQZV1mKBEaZH8LukHwPTwFT2fGSL0kjLi1ZEWXb8qLqeLb+/Z0bYvxe7FO6WTHPDufLAoGMqv/x/3bdd8esZzt2sA6eRUmfVqD3mlvEj+OhpGVTOWqF+2jxj8e6QzC/YthHPJo00tjdi9geKjmSr6brN7zoToOB+YeeqWXhWcHSJlEzMRp558/TfMZ57GaSIxS2NBqmI7nOygPUVBGhUV0V074Zu9RwnIHId33UkEBlksAYDmuSw7WkG5fdTHczCrr8X6D0wy0OaD91L8m9KU6Qko5KYGLUrrzkZ3qTZQjgNmeMzrd4kH78/Pg5ElO8xtJ0Jp3UecljZm6x2OgknoByjWn3dMJYe/9ZNIjYm/3O7rZ/PaPqkA/1CZImecGDKyzs6l0dZngYd1OLS0fkjMGaq00iBiM5daCbsxePYEwUNYWqC+iDWTq3J32HjJlsYOvx2DCORHny6wWjWjVpMFSKabR0a+cU93lXxhraawsKQFICRpG3R6te4l/kGshoR+g0KUkGV674+kBf54zflNYMkMxpVAcwqxWt86820pWT78MYKkQo3FmmSRt1XEsDHhTg/pacF9E3T228lZpEUDQT5f143KXRsjD/zyB8RsnHggw/2glrh9bbTl2AMczmWrdeDn2z5gfi4BTTyike5fwwKTFKx1zALfEBV1GEIaUQfdaEWKfnbYyBR93o+xnIvHV9YbU8iohlz5uFlCJOKe4PUXIwgf+yyosIro9YQC3JA3NtdEVXhq+BDQZbrXVXolBoAqbcf+CqUVKVKiGo0J1Vu62vgamIr2i+V6Cai9ihd6WMz+W1vZ+7a6ajKhwB7YE6m4lFIIRxDwbyS7c3+TZoo1qqRxcJ9MKMhbEXSCNmt9rcjSN6c2IBIMrwIIeIRcqfbWVurv00Otq2ZQ4WA5PWg6eRm6bWk07GStffN7Xebc1ePh9PtgrRsvcvGFXf4xqTwXSs2BmSPwFnusxIkt24U/GwZKmDICyhDtGzxktszw6rM4IFg3tvMIn5VkTR9HOgQZu2zPh3AGY/Q+KaY1J2eyg+EJMJ1WJGZJzkiMhRlFZJ9oNnHa79IozwLcUZ3+feQGPYMakUsgy84fvXt+VcrGO510+xQjFwUPz2PjPITdo2Xlz68SCkFbzDf1GialM08ej4PDMm/T4uDnqeaqrm7HzcqFmQuujZqyYiqS74/+7WDAQuLvm5A4+hYNEbn/a/teW7mwMpFwZ/730YJf4FyRWN+Ug5jn8DB8iRzgPRUJgDECTFmyCUBqEgLpqtHlrIVyioxYcRow0nrmRZcS8Zquec+vwJRlnjQVTPz6SnkQMBfNp0uAlN9n7sjUCTC5Rym2r5v3bqqKZrNw1gjhMVlHEHadcDqtDHnnBqiGDnbqZAIqy33DQ77rCqDl9hpbuY03zMt2c5tyl7Wy4sZDdTAsYfMqZUSlO/HNd33hfEIA7S4OyYiGtnsb7wktjAz/PsBEIxy8SApsPJzWxgoMX4hIQXRMCOFxouSeEg9CrxG8cDBNyZv8Sq0MijgEYwbARpYOZBlUHx0wsE2nzCgLox8ptloJp2HdtnLka/Sc887Gw5V5OkpPdHQz1XXHDNyt+2Ot9ZErfhGOZ5y9q+hmHt/VXX7FcZ2EG580zLgRA27BGcKYy3XcIuMrDNIuKRA3ZQCII/gV6iv2g3/MUaTrjKH3T74QrB10M8IvEjEiVY3z3QkRDKRvCgBXWY3Mjb9cG9IT8ONQEsAWM+tf24KybaWQJp3J2CXBJW5LfodNCifz15i6gnEJIOFGCdZRFevn+0oBiELOWANUeYMmw4jRNmtPb2kUHfbkTmSAujy2JGjoEV1qsHPSzhJtqxsjCunIPWQiZUb0++g/HEyW+eyR/6psYk3SfymfB18RBEM3c56MjnNSQcUaDtACpiVTp+afbwx3mAE8suzAzbSHsjJCgbV2TsOoFiLVArnktdmlwNHWoNTjZWcp7U3JP/avmj9r1i/UQPFBwZ1lO1+rqwVCurG+aPLXeYpxaRSsUnFnTXgLERZ1ZnaLKxM314ONRJ8nTm63edXXpNdE9NdDVpTgAdQigXhTR55CSdAsUAU382wveGSjrbXlxaKoAVNUUmUDJyXvVUW3gKW15xB0ROcqB67mdU6zU8RpAYgS1qx9AotwNGPAY/g8j/1c+iMOKWbSK0OX6vjm5njHQDaxnbJg+/rwh1O0Q6snM4+CIcbjZmB9/x/2bT3qXK5sa3eVZH9uCmzJUM9K1nHqrEtWDvdqlgJoAOoMWeYK2kNEU5mRVKrdc60dlHZ1sZUv/97r9rK/9GMDU8JuhoXCWHw6cUa1NrDZh4Nb+OeSn0Ykexx8nfISwPPbieCmyU2h5K6XvyOmxfKGz/ponFxeIC5mMCE3FUOJJtcxcNBODkoYO+MgLWUhlNdLIYGR7H+GkJ6mW2zGc/PY12KtCvdaZxB6pkGs8ug8GLs6XKKbxbia7iOOm5sj4RV9zBby6rW9O6SOKd0gAay+Oj+UQd+9K8/8pWXkiFAIs1NEd9ZZOBLCzrnPULK5mVFYDTcRiVTr1rgSivK9vYYZjPjv7H9c4WMdAXI6MOdZt7zQvie+DRbpO8ZbwcZsmB4gsxeVh9/84ZOttrDYm6yjyyAe12TIslJyHctMlTnQgl+/hV/NB/DcSb6d886s8PZNz8/FrNsppBmgH2JZv0gKeCC3VLPIgd6iXHFoNq0hb0rhdHfRlwIrjkPDtI7PU9/KpgrkO1WhsA1DEv/Zw2R7UWyOefE4dtW7gzgeu9P8/YQZre/ab0I1nji1DG7/ZMFkO3kKyFi4iV1goo69IMiDdwF0bV6D3XYPIV9y2m6bv0567UHfixsqF7eZketNcjFpstwD7+T+5RCAOS1wGsBqCPZWjGWpaQheAtmNWFjU7xf7WzwBZzPJJcK+AiWSEoUJHkmJdwPrXbmF5QXJbNGCcqOg0AaYNH0Crqjgog9fqaaBq5s/HAuDLgrmigP/X8P2WOT6wUFZLxzCTyUgsxBO2UgJjhP6SJkIHSmB60mgahoC3RDr6NuF/ir+D5q98L34EOY2cCTd1hKPcZjJjP48xp4K+Z2c2eSvkAHe35HyeypsI22pGFDv+s39izurkoseHv5KgDQ2RNyDD/01rhtl1dvnbRNzedEvWSo68s1hd50TmkB+GICoVc16r8W4M8URnrFt5OvYSeMoOWY/srDc0Bdb3XwsudLpFZrkrLxSmzjUobd/4kAqje1DeF4Cz7b/KHKzaPQ1IoPWEzwOvfRFuf3bNl6saOpOlPdHaFEf9ulYqxLAX2yegP+sCQVI9qw7+h8ZQ5fozlQTGb2/lsFUbrO8AAJ6JPaMEbJ8JCIgTTY+9yhH6G/BgC0AOBaHrglAsAXAqkM87KFrGQGjkA0G+fSgts1uuLW6ue1zgoylFQ7NnAsp0JM60DD9H+tws1oECQo/SYmDoiTXjsYkXFC9OyaJetmDbBXVzawV0kUIQxyABZALT51lPRd+NNXLXisWgQk9FObM3Fwnx9h7X2CXIk7CbTWIaMtFW1a+b1YbArdj3JZqCEeGMusiylQ/5zwsBDUsoAiEIZXYjcZ1yhA4+N2jTaa3qvqHXZUkUUXJcWVWYkZGdNw5NbSOOBYyYpRf80KLeFABUSlgC5zpxq3dipL3Wjl/kn4y8UKVN17u54ofS7sc+n5Oj0JCYLMG+DXaSSfF7M5ggPRPeqY8/dQKuhsj1yj3zc/GbV0OBYihxKVd+MXsc/Oy2175o5698zM4SsePcx2a/PJFKuHWZCvNCYgtg8ZhcmBjctvNLJUtu85OOC8pIbO8h2/rpB9nxB4MecjK17nmUn8RbYzpdCvnW9e7udHWJaERNXxdmmGLMXJHs29ydoWgmr+8o0zcU0QnntUNYquoLnIZL4HTbGo9fFnOoyjZQGg+8WfZzUqyzqvUu7Ikhz7alC4BXCOyqHcpiE2XAH96yLAvCYtT5yAtJNS9nCvd098qi/uZDU3wxIQkbxX3+xia7kltHFFymFN070dIDD7rRtZQr87poGnIjd9KwK/acnBSwFoSfNWRvjEiT8zdTQOn5bY9CmWKigMkWOlOUp/v5RxgrcxviV5MJ18GYzyU19zLBO2T1nFrPw4knizfKCayvIjQU9m5Er0r1LftCXEwQBthJi80sAp+d3nTA2jUNxwBgANDQEjX8l/bB7XR6Qmurg/9U7r0coiXhmxu4uht1u6GYGpmd6sBLLyMykKkLiXuRJDjh6yyPkP6dcpljDu2c3jDojeFpyhzp68Ou3c9KsrswzTnPoQlUHhVn/p2PnfULxzD0Ne8QYiV4UmZTwQgLxS5RocR+YgayXoG8WqohKM8EIPB5Bq6U2AtEJP+uIVkHg8zs1uf85zB48kSikBAJ7ylqNU8zvIu0fiAms2nWfQemRL7rVZGqBGTptHjULqx2v/TTJe5Gxh8TGWg9CxLJ34ag58hD7bNci6TqLHXLpg6tQ/KIHIcdVhZF9ix1HsVeurwQz/Stk7WLGr6plOgqGtOzx2H+nPUeJtgi29XwW0M9DZ7BGbk8Mr4tfwuSB4oImOI7G1Qbb0/orOcMNL2sdm6Mf45miAcEKQ54EySsb2hlBjPzxZRnZocHoQrqz+I0c+OBejDNV4tjwuZGLAD0+o6D3mQuuookfEnqvmUGysIbUyU12JUlDaz3vTm6pwtojoZ1Re0OYDeyL6eBst/46XayEuhQ8MQOX0jy1WJXGezB7Hvq8ifRPmpH3jKhqM9iL6VZ1hOVUVIUCi0VMYU00B9RWDeP3THrOuODcUjlePg9tud2aYssL9K3mIhTOagaCTOcz7MWutgeWMM4DS0lDelryP4542/lu7+ZHv4CvjqBZnspWMGMUWuVCSvVTMnxVvf0JR8Ny/wtFIMul5rz/ws//H1AIi6YgOlAQ5jg+Hk+Aq3eVeHNdBT812EUfkxSoz833ZV7qH8R+ssy6NUHVtqjXyG2psMLGAXmXDPa9qUf+PEqigLnlnbNS14dXQ3oSsIkg5iacxot79S395eN74R7MpTWXqVz5qTFd48xUS7Pn+Yx8H71cAcM38zXgyL1d8kksdDHdmqmUEm5USgBYZrrRJVzf3LgkIdJt2NaKCCSa9KzvtQdr0v3kQE2t95ZAZnCSm0XQwmdGu8DKdSI/knvmpT9W+d8H8Jv6HAn96hPOzSE+Hc7JxgRaPG1MIJv1B1/eDBq8D8UCNshb7iyejJfCO9OBZjbdPLIHw4CkdSjTV6c3KzfgbPAOVvLFcsAYKlg3UQnSI/bASRSXcgdH0HWGZmxDk0c7x5LFMwZNxR6JVGGUkBQYhnljsIZjMJ5oq2dJZFpjFi4eUHkPlnomwo6tcfb+CtwSU98fXcSqEM3mc1uB/lDXM/Z5boBIPBvsMTUmN2kUi3x64LW2nNANg7hUCZltzl9hjmDlz5lC4g6LQdDQJfB7Scp9bEYdOQNTZuT/WaYXMHeJYGUUzmco5nVXmf4ESd5b6zqXwduPc54yJPKPdCULAv7Fi94Ou5BPH2ajzJSJHQWKSQi1qItNGkxZtii6THsvpAiUgnjyZ7obV8/rFqLjinwchSAFre7sTHSnTV/jgpCH2p+2QW+LltJS+J7gUaGDk7LvXQm4Itk5i0J4LzXPff0a0ja3SNQ8ry1JruNPEUPo7He6R6DcYvKHD1wNX+RfU4n8Sk1CzAFgPGSm5NNpPV5vX0Q15h2u/LGsroyOpvbVkYqqx+2F7exIKj2GSIxpoA2IYl4ycvISGE3rB3a//K38CMYjeR8DGEeaIiq1204yMIq7UTCX8XpDx+JNZGP0LUK+jDcWm8Ce894S/rGOjP+0Kjosh+l1AHxHCJzSDrCT6dJnPFnxu8VD6jK+2GovypcjD2kI13EEEkb+G/uLULpAiOlpqMxzfb+SaRQ0WaPZPDaEIhcHOrNGL7hYd0H1v6suBIl/x/4AD9BHJFb7CUO35WPhAV2IJDzcTx8OsfUMBuGFeeMxGg0axb7TNG9v6+Tqi4VDuI84WnEtn4Jqu0Liht6OGlyZtv99L15RY4o0Pn/0EW6c0eJpIITXZVBjutUwx8cPLZI8eeJ13AuE1DLHq4zDQAARVhJRroAAABFeGlmAABJSSoACAAAAAYAEgEDAAEAAAABAAAAGgEFAAEAAABWAAAAGwEFAAEAAABeAAAAKAEDAAEAAAACAAAAEwIDAAEAAAABAAAAaYcEAAEAAABmAAAAAAAAAEgAAAABAAAASAAAAAEAAAAGAACQBwAEAAAAMDIxMAGRBwAEAAAAAQIDAACgBwAEAAAAMDEwMAGgAwABAAAA//8AAAKgBAABAAAAIQMAAAOgBAABAAAAsAQAAAAAAAA=;clipPath=inset(0% 0% 0% 0% round 5%);" vertex="1" parent="1">
          <mxGeometry x="80" y="80" width="133.33333333333331" height="200" as="geometry" />
        </mxCell>
        <mxCell id="9MnGjtC8QhtEFFOf_FAR-2" value="" style="curved=1;endArrow=diamondThin;html=1;rounded=0;strokeColor=#6666FF;strokeWidth=8;endFill=1;horizontal=1;startArrow=diamondThin;startFill=1;" parent="1" edge="1">
          <mxGeometry width="50" height="50" relative="1" as="geometry">
            <mxPoint x="810" y="1100" as="sourcePoint" />
            <mxPoint x="800" y="40" as="targetPoint" />
            <Array as="points">
              <mxPoint x="60" y="1150" />
              <mxPoint x="30" y="1020" />
              <mxPoint x="750" y="1030" />
              <mxPoint x="780" y="900" />
              <mxPoint x="70" y="930" />
              <mxPoint x="50" y="720" />
              <mxPoint x="660" y="790" />
              <mxPoint x="860" y="650" />
              <mxPoint x="130" y="660" />
              <mxPoint x="50" y="500" />
              <mxPoint x="810" y="560" />
              <mxPoint x="630" y="210" />
              <mxPoint x="40" y="360" />
              <mxPoint x="20" y="40" />
              <mxPoint x="390" />
            </Array>
          </mxGeometry>
        </mxCell>
        <mxCell id="9MnGjtC8QhtEFFOf_FAR-3" value="&lt;span style=&quot;font-size: 15pt; font-family: Arial; background-color: transparent; font-variant-numeric: normal; font-variant-east-asian: normal; vertical-align: baseline;&quot;&gt;imię, nazwisko:&amp;nbsp; &amp;nbsp; &amp;nbsp; &amp;nbsp;Sven Jørgensen&lt;span id=&quot;docs-internal-guid-8a7a512b-7fff-0caa-a5e0-a5acb5877179&quot;&gt;&lt;/span&gt;&lt;span id=&quot;docs-internal-guid-8a7a512b-7fff-0caa-a5e0-a5acb5877179&quot;&gt;&lt;/span&gt;&lt;br&gt;&lt;/span&gt;&lt;span style=&quot;font-size: 15pt; font-family: Arial; background-color: transparent; font-variant-numeric: normal; font-variant-east-asian: normal; vertical-align: baseline;&quot;&gt;narodowość:&amp;nbsp; &amp;nbsp; &amp;nbsp; &amp;nbsp; &amp;nbsp; &amp;nbsp;Norweg&lt;/span&gt;&lt;span style=&quot;font-size: 15pt; font-family: Arial; background-color: transparent; font-variant-numeric: normal; font-variant-east-asian: normal; vertical-align: baseline;&quot;&gt;&lt;br&gt;&lt;/span&gt;&lt;span style=&quot;font-size: 15pt; font-family: Arial; background-color: transparent; font-variant-numeric: normal; font-variant-east-asian: normal; vertical-align: baseline;&quot;&gt;zawód:&amp;nbsp; &amp;nbsp; &amp;nbsp; &amp;nbsp; &amp;nbsp; &amp;nbsp; &amp;nbsp; &amp;nbsp; &amp;nbsp; &amp;nbsp; rowerzysta influencer&lt;/span&gt;&lt;span style=&quot;font-size: 15pt; font-family: Arial; background-color: transparent; font-variant-numeric: normal; font-variant-east-asian: normal; vertical-align: baseline;&quot;&gt;&lt;br&gt;&lt;/span&gt;&lt;span style=&quot;font-size: 15pt; font-family: Arial; background-color: transparent; font-variant-numeric: normal; font-variant-east-asian: normal; vertical-align: baseline;&quot;&gt;stan cywilny:&amp;nbsp; &amp;nbsp; &amp;nbsp; &amp;nbsp; &amp;nbsp; &amp;nbsp;singiel&lt;/span&gt;&lt;span style=&quot;font-size: 15pt; font-family: Arial; background-color: transparent; font-variant-numeric: normal; font-variant-east-asian: normal; vertical-align: baseline;&quot;&gt;&lt;br&gt;&lt;/span&gt;&lt;span style=&quot;font-size: 15pt; font-family: Arial; background-color: transparent; font-variant-numeric: normal; font-variant-east-asian: normal; vertical-align: baseline;&quot;&gt;wiek:&amp;nbsp; &amp;nbsp; &amp;nbsp; &amp;nbsp; &amp;nbsp; &amp;nbsp; &amp;nbsp; &amp;nbsp; &amp;nbsp; &amp;nbsp; &amp;nbsp; &amp;nbsp;30 lat&lt;/span&gt;&lt;span id=&quot;docs-internal-guid-eb656688-7fff-00e2-7baa-049d25f1b06d&quot;&gt;&lt;/span&gt;" style="text;html=1;strokeColor=none;fillColor=none;align=left;verticalAlign=middle;whiteSpace=wrap;rounded=0;" parent="1" vertex="1">
          <mxGeometry x="240" y="90" width="570" height="160" as="geometry" />
        </mxCell>
        <mxCell id="9MnGjtC8QhtEFFOf_FAR-5" value="&lt;div style=&quot;font-size: 16px;&quot;&gt;&lt;font style=&quot;font-size: 16px;&quot;&gt;Sven urodził się w Lillehammer, niewielkiej miejscowości w górach. Do szkoły codziennie dojeżdżał rowerem do oddalonego o 26 kilometrów Bergundhaugen. Gdy osiągnął wiek młodzieńczy, okazało się, że poziom jego jazdy na rowerze pozwala już na startowanie w poważnych turniejach sportowych. Niestety, ojciec Svena, Jørgen, zawsze był przeciwny jego karierze sportowej, chcąc aby Sven kontynuował rodzinną tradycję influencerstwa. Sven po niedługim czasie odkrył, że może pogodzić swoją pasję z oczekiwaniami ojca - postanowił zostać influencerem rowerowym. Na każdej wycieczce wykonuje zdjęcia oraz krótkie nagrania z jazdy, które publikuje jako biclyclogi (bicycle vlogi).&lt;br&gt;&lt;/font&gt;&lt;/div&gt;&lt;font style=&quot;font-size: 16px;&quot;&gt;&lt;span id=&quot;docs-internal-guid-ec5d6b2f-7fff-9428-3c5d-aab0a95144c4&quot;&gt;&lt;/span&gt;&lt;/font&gt;" style="text;html=1;strokeColor=none;fillColor=none;align=center;verticalAlign=top;whiteSpace=wrap;rounded=0;" parent="1" vertex="1">
          <mxGeometry x="48.05" y="330" width="620" height="190" as="geometry" />
        </mxCell>
        <mxCell id="9MnGjtC8QhtEFFOf_FAR-6" value="&lt;b&gt;&lt;font style=&quot;font-size: 21px;&quot;&gt;HISTORIA&lt;/font&gt;&lt;/b&gt;" style="text;html=1;align=center;verticalAlign=middle;resizable=0;points=[];autosize=1;strokeColor=none;fillColor=none;" parent="1" vertex="1">
          <mxGeometry x="290" y="300" width="120" height="40" as="geometry" />
        </mxCell>
        <mxCell id="9MnGjtC8QhtEFFOf_FAR-9" value="&lt;b style=&quot;font-size: 21px;&quot;&gt;&lt;span style=&quot;white-space: pre;&quot;&gt; &lt;/span&gt;CELE&lt;/b&gt;" style="text;html=1;align=center;verticalAlign=middle;resizable=0;points=[];autosize=1;strokeColor=none;fillColor=none;" parent="1" vertex="1">
          <mxGeometry x="200" y="570" width="130" height="40" as="geometry" />
        </mxCell>
        <mxCell id="9MnGjtC8QhtEFFOf_FAR-10" value="&lt;b&gt;&lt;font style=&quot;font-size: 21px;&quot;&gt;OBAWY&lt;/font&gt;&lt;/b&gt;" style="text;html=1;align=center;verticalAlign=middle;resizable=0;points=[];autosize=1;strokeColor=none;fillColor=none;" parent="1" vertex="1">
          <mxGeometry x="145" y="700" width="100" height="40" as="geometry" />
        </mxCell>
        <mxCell id="9MnGjtC8QhtEFFOf_FAR-11" value="&lt;p style=&quot;line-height:1.38;margin-top:0pt;margin-bottom:0pt;&quot; dir=&quot;ltr&quot;&gt;&lt;/p&gt;&lt;div&gt;&lt;/div&gt;&lt;font face=&quot;Arial&quot;&gt;&lt;span style=&quot;font-size: 16px;&quot;&gt;Słaba bateria, mała pojemność pamięciowa, słaba konstrukcja&lt;/span&gt;&lt;/font&gt;&lt;br&gt;&lt;span id=&quot;docs-internal-guid-54c61a43-7fff-081e-ac6f-ec47f6fe2569&quot;&gt;&lt;/span&gt;" style="text;html=1;strokeColor=none;fillColor=none;align=center;verticalAlign=middle;whiteSpace=wrap;rounded=0;" parent="1" vertex="1">
          <mxGeometry x="230" y="660" width="426.44" height="130" as="geometry" />
        </mxCell>
        <mxCell id="9MnGjtC8QhtEFFOf_FAR-12" value="&lt;b&gt;&lt;font style=&quot;font-size: 21px;&quot;&gt;POTRZEBY&lt;/font&gt;&lt;/b&gt;" style="text;html=1;align=center;verticalAlign=middle;resizable=0;points=[];autosize=1;strokeColor=none;fillColor=none;" parent="1" vertex="1">
          <mxGeometry x="150" y="810" width="140" height="40" as="geometry" />
        </mxCell>
        <mxCell id="9MnGjtC8QhtEFFOf_FAR-13" value="&lt;br&gt;&lt;font style=&quot;font-size: 16px;&quot;&gt;&lt;b id=&quot;docs-internal-guid-828413a5-7fff-146d-9173-ac745d594bb3&quot; style=&quot;font-weight:normal;&quot;&gt;&lt;span style=&quot;font-family: Arial; color: rgb(0, 0, 0); background-color: transparent; font-weight: 400; font-style: normal; font-variant: normal; text-decoration: none; vertical-align: baseline;&quot;&gt;Duża pojemność pamięciowa. Urządzenie łatwe w instalacji. Integracja z aplikacją z intuicyjnym, przyjaznym interfejsem. Łatwość przechowywania i udostępniania zgromadzonych nagrań.&lt;/span&gt;&lt;/b&gt;&lt;br&gt;&lt;/font&gt;" style="text;html=1;strokeColor=none;fillColor=none;align=center;verticalAlign=middle;whiteSpace=wrap;rounded=0;" parent="1" vertex="1">
          <mxGeometry x="330" y="790" width="410" height="90" as="geometry" />
        </mxCell>
        <mxCell id="9MnGjtC8QhtEFFOf_FAR-14" value="&lt;b&gt;&lt;font style=&quot;font-size: 21px;&quot;&gt;PRZYDATNE&lt;br&gt;&lt;/font&gt;&lt;/b&gt;" style="text;html=1;align=center;verticalAlign=middle;resizable=0;points=[];autosize=1;strokeColor=none;fillColor=none;" parent="1" vertex="1">
          <mxGeometry x="95" y="945" width="150" height="40" as="geometry" />
        </mxCell>
        <mxCell id="9MnGjtC8QhtEFFOf_FAR-16" value="&lt;br&gt;&lt;font style=&quot;font-size: 16px;&quot;&gt;&lt;b id=&quot;docs-internal-guid-1348e3cd-7fff-1284-6ce5-cb71970c5e83&quot; style=&quot;font-weight:normal;&quot;&gt;&lt;span style=&quot;font-family: Arial; color: rgb(0, 0, 0); background-color: transparent; font-weight: 400; font-style: normal; font-variant: normal; text-decoration: none; vertical-align: baseline;&quot;&gt;Wskaźnik poziomu naładowania rejestratora. Obsługa zewnętrznych nośników pamięci (karta SD).&lt;/span&gt;&lt;/b&gt;&lt;br&gt;&lt;/font&gt;" style="text;html=1;strokeColor=none;fillColor=none;align=center;verticalAlign=middle;whiteSpace=wrap;rounded=0;" parent="1" vertex="1">
          <mxGeometry x="270.22" y="930" width="326" height="70" as="geometry" />
        </mxCell>
        <mxCell id="9MnGjtC8QhtEFFOf_FAR-17" value="&lt;b&gt;&lt;font style=&quot;font-size: 21px;&quot;&gt;ZNAJOMOŚĆ TECHNOLOGII&lt;br&gt;&lt;/font&gt;&lt;/b&gt;" style="text;html=1;align=center;verticalAlign=middle;resizable=0;points=[];autosize=1;strokeColor=none;fillColor=none;" parent="1" vertex="1">
          <mxGeometry x="166" y="1060" width="310" height="40" as="geometry" />
        </mxCell>
        <mxCell id="9MnGjtC8QhtEFFOf_FAR-18" value="&lt;font style=&quot;font-size: 16px;&quot;&gt;&lt;b id=&quot;docs-internal-guid-8e8428c6-7fff-ed7c-fc14-69e5486afa28&quot; style=&quot;font-weight:normal;&quot;&gt;&lt;span style=&quot;font-family: Arial; color: rgb(0, 0, 0); background-color: transparent; font-weight: 400; font-style: normal; font-variant: normal; text-decoration: none; vertical-align: baseline;&quot;&gt;android, media społecznościowe, programy edycji video&lt;/span&gt;&lt;/b&gt;&lt;br&gt;&lt;/font&gt;" style="text;html=1;strokeColor=none;fillColor=none;align=center;verticalAlign=middle;whiteSpace=wrap;rounded=0;" parent="1" vertex="1">
          <mxGeometry x="470" y="1050" width="300" height="55" as="geometry" />
        </mxCell>
        <mxCell id="9MnGjtC8QhtEFFOf_FAR-21" value="" style="shape=mxgraph.signs.transportation.bicycle_1;html=1;pointerEvents=1;fillColor=#6666ff;strokeColor=none;verticalLabelPosition=bottom;verticalAlign=top;align=center;flipH=1;rotation=30;" parent="1" vertex="1">
          <mxGeometry x="607.05" y="250.29" width="61" height="44" as="geometry" />
        </mxCell>
        <mxCell id="9MnGjtC8QhtEFFOf_FAR-43" value="" style="group" parent="1" vertex="1" connectable="0">
          <mxGeometry x="640" y="80" width="140" height="140" as="geometry" />
        </mxCell>
        <mxCell id="9MnGjtC8QhtEFFOf_FAR-33" value="" style="ellipse;whiteSpace=wrap;html=1;fillColor=#000000;" parent="9MnGjtC8QhtEFFOf_FAR-43" vertex="1">
          <mxGeometry width="140" height="140" as="geometry" />
        </mxCell>
        <mxCell id="9MnGjtC8QhtEFFOf_FAR-34" value="" style="ellipse;whiteSpace=wrap;html=1;aspect=fixed;" parent="9MnGjtC8QhtEFFOf_FAR-43" vertex="1">
          <mxGeometry x="5.833333333333334" y="5.833333333333334" width="128.33333333333334" height="128.33333333333334" as="geometry" />
        </mxCell>
        <mxCell id="9MnGjtC8QhtEFFOf_FAR-35" value="" style="endArrow=none;html=1;rounded=0;exitX=0;exitY=1;exitDx=0;exitDy=0;entryX=1;entryY=0;entryDx=0;entryDy=0;" parent="9MnGjtC8QhtEFFOf_FAR-43" source="9MnGjtC8QhtEFFOf_FAR-34" target="9MnGjtC8QhtEFFOf_FAR-34" edge="1">
          <mxGeometry width="50" height="50" relative="1" as="geometry">
            <mxPoint x="40.833333333333336" y="99.16666666666667" as="sourcePoint" />
            <mxPoint x="99.16666666666667" y="40.833333333333336" as="targetPoint" />
          </mxGeometry>
        </mxCell>
        <mxCell id="9MnGjtC8QhtEFFOf_FAR-36" value="" style="endArrow=none;html=1;rounded=0;exitX=0;exitY=0.5;exitDx=0;exitDy=0;entryX=1;entryY=0.5;entryDx=0;entryDy=0;" parent="9MnGjtC8QhtEFFOf_FAR-43" source="9MnGjtC8QhtEFFOf_FAR-34" target="9MnGjtC8QhtEFFOf_FAR-34" edge="1">
          <mxGeometry width="50" height="50" relative="1" as="geometry">
            <mxPoint x="36.29398154053043" y="127.03935179280298" as="sourcePoint" />
            <mxPoint x="127.03935179280292" y="36.29398154053037" as="targetPoint" />
          </mxGeometry>
        </mxCell>
        <mxCell id="9MnGjtC8QhtEFFOf_FAR-37" value="" style="endArrow=none;html=1;rounded=0;exitX=0.5;exitY=1;exitDx=0;exitDy=0;entryX=0.5;entryY=0;entryDx=0;entryDy=0;" parent="9MnGjtC8QhtEFFOf_FAR-43" source="9MnGjtC8QhtEFFOf_FAR-34" target="9MnGjtC8QhtEFFOf_FAR-34" edge="1">
          <mxGeometry width="50" height="50" relative="1" as="geometry">
            <mxPoint x="47.960648207197096" y="138.70601845946965" as="sourcePoint" />
            <mxPoint x="138.7060184594696" y="47.96064820719703" as="targetPoint" />
          </mxGeometry>
        </mxCell>
        <mxCell id="9MnGjtC8QhtEFFOf_FAR-38" value="" style="endArrow=none;html=1;rounded=0;exitX=1;exitY=1;exitDx=0;exitDy=0;entryX=0;entryY=0;entryDx=0;entryDy=0;" parent="9MnGjtC8QhtEFFOf_FAR-43" source="9MnGjtC8QhtEFFOf_FAR-34" target="9MnGjtC8QhtEFFOf_FAR-34" edge="1">
          <mxGeometry width="50" height="50" relative="1" as="geometry">
            <mxPoint x="59.62731487386377" y="150.3726851261363" as="sourcePoint" />
            <mxPoint x="150.37268512613625" y="59.6273148738637" as="targetPoint" />
          </mxGeometry>
        </mxCell>
        <mxCell id="9MnGjtC8QhtEFFOf_FAR-39" value="" style="rounded=1;whiteSpace=wrap;html=1;fillColor=#000000;" parent="9MnGjtC8QhtEFFOf_FAR-43" vertex="1">
          <mxGeometry x="24.5" y="35" width="74.66666666666667" height="70" as="geometry" />
        </mxCell>
        <mxCell id="9MnGjtC8QhtEFFOf_FAR-40" value="" style="triangle;whiteSpace=wrap;html=1;fillColor=#000000;rotation=-180;" parent="9MnGjtC8QhtEFFOf_FAR-43" vertex="1">
          <mxGeometry x="87.5" y="40.833333333333336" width="28" height="58.333333333333336" as="geometry" />
        </mxCell>
        <mxCell id="9MnGjtC8QhtEFFOf_FAR-41" value="" style="ellipse;whiteSpace=wrap;html=1;aspect=fixed;fillColor=#FF0000;" parent="9MnGjtC8QhtEFFOf_FAR-43" vertex="1">
          <mxGeometry x="44.333333333333336" y="50.16666666666667" width="11.666666666666668" height="11.666666666666668" as="geometry" />
        </mxCell>
        <mxCell id="9MnGjtC8QhtEFFOf_FAR-42" value="" style="ellipse;whiteSpace=wrap;html=1;aspect=fixed;fillColor=none;strokeColor=#FFFFFF;strokeWidth=2;" parent="9MnGjtC8QhtEFFOf_FAR-43" vertex="1">
          <mxGeometry x="5.833333333333334" y="5.833333333333334" width="128.33333333333334" height="128.33333333333334" as="geometry" />
        </mxCell>
        <mxCell id="cdlqq1NdYdRUZiqAoaAK-1" value="&lt;font style=&quot;font-size: 16px;&quot;&gt;Rejestracja całej trasy na wypadek sytuacji nieprzewidzianych jak np. ucieczka przed dzikim zwierzęciem.&lt;/font&gt;" style="text;html=1;strokeColor=none;fillColor=none;align=center;verticalAlign=middle;whiteSpace=wrap;rounded=0;" vertex="1" parent="1">
          <mxGeometry x="350" y="570" width="280" height="60" as="geometry" />
        </mxCell>
      </root>
    </mxGraphModel>
  </diagram>
</mxfile>
